<?xml version="1.0" encoding="UTF-8" standalone="no"?><svg xmlns="http://www.w3.org/2000/svg" xmlns:xlink="http://www.w3.org/1999/xlink" contentScriptType="application/ecmascript" contentStyleType="text/css" height="468px" preserveAspectRatio="none" style="width:276px;height:468px;" version="1.1" viewBox="0 0 276 468" width="276px" zoomAndPan="magnify"><defs><filter height="300%" id="f2onxpdnb4q9i" width="300%" x="-1" y="-1"><feGaussianBlur result="blurOut" stdDeviation="2.0"/><feColorMatrix in="blurOut" result="blurOut2" type="matrix" values="0 0 0 0 0 0 0 0 0 0 0 0 0 0 0 0 0 0 .4 0"/><feOffset dx="4.0" dy="4.0" in="blurOut2" result="blurOut3"/><feBlend in="SourceGraphic" in2="blurOut3" mode="normal"/></filter></defs><g><!--MD5=[373ce27cdb065709cb1ab86f401dd752]
cluster POS--><polygon fill="#FFFFFF" filter="url(#f2onxpdnb4q9i)" points="68,34,78,24,208,24,208,207,198,217,68,217,68,34" style="stroke: #000000; stroke-width: 1.5;"/><line style="stroke: #000000; stroke-width: 1.5;" x1="198" x2="207" y1="34" y2="25"/><line style="stroke: #000000; stroke-width: 1.5;" x1="68" x2="198" y1="34" y2="34"/><line style="stroke: #000000; stroke-width: 1.5;" x1="198" x2="198" y1="34" y2="217"/><text fill="#000000" font-family="sans-serif" font-size="14" font-weight="bold" lengthAdjust="spacingAndGlyphs" textLength="29" x="119.5" y="51.5332">POS</text><!--MD5=[bf651fdbd8dc621b8c9f8c9bb2faf726]
cluster Terminal--><polygon fill="#FFFFFF" filter="url(#f2onxpdnb4q9i)" points="22,251,32,241,254,241,254,446,244,456,22,456,22,251" style="stroke: #000000; stroke-width: 1.5;"/><line style="stroke: #000000; stroke-width: 1.5;" x1="244" x2="253" y1="251" y2="242"/><line style="stroke: #000000; stroke-width: 1.5;" x1="22" x2="244" y1="251" y2="251"/><line style="stroke: #000000; stroke-width: 1.5;" x1="244" x2="244" y1="251" y2="456"/><text fill="#000000" font-family="sans-serif" font-size="14" font-weight="bold" lengthAdjust="spacingAndGlyphs" textLength="60" x="104" y="268.5332">Terminal</text><!--MD5=[53ccf4b3ee6cf4337a0ab93ac09644f3]
entity main--><rect fill="#F8F8F8" filter="url(#f2onxpdnb4q9i)" height="37.6094" style="stroke: #383838; stroke-width: 1.5;" width="108" x="84" y="65"/><rect fill="#F8F8F8" height="5" style="stroke: #383838; stroke-width: 1.5;" width="10" x="79" y="70"/><rect fill="#F8F8F8" height="5" style="stroke: #383838; stroke-width: 1.5;" width="10" x="79" y="92.6094"/><text fill="#000000" font-family="sans-serif" font-size="14" lengthAdjust="spacingAndGlyphs" textLength="88" x="94" y="89.5332">POS Software</text><!--MD5=[e2307af040e3f87d22824e7603ca28ec]
entity api--><rect fill="#F8F8F8" filter="url(#f2onxpdnb4q9i)" height="37.6094" style="stroke: #383838; stroke-width: 1.5;" width="89" x="93.5" y="163"/><rect fill="#F8F8F8" height="5" style="stroke: #383838; stroke-width: 1.5;" width="10" x="88.5" y="168"/><rect fill="#F8F8F8" height="5" style="stroke: #383838; stroke-width: 1.5;" width="10" x="88.5" y="190.6094"/><text fill="#000000" font-family="sans-serif" font-size="14" lengthAdjust="spacingAndGlyphs" textLength="69" x="103.5" y="187.5332">Integra API</text><!--MD5=[9b8c4ddb7fd7c3dd805b94e8375599e5]
entity term--><rect fill="#F8F8F8" filter="url(#f2onxpdnb4q9i)" height="37.6094" style="stroke: #383838; stroke-width: 1.5;" width="134" x="71" y="402"/><rect fill="#F8F8F8" height="5" style="stroke: #383838; stroke-width: 1.5;" width="10" x="66" y="407"/><rect fill="#F8F8F8" height="5" style="stroke: #383838; stroke-width: 1.5;" width="10" x="66" y="429.6094"/><text fill="#000000" font-family="sans-serif" font-size="14" lengthAdjust="spacingAndGlyphs" textLength="114" x="81" y="426.5332">Terminal Software</text><!--MD5=[1d18ee9a77ed575905bda72caac43f28]
entity connector--><ellipse cx="138" cy="312" fill="#F8F8F8" filter="url(#f2onxpdnb4q9i)" rx="8" ry="8" style="stroke: #383838; stroke-width: 2.0;"/><text fill="#000000" font-family="sans-serif" font-size="14" lengthAdjust="spacingAndGlyphs" textLength="184" x="46" y="343.5332">Terminal Software Connector</text><!--MD5=[b0ba52e67f69cd8fcc4cfaef1e016ebb]
link main to api--><path d="M138,103.057 C138,118.513 138,140.865 138,157.673 " fill="none" id="main-&gt;api" style="stroke: #383838; stroke-width: 1.0; stroke-dasharray: 7.0,7.0;"/><polygon fill="#383838" points="138,162.698,142,153.698,138,157.698,134,153.698,138,162.698" style="stroke: #383838; stroke-width: 1.0;"/><!--MD5=[b47d028d833b6fb9a6f420c997c35387]
reverse link connector to term--><path d="M138,326.4 C138,345.408 138,380.263 138,401.6574 " fill="none" id="connector&lt;-term" style="stroke: #383838; stroke-width: 1.0;"/><polygon fill="#383838" points="138,321.042,134,330.042,138,326.042,142,330.042,138,321.042" style="stroke: #383838; stroke-width: 1.0;"/><!--MD5=[c79cc88421e6a649e6ba68e1996625c6]
link api to connector--><path d="M138,201.068 C138,225.34 138,268.242 138,292.655 " fill="none" id="api-&gt;connector" style="stroke: #383838; stroke-width: 1.0;"/><path d="M146.4572,299.6378 A9,9 0 0 0 129.5428 299.6378" fill="none" style="stroke: #383838; stroke-width: 1.5;"/><!--MD5=[8090abdd8484b88f84a2b33420755ad4]
@startuml
skinparam monochrome true

node POS {
  component "POS Software" as main
  component "Integra API" as api

  main .down.> api
}

node Terminal {
  component "Terminal Software" as term
  interface "Terminal Software Connector" as connector
   term -up-> connector
 }

api -down-( connector

@enduml

PlantUML version 1.2019.11(Sun Sep 22 11:02:15 BST 2019)
(GPL source distribution)
Java Runtime: OpenJDK Runtime Environment
JVM: OpenJDK 64-Bit Server VM
Java Version: 11.0.5+10-b520.38
Operating System: Windows 10
Default Encoding: Cp1252
Language: pt
Country: PT
--></g></svg>