<?xml version="1.0" encoding="UTF-8" standalone="no"?><svg xmlns="http://www.w3.org/2000/svg" xmlns:xlink="http://www.w3.org/1999/xlink" contentScriptType="application/ecmascript" contentStyleType="text/css" height="222px" preserveAspectRatio="none" style="width:166px;height:222px;" version="1.1" viewBox="0 0 166 222" width="166px" zoomAndPan="magnify"><defs><filter height="300%" id="f1xif41alq0oly" width="300%" x="-1" y="-1"><feGaussianBlur result="blurOut" stdDeviation="2.0"/><feColorMatrix in="blurOut" result="blurOut2" type="matrix" values="0 0 0 0 0 0 0 0 0 0 0 0 0 0 0 0 0 0 .4 0"/><feOffset dx="4.0" dy="4.0" in="blurOut2" result="blurOut3"/><feBlend in="SourceGraphic" in2="blurOut3" mode="normal"/></filter></defs><g><!--MD5=[373ce27cdb065709cb1ab86f401dd752]
cluster POS--><polygon fill="#FFFFFF" filter="url(#f1xif41alq0oly)" points="22,34,32,24,144,24,144,109,134,119,22,119,22,34" style="stroke: #000000; stroke-width: 1.5;"/><line style="stroke: #000000; stroke-width: 1.5;" x1="134" x2="143" y1="34" y2="25"/><line style="stroke: #000000; stroke-width: 1.5;" x1="22" x2="134" y1="34" y2="34"/><line style="stroke: #000000; stroke-width: 1.5;" x1="134" x2="134" y1="34" y2="119"/><text fill="#000000" font-family="sans-serif" font-size="14" font-weight="bold" lengthAdjust="spacingAndGlyphs" textLength="29" x="64.5" y="51.5332">POS</text><!--MD5=[e2307af040e3f87d22824e7603ca28ec]
entity api--><rect fill="#F8F8F8" filter="url(#f1xif41alq0oly)" height="37.6094" style="stroke: #383838; stroke-width: 1.5;" width="89" x="38.5" y="65"/><rect fill="#F8F8F8" height="5" style="stroke: #383838; stroke-width: 1.5;" width="10" x="33.5" y="70"/><rect fill="#F8F8F8" height="5" style="stroke: #383838; stroke-width: 1.5;" width="10" x="33.5" y="92.6094"/><text fill="#000000" font-family="sans-serif" font-size="14" lengthAdjust="spacingAndGlyphs" textLength="69" x="48.5" y="89.5332">Integra API</text><!--MD5=[f86d083f7526329011f4b6f057bca77a]
entity Terminal--><polygon fill="#F8F8F8" filter="url(#f1xif41alq0oly)" points="35.5,173,45.5,163,130.5,163,130.5,200.6094,120.5,210.6094,35.5,210.6094,35.5,173" style="stroke: #000000; stroke-width: 1.5;"/><line style="stroke: #000000; stroke-width: 1.5;" x1="120.5" x2="129.5" y1="173" y2="164"/><line style="stroke: #000000; stroke-width: 1.5;" x1="35.5" x2="120.5" y1="173" y2="173"/><line style="stroke: #000000; stroke-width: 1.5;" x1="120.5" x2="120.5" y1="173" y2="210.6094"/><text fill="#000000" font-family="sans-serif" font-size="14" lengthAdjust="spacingAndGlyphs" textLength="55" x="50.5" y="197.5332">Terminal</text><!--MD5=[55ced2e7958723c0266fa942c6dff615]
link api to Terminal--><path d="M83,103.057 C83,118.1746 83,140.0194 83,157.4959 " fill="none" id="api-&gt;Terminal" style="stroke: #383838; stroke-width: 1.0; stroke-dasharray: 7.0,7.0;"/><polygon fill="#383838" points="83,162.7672,87,153.7672,83,157.7672,79,153.7672,83,162.7672" style="stroke: #383838; stroke-width: 1.0;"/><!--MD5=[31e972ca39924f42b30bb69037283c0c]
@startuml
skinparam monochrome true

node POS {
  component "Integra API" as api
}

node Terminal
api .down.> Terminal
@enduml

PlantUML version 1.2019.11(Sun Sep 22 11:02:15 BST 2019)
(GPL source distribution)
Java Runtime: OpenJDK Runtime Environment
JVM: OpenJDK 64-Bit Server VM
Java Version: 11.0.5+10-b520.38
Operating System: Windows 10
Default Encoding: Cp1252
Language: pt
Country: PT
--></g></svg>