<?xml version="1.0" encoding="UTF-8" standalone="no"?><svg xmlns="http://www.w3.org/2000/svg" xmlns:xlink="http://www.w3.org/1999/xlink" contentScriptType="application/ecmascript" contentStyleType="text/css" height="791px" preserveAspectRatio="none" style="width:3185px;height:791px;" version="1.1" viewBox="0 0 3185 791" width="3185px" zoomAndPan="magnify"><defs><filter height="300%" id="fmrl81w82943b" width="300%" x="-1" y="-1"><feGaussianBlur result="blurOut" stdDeviation="2.0"/><feColorMatrix in="blurOut" result="blurOut2" type="matrix" values="0 0 0 0 0 0 0 0 0 0 0 0 0 0 0 0 0 0 .4 0"/><feOffset dx="4.0" dy="4.0" in="blurOut2" result="blurOut3"/><feBlend in="SourceGraphic" in2="blurOut3" mode="normal"/></filter></defs><g><!--MD5=[1f52682d24487e7368baaed57e0741ab]
class Integra--><rect fill="#F8F8F8" filter="url(#fmrl81w82943b)" height="75.6719" id="Integra" style="stroke: #383838; stroke-width: 1.5;" width="303" x="1655.5" y="21.5"/><ellipse cx="1783.75" cy="37.5" fill="#C2C2C2" rx="11" ry="11" style="stroke: #383838; stroke-width: 1.0;"/><path d="M1785.75,34 Q1785.9531,33.5 1786.1875,33.25 Q1786.4219,33 1786.6875,33 Q1787.1563,33 1787.4531,33.2813 Q1787.75,33.5625 1787.75,34.2188 L1787.75,35.7813 Q1787.75,36.4375 1787.4688,36.7188 Q1787.1875,37 1786.75,37 Q1786.3594,37 1786.1094,36.8281 Q1785.8594,36.6563 1785.75,36.2031 Q1785.7031,35.8906 1785.5313,35.7188 Q1785.2188,35.3906 1784.6563,35.2031 Q1784.0938,35 1783.5313,35 Q1782.8281,35 1782.2344,35.2813 Q1781.6563,35.5625 1781.2031,36.1875 Q1780.75,36.8125 1780.75,37.6719 L1780.75,38.5938 Q1780.75,39.625 1781.5938,40.3125 Q1782.4375,41 1783.9375,41 Q1784.8281,41 1785.4531,40.7969 Q1785.8125,40.6875 1786.2188,40.3281 Q1786.4844,40.125 1786.625,40.0625 Q1786.7656,40 1786.9375,40 Q1787.2656,40 1787.5,40.2656 Q1787.75,40.5156 1787.75,40.875 Q1787.75,41.2188 1787.4063,41.625 Q1786.9063,42.2188 1786.1094,42.5469 Q1785.0625,43 1783.7813,43 Q1782.2813,43 1781.0781,42.4063 Q1780.1094,41.9375 1779.4219,40.9219 Q1778.75,39.9063 1778.75,38.7031 L1778.75,37.6094 Q1778.75,36.3594 1779.3438,35.2656 Q1779.9531,34.1719 1781,33.5938 Q1782.0625,33 1783.25,33 Q1783.9688,33 1784.5938,33.25 Q1785.2188,33.5 1785.75,34 Z "/><text fill="#000000" font-family="sans-serif" font-size="12" lengthAdjust="spacingAndGlyphs" textLength="38" x="1804.25" y="42.4102">Integra</text><line style="stroke: #383838; stroke-width: 1.5;" x1="1656.5" x2="1957.5" y1="53.5" y2="53.5"/><line style="stroke: #383838; stroke-width: 1.5;" x1="1656.5" x2="1957.5" y1="61.5" y2="61.5"/><text fill="#000000" font-family="sans-serif" font-size="11" lengthAdjust="spacingAndGlyphs" textLength="47" x="1661.5" y="76.9189">connect()</text><text fill="#000000" font-family="sans-serif" font-size="11" lengthAdjust="spacingAndGlyphs" textLength="291" x="1661.5" y="90.7549">sendRequest(request: Request, handler: IResponseHandler)</text><!--MD5=[176b9c7c892bb0b897856819ec0edb32]
class CommunicationContext--><rect fill="#F8F8F8" filter="url(#fmrl81w82943b)" height="61.8359" id="CommunicationContext" style="stroke: #383838; stroke-width: 1.5;" width="304" x="1799" y="206.5"/><ellipse cx="1882.25" cy="222.5" fill="#C2C2C2" rx="11" ry="11" style="stroke: #383838; stroke-width: 1.0;"/><path d="M1884.25,219 Q1884.4531,218.5 1884.6875,218.25 Q1884.9219,218 1885.1875,218 Q1885.6563,218 1885.9531,218.2813 Q1886.25,218.5625 1886.25,219.2188 L1886.25,220.7813 Q1886.25,221.4375 1885.9688,221.7188 Q1885.6875,222 1885.25,222 Q1884.8594,222 1884.6094,221.8281 Q1884.3594,221.6563 1884.25,221.2031 Q1884.2031,220.8906 1884.0313,220.7188 Q1883.7188,220.3906 1883.1563,220.2031 Q1882.5938,220 1882.0313,220 Q1881.3281,220 1880.7344,220.2813 Q1880.1563,220.5625 1879.7031,221.1875 Q1879.25,221.8125 1879.25,222.6719 L1879.25,223.5938 Q1879.25,224.625 1880.0938,225.3125 Q1880.9375,226 1882.4375,226 Q1883.3281,226 1883.9531,225.7969 Q1884.3125,225.6875 1884.7188,225.3281 Q1884.9844,225.125 1885.125,225.0625 Q1885.2656,225 1885.4375,225 Q1885.7656,225 1886,225.2656 Q1886.25,225.5156 1886.25,225.875 Q1886.25,226.2188 1885.9063,226.625 Q1885.4063,227.2188 1884.6094,227.5469 Q1883.5625,228 1882.2813,228 Q1880.7813,228 1879.5781,227.4063 Q1878.6094,226.9375 1877.9219,225.9219 Q1877.25,224.9063 1877.25,223.7031 L1877.25,222.6094 Q1877.25,221.3594 1877.8438,220.2656 Q1878.4531,219.1719 1879.5,218.5938 Q1880.5625,218 1881.75,218 Q1882.4688,218 1883.0938,218.25 Q1883.7188,218.5 1884.25,219 Z "/><text fill="#000000" font-family="sans-serif" font-size="12" lengthAdjust="spacingAndGlyphs" textLength="129" x="1902.75" y="227.4102">CommunicationContext</text><line style="stroke: #383838; stroke-width: 1.5;" x1="1800" x2="2102" y1="238.5" y2="238.5"/><line style="stroke: #383838; stroke-width: 1.5;" x1="1800" x2="2102" y1="246.5" y2="246.5"/><text fill="#000000" font-family="sans-serif" font-size="11" lengthAdjust="spacingAndGlyphs" textLength="292" x="1805" y="261.9189">CommunicationContext(channel: IChannel, datalink : IDatalink)</text><!--MD5=[f37b31d4927d686d0c3cbeb4dbac84c6]
class IStatusUpdateHandler--><rect fill="#F8F8F8" filter="url(#fmrl81w82943b)" height="61.8359" id="IStatusUpdateHandler" style="stroke: #383838; stroke-width: 1.5;" width="201" x="1562.5" y="206.5"/><ellipse cx="1598.65" cy="222.5" fill="#B1B1B1" rx="11" ry="11" style="stroke: #383838; stroke-width: 1.0;"/><path d="M1599.65,219.5 L1599.65,225.5 L1601.65,225.5 L1602.1344,225.5 L1602.65,226.125 L1602.65,226.5 L1602.65,226.875 L1602.1344,227.5 L1601.65,227.5 L1595.65,227.5 L1595.1656,227.5 L1594.65,226.875 L1594.65,226.5 L1594.65,226.125 L1595.1656,225.5 L1595.65,225.5 L1597.65,225.5 L1597.65,219.5 L1595.65,219.5 L1595.1656,219.5 L1594.65,218.875 L1594.65,218.5 L1594.65,218.125 L1595.1656,217.5 L1595.65,217.5 L1601.65,217.5 L1602.1344,217.5 L1602.65,218.125 L1602.65,218.5 L1602.65,218.875 L1602.1344,219.5 L1601.65,219.5 L1599.65,219.5 Z "/><text fill="#000000" font-family="sans-serif" font-size="12" font-style="italic" lengthAdjust="spacingAndGlyphs" textLength="122" x="1617.35" y="227.4102">IStatusUpdateHandler</text><line style="stroke: #383838; stroke-width: 1.5;" x1="1563.5" x2="1762.5" y1="238.5" y2="238.5"/><line style="stroke: #383838; stroke-width: 1.5;" x1="1563.5" x2="1762.5" y1="246.5" y2="246.5"/><text fill="#000000" font-family="sans-serif" font-size="11" lengthAdjust="spacingAndGlyphs" textLength="189" x="1568.5" y="261.9189">onStatusUpdate(update: StatusUpdate)</text><!--MD5=[bc476cad528f2117426301de2da8d0fd]
class IResponseHandler--><rect fill="#F8F8F8" filter="url(#fmrl81w82943b)" height="61.8359" id="IResponseHandler" style="stroke: #383838; stroke-width: 1.5;" width="182" x="2023" y="28.5"/><ellipse cx="2058.7" cy="44.5" fill="#B1B1B1" rx="11" ry="11" style="stroke: #383838; stroke-width: 1.0;"/><path d="M2059.7,41.5 L2059.7,47.5 L2061.7,47.5 L2062.1844,47.5 L2062.7,48.125 L2062.7,48.5 L2062.7,48.875 L2062.1844,49.5 L2061.7,49.5 L2055.7,49.5 L2055.2156,49.5 L2054.7,48.875 L2054.7,48.5 L2054.7,48.125 L2055.2156,47.5 L2055.7,47.5 L2057.7,47.5 L2057.7,41.5 L2055.7,41.5 L2055.2156,41.5 L2054.7,40.875 L2054.7,40.5 L2054.7,40.125 L2055.2156,39.5 L2055.7,39.5 L2061.7,39.5 L2062.1844,39.5 L2062.7,40.125 L2062.7,40.5 L2062.7,40.875 L2062.1844,41.5 L2061.7,41.5 L2059.7,41.5 Z "/><text fill="#000000" font-family="sans-serif" font-size="12" font-style="italic" lengthAdjust="spacingAndGlyphs" textLength="104" x="2077.3" y="49.4102">IResponseHandler</text><line style="stroke: #383838; stroke-width: 1.5;" x1="2024" x2="2204" y1="60.5" y2="60.5"/><line style="stroke: #383838; stroke-width: 1.5;" x1="2024" x2="2204" y1="68.5" y2="68.5"/><text fill="#000000" font-family="sans-serif" font-size="11" lengthAdjust="spacingAndGlyphs" textLength="170" x="2029" y="83.9189">onResponse(response: Response)</text><!--MD5=[0851f84a889f989e7bb0bebc385d0f09]
class Request--><rect fill="#F8F8F8" filter="url(#fmrl81w82943b)" height="61.8359" id="Request" style="stroke: #383838; stroke-width: 1.5;" width="281" x="1309.5" y="28.5"/><ellipse cx="1422.25" cy="44.5" fill="#C2C2C2" rx="11" ry="11" style="stroke: #383838; stroke-width: 1.0;"/><path d="M1424.25,41 Q1424.4531,40.5 1424.6875,40.25 Q1424.9219,40 1425.1875,40 Q1425.6563,40 1425.9531,40.2813 Q1426.25,40.5625 1426.25,41.2188 L1426.25,42.7813 Q1426.25,43.4375 1425.9688,43.7188 Q1425.6875,44 1425.25,44 Q1424.8594,44 1424.6094,43.8281 Q1424.3594,43.6563 1424.25,43.2031 Q1424.2031,42.8906 1424.0313,42.7188 Q1423.7188,42.3906 1423.1563,42.2031 Q1422.5938,42 1422.0313,42 Q1421.3281,42 1420.7344,42.2813 Q1420.1563,42.5625 1419.7031,43.1875 Q1419.25,43.8125 1419.25,44.6719 L1419.25,45.5938 Q1419.25,46.625 1420.0938,47.3125 Q1420.9375,48 1422.4375,48 Q1423.3281,48 1423.9531,47.7969 Q1424.3125,47.6875 1424.7188,47.3281 Q1424.9844,47.125 1425.125,47.0625 Q1425.2656,47 1425.4375,47 Q1425.7656,47 1426,47.2656 Q1426.25,47.5156 1426.25,47.875 Q1426.25,48.2188 1425.9063,48.625 Q1425.4063,49.2188 1424.6094,49.5469 Q1423.5625,50 1422.2813,50 Q1420.7813,50 1419.5781,49.4063 Q1418.6094,48.9375 1417.9219,47.9219 Q1417.25,46.9063 1417.25,45.7031 L1417.25,44.6094 Q1417.25,43.3594 1417.8438,42.2656 Q1418.4531,41.1719 1419.5,40.5938 Q1420.5625,40 1421.75,40 Q1422.4688,40 1423.0938,40.25 Q1423.7188,40.5 1424.25,41 Z "/><text fill="#000000" font-family="sans-serif" font-size="12" lengthAdjust="spacingAndGlyphs" textLength="47" x="1442.75" y="49.4102">Request</text><line style="stroke: #383838; stroke-width: 1.5;" x1="1310.5" x2="1589.5" y1="60.5" y2="60.5"/><line style="stroke: #383838; stroke-width: 1.5;" x1="1310.5" x2="1589.5" y1="68.5" y2="68.5"/><text fill="#000000" font-family="sans-serif" font-size="11" lengthAdjust="spacingAndGlyphs" textLength="269" x="1315.5" y="83.9189">Request(type: String, options: HashMap&lt;String, String&gt;)</text><!--MD5=[62ba8ad8b61caf20139235a169a8c31d]
class Response--><rect fill="#F8F8F8" filter="url(#fmrl81w82943b)" height="75.6719" id="Response" style="stroke: #383838; stroke-width: 1.5;" width="172" x="2270" y="21.5"/><ellipse cx="2322.75" cy="37.5" fill="#C2C2C2" rx="11" ry="11" style="stroke: #383838; stroke-width: 1.0;"/><path d="M2324.75,34 Q2324.9531,33.5 2325.1875,33.25 Q2325.4219,33 2325.6875,33 Q2326.1563,33 2326.4531,33.2813 Q2326.75,33.5625 2326.75,34.2188 L2326.75,35.7813 Q2326.75,36.4375 2326.4688,36.7188 Q2326.1875,37 2325.75,37 Q2325.3594,37 2325.1094,36.8281 Q2324.8594,36.6563 2324.75,36.2031 Q2324.7031,35.8906 2324.5313,35.7188 Q2324.2188,35.3906 2323.6563,35.2031 Q2323.0938,35 2322.5313,35 Q2321.8281,35 2321.2344,35.2813 Q2320.6563,35.5625 2320.2031,36.1875 Q2319.75,36.8125 2319.75,37.6719 L2319.75,38.5938 Q2319.75,39.625 2320.5938,40.3125 Q2321.4375,41 2322.9375,41 Q2323.8281,41 2324.4531,40.7969 Q2324.8125,40.6875 2325.2188,40.3281 Q2325.4844,40.125 2325.625,40.0625 Q2325.7656,40 2325.9375,40 Q2326.2656,40 2326.5,40.2656 Q2326.75,40.5156 2326.75,40.875 Q2326.75,41.2188 2326.4063,41.625 Q2325.9063,42.2188 2325.1094,42.5469 Q2324.0625,43 2322.7813,43 Q2321.2813,43 2320.0781,42.4063 Q2319.1094,41.9375 2318.4219,40.9219 Q2317.75,39.9063 2317.75,38.7031 L2317.75,37.6094 Q2317.75,36.3594 2318.3438,35.2656 Q2318.9531,34.1719 2320,33.5938 Q2321.0625,33 2322.25,33 Q2322.9688,33 2323.5938,33.25 Q2324.2188,33.5 2324.75,34 Z "/><text fill="#000000" font-family="sans-serif" font-size="12" lengthAdjust="spacingAndGlyphs" textLength="58" x="2343.25" y="42.4102">Response</text><line style="stroke: #383838; stroke-width: 1.5;" x1="2271" x2="2441" y1="53.5" y2="53.5"/><text fill="#000000" font-family="sans-serif" font-size="11" lengthAdjust="spacingAndGlyphs" textLength="160" x="2276" y="68.9189">options: HashMap&lt;String, String&gt;</text><line style="stroke: #383838; stroke-width: 1.5;" x1="2271" x2="2441" y1="75.3359" y2="75.3359"/><text fill="#000000" font-family="sans-serif" font-size="11" lengthAdjust="spacingAndGlyphs" textLength="139" x="2276" y="90.7549">getValue(key: String) : String</text><!--MD5=[c95083f8014d99045f811ea890a5821a]
class StatusUpdate--><rect fill="#F8F8F8" filter="url(#fmrl81w82943b)" height="75.6719" id="StatusUpdate" style="stroke: #383838; stroke-width: 1.5;" width="172" x="1326" y="199.5"/><ellipse cx="1370.25" cy="215.5" fill="#C2C2C2" rx="11" ry="11" style="stroke: #383838; stroke-width: 1.0;"/><path d="M1372.25,212 Q1372.4531,211.5 1372.6875,211.25 Q1372.9219,211 1373.1875,211 Q1373.6563,211 1373.9531,211.2813 Q1374.25,211.5625 1374.25,212.2188 L1374.25,213.7813 Q1374.25,214.4375 1373.9688,214.7188 Q1373.6875,215 1373.25,215 Q1372.8594,215 1372.6094,214.8281 Q1372.3594,214.6563 1372.25,214.2031 Q1372.2031,213.8906 1372.0313,213.7188 Q1371.7188,213.3906 1371.1563,213.2031 Q1370.5938,213 1370.0313,213 Q1369.3281,213 1368.7344,213.2813 Q1368.1563,213.5625 1367.7031,214.1875 Q1367.25,214.8125 1367.25,215.6719 L1367.25,216.5938 Q1367.25,217.625 1368.0938,218.3125 Q1368.9375,219 1370.4375,219 Q1371.3281,219 1371.9531,218.7969 Q1372.3125,218.6875 1372.7188,218.3281 Q1372.9844,218.125 1373.125,218.0625 Q1373.2656,218 1373.4375,218 Q1373.7656,218 1374,218.2656 Q1374.25,218.5156 1374.25,218.875 Q1374.25,219.2188 1373.9063,219.625 Q1373.4063,220.2188 1372.6094,220.5469 Q1371.5625,221 1370.2813,221 Q1368.7813,221 1367.5781,220.4063 Q1366.6094,219.9375 1365.9219,218.9219 Q1365.25,217.9063 1365.25,216.7031 L1365.25,215.6094 Q1365.25,214.3594 1365.8438,213.2656 Q1366.4531,212.1719 1367.5,211.5938 Q1368.5625,211 1369.75,211 Q1370.4688,211 1371.0938,211.25 Q1371.7188,211.5 1372.25,212 Z "/><text fill="#000000" font-family="sans-serif" font-size="12" lengthAdjust="spacingAndGlyphs" textLength="75" x="1390.75" y="220.4102">StatusUpdate</text><line style="stroke: #383838; stroke-width: 1.5;" x1="1327" x2="1497" y1="231.5" y2="231.5"/><text fill="#000000" font-family="sans-serif" font-size="11" lengthAdjust="spacingAndGlyphs" textLength="160" x="1332" y="246.9189">options: HashMap&lt;String, String&gt;</text><line style="stroke: #383838; stroke-width: 1.5;" x1="1327" x2="1497" y1="253.3359" y2="253.3359"/><text fill="#000000" font-family="sans-serif" font-size="11" lengthAdjust="spacingAndGlyphs" textLength="139" x="1332" y="268.7549">getValue(key: String) : String</text><!--MD5=[faaa79ddaea5e037790f64f03cadc562]
class IChannel--><rect fill="#F8F8F8" filter="url(#fmrl81w82943b)" height="48" id="IChannel" style="stroke: #383838; stroke-width: 1.5;" width="83" x="1909.5" y="364"/><ellipse cx="1924.5" cy="380" fill="#B1B1B1" rx="11" ry="11" style="stroke: #383838; stroke-width: 1.0;"/><path d="M1925.5,377 L1925.5,383 L1927.5,383 L1927.9844,383 L1928.5,383.625 L1928.5,384 L1928.5,384.375 L1927.9844,385 L1927.5,385 L1921.5,385 L1921.0156,385 L1920.5,384.375 L1920.5,384 L1920.5,383.625 L1921.0156,383 L1921.5,383 L1923.5,383 L1923.5,377 L1921.5,377 L1921.0156,377 L1920.5,376.375 L1920.5,376 L1920.5,375.625 L1921.0156,375 L1921.5,375 L1927.5,375 L1927.9844,375 L1928.5,375.625 L1928.5,376 L1928.5,376.375 L1927.9844,377 L1927.5,377 L1925.5,377 Z "/><text fill="#000000" font-family="sans-serif" font-size="12" font-style="italic" lengthAdjust="spacingAndGlyphs" textLength="51" x="1938.5" y="384.9102">IChannel</text><line style="stroke: #383838; stroke-width: 1.5;" x1="1910.5" x2="1991.5" y1="396" y2="396"/><line style="stroke: #383838; stroke-width: 1.5;" x1="1910.5" x2="1991.5" y1="404" y2="404"/><!--MD5=[0cbcd58193005eb9555aee917cb9f338]
class IDatalink--><rect fill="#F8F8F8" filter="url(#fmrl81w82943b)" height="48" id="IDatalink" style="stroke: #383838; stroke-width: 1.5;" width="82" x="2138" y="213.5"/><ellipse cx="2153" cy="229.5" fill="#B1B1B1" rx="11" ry="11" style="stroke: #383838; stroke-width: 1.0;"/><path d="M2154,226.5 L2154,232.5 L2156,232.5 L2156.4844,232.5 L2157,233.125 L2157,233.5 L2157,233.875 L2156.4844,234.5 L2156,234.5 L2150,234.5 L2149.5156,234.5 L2149,233.875 L2149,233.5 L2149,233.125 L2149.5156,232.5 L2150,232.5 L2152,232.5 L2152,226.5 L2150,226.5 L2149.5156,226.5 L2149,225.875 L2149,225.5 L2149,225.125 L2149.5156,224.5 L2150,224.5 L2156,224.5 L2156.4844,224.5 L2157,225.125 L2157,225.5 L2157,225.875 L2156.4844,226.5 L2156,226.5 L2154,226.5 Z "/><text fill="#000000" font-family="sans-serif" font-size="12" font-style="italic" lengthAdjust="spacingAndGlyphs" textLength="50" x="2167" y="234.4102">IDatalink</text><line style="stroke: #383838; stroke-width: 1.5;" x1="2139" x2="2219" y1="245.5" y2="245.5"/><line style="stroke: #383838; stroke-width: 1.5;" x1="2139" x2="2219" y1="253.5" y2="253.5"/><!--MD5=[062b80591a37350f769c0b0e59f8b9db]
class Datalink--><rect fill="#F8F8F8" filter="url(#fmrl81w82943b)" height="48" id="Datalink" style="stroke: #383838; stroke-width: 1.5;" width="77" x="3097.5" y="213.5"/><ellipse cx="3112.5" cy="229.5" fill="#C2C2C2" rx="11" ry="11" style="stroke: #383838; stroke-width: 1.0;"/><path d="M3114.5,226 Q3114.7031,225.5 3114.9375,225.25 Q3115.1719,225 3115.4375,225 Q3115.9063,225 3116.2031,225.2813 Q3116.5,225.5625 3116.5,226.2188 L3116.5,227.7813 Q3116.5,228.4375 3116.2188,228.7188 Q3115.9375,229 3115.5,229 Q3115.1094,229 3114.8594,228.8281 Q3114.6094,228.6563 3114.5,228.2031 Q3114.4531,227.8906 3114.2813,227.7188 Q3113.9688,227.3906 3113.4063,227.2031 Q3112.8438,227 3112.2813,227 Q3111.5781,227 3110.9844,227.2813 Q3110.4063,227.5625 3109.9531,228.1875 Q3109.5,228.8125 3109.5,229.6719 L3109.5,230.5938 Q3109.5,231.625 3110.3438,232.3125 Q3111.1875,233 3112.6875,233 Q3113.5781,233 3114.2031,232.7969 Q3114.5625,232.6875 3114.9688,232.3281 Q3115.2344,232.125 3115.375,232.0625 Q3115.5156,232 3115.6875,232 Q3116.0156,232 3116.25,232.2656 Q3116.5,232.5156 3116.5,232.875 Q3116.5,233.2188 3116.1563,233.625 Q3115.6563,234.2188 3114.8594,234.5469 Q3113.8125,235 3112.5313,235 Q3111.0313,235 3109.8281,234.4063 Q3108.8594,233.9375 3108.1719,232.9219 Q3107.5,231.9063 3107.5,230.7031 L3107.5,229.6094 Q3107.5,228.3594 3108.0938,227.2656 Q3108.7031,226.1719 3109.75,225.5938 Q3110.8125,225 3112,225 Q3112.7188,225 3113.3438,225.25 Q3113.9688,225.5 3114.5,226 Z "/><text fill="#000000" font-family="sans-serif" font-size="12" lengthAdjust="spacingAndGlyphs" textLength="45" x="3126.5" y="234.4102">Datalink</text><line style="stroke: #383838; stroke-width: 1.5;" x1="3098.5" x2="3173.5" y1="245.5" y2="245.5"/><line style="stroke: #383838; stroke-width: 1.5;" x1="3098.5" x2="3173.5" y1="253.5" y2="253.5"/><!--MD5=[94451d052dc42d3f25e672c85e0c18af]
class DatalinkPayAtTable--><rect fill="#F8F8F8" filter="url(#fmrl81w82943b)" height="48" id="DatalinkPayAtTable" style="stroke: #383838; stroke-width: 1.5;" width="138" x="2924" y="213.5"/><ellipse cx="2939" cy="229.5" fill="#C2C2C2" rx="11" ry="11" style="stroke: #383838; stroke-width: 1.0;"/><path d="M2941,226 Q2941.2031,225.5 2941.4375,225.25 Q2941.6719,225 2941.9375,225 Q2942.4063,225 2942.7031,225.2813 Q2943,225.5625 2943,226.2188 L2943,227.7813 Q2943,228.4375 2942.7188,228.7188 Q2942.4375,229 2942,229 Q2941.6094,229 2941.3594,228.8281 Q2941.1094,228.6563 2941,228.2031 Q2940.9531,227.8906 2940.7813,227.7188 Q2940.4688,227.3906 2939.9063,227.2031 Q2939.3438,227 2938.7813,227 Q2938.0781,227 2937.4844,227.2813 Q2936.9063,227.5625 2936.4531,228.1875 Q2936,228.8125 2936,229.6719 L2936,230.5938 Q2936,231.625 2936.8438,232.3125 Q2937.6875,233 2939.1875,233 Q2940.0781,233 2940.7031,232.7969 Q2941.0625,232.6875 2941.4688,232.3281 Q2941.7344,232.125 2941.875,232.0625 Q2942.0156,232 2942.1875,232 Q2942.5156,232 2942.75,232.2656 Q2943,232.5156 2943,232.875 Q2943,233.2188 2942.6563,233.625 Q2942.1563,234.2188 2941.3594,234.5469 Q2940.3125,235 2939.0313,235 Q2937.5313,235 2936.3281,234.4063 Q2935.3594,233.9375 2934.6719,232.9219 Q2934,231.9063 2934,230.7031 L2934,229.6094 Q2934,228.3594 2934.5938,227.2656 Q2935.2031,226.1719 2936.25,225.5938 Q2937.3125,225 2938.5,225 Q2939.2188,225 2939.8438,225.25 Q2940.4688,225.5 2941,226 Z "/><text fill="#000000" font-family="sans-serif" font-size="12" lengthAdjust="spacingAndGlyphs" textLength="106" x="2953" y="234.4102">DatalinkPayAtTable</text><line style="stroke: #383838; stroke-width: 1.5;" x1="2925" x2="3061" y1="245.5" y2="245.5"/><line style="stroke: #383838; stroke-width: 1.5;" x1="2925" x2="3061" y1="253.5" y2="253.5"/><!--MD5=[1066f779cb004c7e2306f3554ec900cb]
class DatalinkStxEtxAckLrc--><rect fill="#F8F8F8" filter="url(#fmrl81w82943b)" height="48" id="DatalinkStxEtxAckLrc" style="stroke: #383838; stroke-width: 1.5;" width="145" x="2743.5" y="213.5"/><ellipse cx="2758.5" cy="229.5" fill="#C2C2C2" rx="11" ry="11" style="stroke: #383838; stroke-width: 1.0;"/><path d="M2760.5,226 Q2760.7031,225.5 2760.9375,225.25 Q2761.1719,225 2761.4375,225 Q2761.9063,225 2762.2031,225.2813 Q2762.5,225.5625 2762.5,226.2188 L2762.5,227.7813 Q2762.5,228.4375 2762.2188,228.7188 Q2761.9375,229 2761.5,229 Q2761.1094,229 2760.8594,228.8281 Q2760.6094,228.6563 2760.5,228.2031 Q2760.4531,227.8906 2760.2813,227.7188 Q2759.9688,227.3906 2759.4063,227.2031 Q2758.8438,227 2758.2813,227 Q2757.5781,227 2756.9844,227.2813 Q2756.4063,227.5625 2755.9531,228.1875 Q2755.5,228.8125 2755.5,229.6719 L2755.5,230.5938 Q2755.5,231.625 2756.3438,232.3125 Q2757.1875,233 2758.6875,233 Q2759.5781,233 2760.2031,232.7969 Q2760.5625,232.6875 2760.9688,232.3281 Q2761.2344,232.125 2761.375,232.0625 Q2761.5156,232 2761.6875,232 Q2762.0156,232 2762.25,232.2656 Q2762.5,232.5156 2762.5,232.875 Q2762.5,233.2188 2762.1563,233.625 Q2761.6563,234.2188 2760.8594,234.5469 Q2759.8125,235 2758.5313,235 Q2757.0313,235 2755.8281,234.4063 Q2754.8594,233.9375 2754.1719,232.9219 Q2753.5,231.9063 2753.5,230.7031 L2753.5,229.6094 Q2753.5,228.3594 2754.0938,227.2656 Q2754.7031,226.1719 2755.75,225.5938 Q2756.8125,225 2758,225 Q2758.7188,225 2759.3438,225.25 Q2759.9688,225.5 2760.5,226 Z "/><text fill="#000000" font-family="sans-serif" font-size="12" lengthAdjust="spacingAndGlyphs" textLength="113" x="2772.5" y="234.4102">DatalinkStxEtxAckLrc</text><line style="stroke: #383838; stroke-width: 1.5;" x1="2744.5" x2="2887.5" y1="245.5" y2="245.5"/><line style="stroke: #383838; stroke-width: 1.5;" x1="2744.5" x2="2887.5" y1="253.5" y2="253.5"/><!--MD5=[d44ff26e5b8e539f3dba2d896f66998c]
class DatalinkStxEtxCrcSendAck--><rect fill="#F8F8F8" filter="url(#fmrl81w82943b)" height="48" id="DatalinkStxEtxCrcSendAck" style="stroke: #383838; stroke-width: 1.5;" width="176" x="2532" y="213.5"/><ellipse cx="2547" cy="229.5" fill="#C2C2C2" rx="11" ry="11" style="stroke: #383838; stroke-width: 1.0;"/><path d="M2549,226 Q2549.2031,225.5 2549.4375,225.25 Q2549.6719,225 2549.9375,225 Q2550.4063,225 2550.7031,225.2813 Q2551,225.5625 2551,226.2188 L2551,227.7813 Q2551,228.4375 2550.7188,228.7188 Q2550.4375,229 2550,229 Q2549.6094,229 2549.3594,228.8281 Q2549.1094,228.6563 2549,228.2031 Q2548.9531,227.8906 2548.7813,227.7188 Q2548.4688,227.3906 2547.9063,227.2031 Q2547.3438,227 2546.7813,227 Q2546.0781,227 2545.4844,227.2813 Q2544.9063,227.5625 2544.4531,228.1875 Q2544,228.8125 2544,229.6719 L2544,230.5938 Q2544,231.625 2544.8438,232.3125 Q2545.6875,233 2547.1875,233 Q2548.0781,233 2548.7031,232.7969 Q2549.0625,232.6875 2549.4688,232.3281 Q2549.7344,232.125 2549.875,232.0625 Q2550.0156,232 2550.1875,232 Q2550.5156,232 2550.75,232.2656 Q2551,232.5156 2551,232.875 Q2551,233.2188 2550.6563,233.625 Q2550.1563,234.2188 2549.3594,234.5469 Q2548.3125,235 2547.0313,235 Q2545.5313,235 2544.3281,234.4063 Q2543.3594,233.9375 2542.6719,232.9219 Q2542,231.9063 2542,230.7031 L2542,229.6094 Q2542,228.3594 2542.5938,227.2656 Q2543.2031,226.1719 2544.25,225.5938 Q2545.3125,225 2546.5,225 Q2547.2188,225 2547.8438,225.25 Q2548.4688,225.5 2549,226 Z "/><text fill="#000000" font-family="sans-serif" font-size="12" lengthAdjust="spacingAndGlyphs" textLength="144" x="2561" y="234.4102">DatalinkStxEtxCrcSendAck</text><line style="stroke: #383838; stroke-width: 1.5;" x1="2533" x2="2707" y1="245.5" y2="245.5"/><line style="stroke: #383838; stroke-width: 1.5;" x1="2533" x2="2707" y1="253.5" y2="253.5"/><!--MD5=[493eb62f52581988e4c2c1496577ce10]
class DatalinkStxEtxCrcSendAckSeqCounter--><rect fill="#F8F8F8" filter="url(#fmrl81w82943b)" height="48" id="DatalinkStxEtxCrcSendAckSeqCounter" style="stroke: #383838; stroke-width: 1.5;" width="242" x="2255" y="213.5"/><ellipse cx="2270" cy="229.5" fill="#C2C2C2" rx="11" ry="11" style="stroke: #383838; stroke-width: 1.0;"/><path d="M2272,226 Q2272.2031,225.5 2272.4375,225.25 Q2272.6719,225 2272.9375,225 Q2273.4063,225 2273.7031,225.2813 Q2274,225.5625 2274,226.2188 L2274,227.7813 Q2274,228.4375 2273.7188,228.7188 Q2273.4375,229 2273,229 Q2272.6094,229 2272.3594,228.8281 Q2272.1094,228.6563 2272,228.2031 Q2271.9531,227.8906 2271.7813,227.7188 Q2271.4688,227.3906 2270.9063,227.2031 Q2270.3438,227 2269.7813,227 Q2269.0781,227 2268.4844,227.2813 Q2267.9063,227.5625 2267.4531,228.1875 Q2267,228.8125 2267,229.6719 L2267,230.5938 Q2267,231.625 2267.8438,232.3125 Q2268.6875,233 2270.1875,233 Q2271.0781,233 2271.7031,232.7969 Q2272.0625,232.6875 2272.4688,232.3281 Q2272.7344,232.125 2272.875,232.0625 Q2273.0156,232 2273.1875,232 Q2273.5156,232 2273.75,232.2656 Q2274,232.5156 2274,232.875 Q2274,233.2188 2273.6563,233.625 Q2273.1563,234.2188 2272.3594,234.5469 Q2271.3125,235 2270.0313,235 Q2268.5313,235 2267.3281,234.4063 Q2266.3594,233.9375 2265.6719,232.9219 Q2265,231.9063 2265,230.7031 L2265,229.6094 Q2265,228.3594 2265.5938,227.2656 Q2266.2031,226.1719 2267.25,225.5938 Q2268.3125,225 2269.5,225 Q2270.2188,225 2270.8438,225.25 Q2271.4688,225.5 2272,226 Z "/><text fill="#000000" font-family="sans-serif" font-size="12" lengthAdjust="spacingAndGlyphs" textLength="210" x="2284" y="234.4102">DatalinkStxEtxCrcSendAckSeqCounter</text><line style="stroke: #383838; stroke-width: 1.5;" x1="2256" x2="2496" y1="245.5" y2="245.5"/><line style="stroke: #383838; stroke-width: 1.5;" x1="2256" x2="2496" y1="253.5" y2="253.5"/><!--MD5=[11a769bb708138ec4b85eeca46a9b2e8]
class ChannelClientSocket--><rect fill="#F8F8F8" filter="url(#fmrl81w82943b)" height="61.8359" id="ChannelClientSocket" style="stroke: #383838; stroke-width: 1.5;" width="202" x="1131" y="473"/><ellipse cx="1170.3" cy="489" fill="#C2C2C2" rx="11" ry="11" style="stroke: #383838; stroke-width: 1.0;"/><path d="M1172.3,485.5 Q1172.5031,485 1172.7375,484.75 Q1172.9719,484.5 1173.2375,484.5 Q1173.7063,484.5 1174.0031,484.7813 Q1174.3,485.0625 1174.3,485.7188 L1174.3,487.2813 Q1174.3,487.9375 1174.0188,488.2188 Q1173.7375,488.5 1173.3,488.5 Q1172.9094,488.5 1172.6594,488.3281 Q1172.4094,488.1563 1172.3,487.7031 Q1172.2531,487.3906 1172.0813,487.2188 Q1171.7688,486.8906 1171.2063,486.7031 Q1170.6438,486.5 1170.0813,486.5 Q1169.3781,486.5 1168.7844,486.7813 Q1168.2063,487.0625 1167.7531,487.6875 Q1167.3,488.3125 1167.3,489.1719 L1167.3,490.0938 Q1167.3,491.125 1168.1438,491.8125 Q1168.9875,492.5 1170.4875,492.5 Q1171.3781,492.5 1172.0031,492.2969 Q1172.3625,492.1875 1172.7688,491.8281 Q1173.0344,491.625 1173.175,491.5625 Q1173.3156,491.5 1173.4875,491.5 Q1173.8156,491.5 1174.05,491.7656 Q1174.3,492.0156 1174.3,492.375 Q1174.3,492.7188 1173.9563,493.125 Q1173.4563,493.7188 1172.6594,494.0469 Q1171.6125,494.5 1170.3313,494.5 Q1168.8313,494.5 1167.6281,493.9063 Q1166.6594,493.4375 1165.9719,492.4219 Q1165.3,491.4063 1165.3,490.2031 L1165.3,489.1094 Q1165.3,487.8594 1165.8938,486.7656 Q1166.5031,485.6719 1167.55,485.0938 Q1168.6125,484.5 1169.8,484.5 Q1170.5188,484.5 1171.1438,484.75 Q1171.7688,485 1172.3,485.5 Z "/><text fill="#000000" font-family="sans-serif" font-size="12" lengthAdjust="spacingAndGlyphs" textLength="116" x="1189.7" y="493.9102">ChannelClientSocket</text><line style="stroke: #383838; stroke-width: 1.5;" x1="1132" x2="1332" y1="505" y2="505"/><line style="stroke: #383838; stroke-width: 1.5;" x1="1132" x2="1332" y1="513" y2="513"/><text fill="#000000" font-family="sans-serif" font-size="11" lengthAdjust="spacingAndGlyphs" textLength="190" x="1137" y="528.4189">ChannelClientSocket(ip: String, port: int)</text><!--MD5=[3f59b71a60ea897ccd6f06d2d88144a5]
class ChannelClientSocketSSL--><rect fill="#F8F8F8" filter="url(#fmrl81w82943b)" height="61.8359" id="ChannelClientSocketSSL" style="stroke: #383838; stroke-width: 1.5;" width="730" x="969" y="596"/><ellipse cx="1260.25" cy="612" fill="#C2C2C2" rx="11" ry="11" style="stroke: #383838; stroke-width: 1.0;"/><path d="M1262.25,608.5 Q1262.4531,608 1262.6875,607.75 Q1262.9219,607.5 1263.1875,607.5 Q1263.6563,607.5 1263.9531,607.7813 Q1264.25,608.0625 1264.25,608.7188 L1264.25,610.2813 Q1264.25,610.9375 1263.9688,611.2188 Q1263.6875,611.5 1263.25,611.5 Q1262.8594,611.5 1262.6094,611.3281 Q1262.3594,611.1563 1262.25,610.7031 Q1262.2031,610.3906 1262.0313,610.2188 Q1261.7188,609.8906 1261.1563,609.7031 Q1260.5938,609.5 1260.0313,609.5 Q1259.3281,609.5 1258.7344,609.7813 Q1258.1563,610.0625 1257.7031,610.6875 Q1257.25,611.3125 1257.25,612.1719 L1257.25,613.0938 Q1257.25,614.125 1258.0938,614.8125 Q1258.9375,615.5 1260.4375,615.5 Q1261.3281,615.5 1261.9531,615.2969 Q1262.3125,615.1875 1262.7188,614.8281 Q1262.9844,614.625 1263.125,614.5625 Q1263.2656,614.5 1263.4375,614.5 Q1263.7656,614.5 1264,614.7656 Q1264.25,615.0156 1264.25,615.375 Q1264.25,615.7188 1263.9063,616.125 Q1263.4063,616.7188 1262.6094,617.0469 Q1261.5625,617.5 1260.2813,617.5 Q1258.7813,617.5 1257.5781,616.9063 Q1256.6094,616.4375 1255.9219,615.4219 Q1255.25,614.4063 1255.25,613.2031 L1255.25,612.1094 Q1255.25,610.8594 1255.8438,609.7656 Q1256.4531,608.6719 1257.5,608.0938 Q1258.5625,607.5 1259.75,607.5 Q1260.4688,607.5 1261.0938,607.75 Q1261.7188,608 1262.25,608.5 Z "/><text fill="#000000" font-family="sans-serif" font-size="12" lengthAdjust="spacingAndGlyphs" textLength="139" x="1280.75" y="616.9102">ChannelClientSocketSSL</text><line style="stroke: #383838; stroke-width: 1.5;" x1="970" x2="1698" y1="628" y2="628"/><line style="stroke: #383838; stroke-width: 1.5;" x1="970" x2="1698" y1="636" y2="636"/><text fill="#000000" font-family="sans-serif" font-size="11" lengthAdjust="spacingAndGlyphs" textLength="718" x="975" y="651.4189">ChannelClientSocketSSL(ip: String, port: int, keyStoreFile: String, keyStorePassword:string, keyPassword: String, ciphers: String[], protocols: String[])</text><!--MD5=[c308caa781a33ebc506680e42426d3e7]
class ChannelClientHTTP--><rect fill="#F8F8F8" filter="url(#fmrl81w82943b)" height="61.8359" id="ChannelClientHTTP" style="stroke: #383838; stroke-width: 1.5;" width="207" x="1491.5" y="473"/><ellipse cx="1535.75" cy="489" fill="#C2C2C2" rx="11" ry="11" style="stroke: #383838; stroke-width: 1.0;"/><path d="M1537.75,485.5 Q1537.9531,485 1538.1875,484.75 Q1538.4219,484.5 1538.6875,484.5 Q1539.1563,484.5 1539.4531,484.7813 Q1539.75,485.0625 1539.75,485.7188 L1539.75,487.2813 Q1539.75,487.9375 1539.4688,488.2188 Q1539.1875,488.5 1538.75,488.5 Q1538.3594,488.5 1538.1094,488.3281 Q1537.8594,488.1563 1537.75,487.7031 Q1537.7031,487.3906 1537.5313,487.2188 Q1537.2188,486.8906 1536.6563,486.7031 Q1536.0938,486.5 1535.5313,486.5 Q1534.8281,486.5 1534.2344,486.7813 Q1533.6563,487.0625 1533.2031,487.6875 Q1532.75,488.3125 1532.75,489.1719 L1532.75,490.0938 Q1532.75,491.125 1533.5938,491.8125 Q1534.4375,492.5 1535.9375,492.5 Q1536.8281,492.5 1537.4531,492.2969 Q1537.8125,492.1875 1538.2188,491.8281 Q1538.4844,491.625 1538.625,491.5625 Q1538.7656,491.5 1538.9375,491.5 Q1539.2656,491.5 1539.5,491.7656 Q1539.75,492.0156 1539.75,492.375 Q1539.75,492.7188 1539.4063,493.125 Q1538.9063,493.7188 1538.1094,494.0469 Q1537.0625,494.5 1535.7813,494.5 Q1534.2813,494.5 1533.0781,493.9063 Q1532.1094,493.4375 1531.4219,492.4219 Q1530.75,491.4063 1530.75,490.2031 L1530.75,489.1094 Q1530.75,487.8594 1531.3438,486.7656 Q1531.9531,485.6719 1533,485.0938 Q1534.0625,484.5 1535.25,484.5 Q1535.9688,484.5 1536.5938,484.75 Q1537.2188,485 1537.75,485.5 Z "/><text fill="#000000" font-family="sans-serif" font-size="12" lengthAdjust="spacingAndGlyphs" textLength="110" x="1556.25" y="493.9102">ChannelClientHTTP</text><line style="stroke: #383838; stroke-width: 1.5;" x1="1492.5" x2="1697.5" y1="505" y2="505"/><line style="stroke: #383838; stroke-width: 1.5;" x1="1492.5" x2="1697.5" y1="513" y2="513"/><text fill="#000000" font-family="sans-serif" font-size="11" lengthAdjust="spacingAndGlyphs" textLength="195" x="1497.5" y="528.4189">ChannelClientHTTP(host: String, port: int)</text><!--MD5=[bb352df41ede98e69259ac49988ed67c]
class ChannelClientHTTPS--><rect fill="#F8F8F8" filter="url(#fmrl81w82943b)" height="61.8359" id="ChannelClientHTTPS" style="stroke: #383838; stroke-width: 1.5;" width="722" x="1391" y="719"/><ellipse cx="1688.75" cy="735" fill="#C2C2C2" rx="11" ry="11" style="stroke: #383838; stroke-width: 1.0;"/><path d="M1690.75,731.5 Q1690.9531,731 1691.1875,730.75 Q1691.4219,730.5 1691.6875,730.5 Q1692.1563,730.5 1692.4531,730.7813 Q1692.75,731.0625 1692.75,731.7188 L1692.75,733.2813 Q1692.75,733.9375 1692.4688,734.2188 Q1692.1875,734.5 1691.75,734.5 Q1691.3594,734.5 1691.1094,734.3281 Q1690.8594,734.1563 1690.75,733.7031 Q1690.7031,733.3906 1690.5313,733.2188 Q1690.2188,732.8906 1689.6563,732.7031 Q1689.0938,732.5 1688.5313,732.5 Q1687.8281,732.5 1687.2344,732.7813 Q1686.6563,733.0625 1686.2031,733.6875 Q1685.75,734.3125 1685.75,735.1719 L1685.75,736.0938 Q1685.75,737.125 1686.5938,737.8125 Q1687.4375,738.5 1688.9375,738.5 Q1689.8281,738.5 1690.4531,738.2969 Q1690.8125,738.1875 1691.2188,737.8281 Q1691.4844,737.625 1691.625,737.5625 Q1691.7656,737.5 1691.9375,737.5 Q1692.2656,737.5 1692.5,737.7656 Q1692.75,738.0156 1692.75,738.375 Q1692.75,738.7188 1692.4063,739.125 Q1691.9063,739.7188 1691.1094,740.0469 Q1690.0625,740.5 1688.7813,740.5 Q1687.2813,740.5 1686.0781,739.9063 Q1685.1094,739.4375 1684.4219,738.4219 Q1683.75,737.4063 1683.75,736.2031 L1683.75,735.1094 Q1683.75,733.8594 1684.3438,732.7656 Q1684.9531,731.6719 1686,731.0938 Q1687.0625,730.5 1688.25,730.5 Q1688.9688,730.5 1689.5938,730.75 Q1690.2188,731 1690.75,731.5 Z "/><text fill="#000000" font-family="sans-serif" font-size="12" lengthAdjust="spacingAndGlyphs" textLength="118" x="1709.25" y="739.9102">ChannelClientHTTPS</text><line style="stroke: #383838; stroke-width: 1.5;" x1="1392" x2="2112" y1="751" y2="751"/><line style="stroke: #383838; stroke-width: 1.5;" x1="1392" x2="2112" y1="759" y2="759"/><text fill="#000000" font-family="sans-serif" font-size="11" lengthAdjust="spacingAndGlyphs" textLength="710" x="1397" y="774.4189">ChannelClientHTTPS(host: String, port: int, keyStoreFile: String, keyStorePassword:string, keyPassword: String, ciphers: String[], protocols: String[])</text><!--MD5=[19e87e402b8686ac5eae5f23509d75c8]
class ChannelServerSocket--><rect fill="#F8F8F8" filter="url(#fmrl81w82943b)" height="61.8359" id="ChannelServerSocket" style="stroke: #383838; stroke-width: 1.5;" width="161" x="1870.5" y="473"/><ellipse cx="1890" cy="489" fill="#C2C2C2" rx="11" ry="11" style="stroke: #383838; stroke-width: 1.0;"/><path d="M1892,485.5 Q1892.2031,485 1892.4375,484.75 Q1892.6719,484.5 1892.9375,484.5 Q1893.4063,484.5 1893.7031,484.7813 Q1894,485.0625 1894,485.7188 L1894,487.2813 Q1894,487.9375 1893.7188,488.2188 Q1893.4375,488.5 1893,488.5 Q1892.6094,488.5 1892.3594,488.3281 Q1892.1094,488.1563 1892,487.7031 Q1891.9531,487.3906 1891.7813,487.2188 Q1891.4688,486.8906 1890.9063,486.7031 Q1890.3438,486.5 1889.7813,486.5 Q1889.0781,486.5 1888.4844,486.7813 Q1887.9063,487.0625 1887.4531,487.6875 Q1887,488.3125 1887,489.1719 L1887,490.0938 Q1887,491.125 1887.8438,491.8125 Q1888.6875,492.5 1890.1875,492.5 Q1891.0781,492.5 1891.7031,492.2969 Q1892.0625,492.1875 1892.4688,491.8281 Q1892.7344,491.625 1892.875,491.5625 Q1893.0156,491.5 1893.1875,491.5 Q1893.5156,491.5 1893.75,491.7656 Q1894,492.0156 1894,492.375 Q1894,492.7188 1893.6563,493.125 Q1893.1563,493.7188 1892.3594,494.0469 Q1891.3125,494.5 1890.0313,494.5 Q1888.5313,494.5 1887.3281,493.9063 Q1886.3594,493.4375 1885.6719,492.4219 Q1885,491.4063 1885,490.2031 L1885,489.1094 Q1885,487.8594 1885.5938,486.7656 Q1886.2031,485.6719 1887.25,485.0938 Q1888.3125,484.5 1889.5,484.5 Q1890.2188,484.5 1890.8438,484.75 Q1891.4688,485 1892,485.5 Z "/><text fill="#000000" font-family="sans-serif" font-size="12" lengthAdjust="spacingAndGlyphs" textLength="119" x="1905" y="493.9102">ChannelServerSocket</text><line style="stroke: #383838; stroke-width: 1.5;" x1="1871.5" x2="2030.5" y1="505" y2="505"/><line style="stroke: #383838; stroke-width: 1.5;" x1="1871.5" x2="2030.5" y1="513" y2="513"/><text fill="#000000" font-family="sans-serif" font-size="11" lengthAdjust="spacingAndGlyphs" textLength="149" x="1876.5" y="528.4189">ChannelServerSocket(port: int)</text><!--MD5=[8b44300d6786a2950112d1635bc6ceb9]
class ChannelServerSocketSSL--><rect fill="#F8F8F8" filter="url(#fmrl81w82943b)" height="61.8359" id="ChannelServerSocketSSL" style="stroke: #383838; stroke-width: 1.5;" width="689" x="1805.5" y="596"/><ellipse cx="2074.75" cy="612" fill="#C2C2C2" rx="11" ry="11" style="stroke: #383838; stroke-width: 1.0;"/><path d="M2076.75,608.5 Q2076.9531,608 2077.1875,607.75 Q2077.4219,607.5 2077.6875,607.5 Q2078.1563,607.5 2078.4531,607.7813 Q2078.75,608.0625 2078.75,608.7188 L2078.75,610.2813 Q2078.75,610.9375 2078.4688,611.2188 Q2078.1875,611.5 2077.75,611.5 Q2077.3594,611.5 2077.1094,611.3281 Q2076.8594,611.1563 2076.75,610.7031 Q2076.7031,610.3906 2076.5313,610.2188 Q2076.2188,609.8906 2075.6563,609.7031 Q2075.0938,609.5 2074.5313,609.5 Q2073.8281,609.5 2073.2344,609.7813 Q2072.6563,610.0625 2072.2031,610.6875 Q2071.75,611.3125 2071.75,612.1719 L2071.75,613.0938 Q2071.75,614.125 2072.5938,614.8125 Q2073.4375,615.5 2074.9375,615.5 Q2075.8281,615.5 2076.4531,615.2969 Q2076.8125,615.1875 2077.2188,614.8281 Q2077.4844,614.625 2077.625,614.5625 Q2077.7656,614.5 2077.9375,614.5 Q2078.2656,614.5 2078.5,614.7656 Q2078.75,615.0156 2078.75,615.375 Q2078.75,615.7188 2078.4063,616.125 Q2077.9063,616.7188 2077.1094,617.0469 Q2076.0625,617.5 2074.7813,617.5 Q2073.2813,617.5 2072.0781,616.9063 Q2071.1094,616.4375 2070.4219,615.4219 Q2069.75,614.4063 2069.75,613.2031 L2069.75,612.1094 Q2069.75,610.8594 2070.3438,609.7656 Q2070.9531,608.6719 2072,608.0938 Q2073.0625,607.5 2074.25,607.5 Q2074.9688,607.5 2075.5938,607.75 Q2076.2188,608 2076.75,608.5 Z "/><text fill="#000000" font-family="sans-serif" font-size="12" lengthAdjust="spacingAndGlyphs" textLength="142" x="2095.25" y="616.9102">ChannelServerSocketSSL</text><line style="stroke: #383838; stroke-width: 1.5;" x1="1806.5" x2="2493.5" y1="628" y2="628"/><line style="stroke: #383838; stroke-width: 1.5;" x1="1806.5" x2="2493.5" y1="636" y2="636"/><text fill="#000000" font-family="sans-serif" font-size="11" lengthAdjust="spacingAndGlyphs" textLength="677" x="1811.5" y="651.4189">ChannelServerSocketSSL(port: int, keyStoreFile: String, keyStorePassword:string, keyPassword: String, ciphers: String[], protocols: String[])</text><!--MD5=[c8a2d7aa141dcaf3a3e411f0d74a2087]
class ChannelServerHTTP--><rect fill="#F8F8F8" filter="url(#fmrl81w82943b)" height="61.8359" id="ChannelServerHTTP" style="stroke: #383838; stroke-width: 1.5;" width="153" x="2171.5" y="473"/><ellipse cx="2190.1" cy="489" fill="#C2C2C2" rx="11" ry="11" style="stroke: #383838; stroke-width: 1.0;"/><path d="M2192.1,485.5 Q2192.3031,485 2192.5375,484.75 Q2192.7719,484.5 2193.0375,484.5 Q2193.5063,484.5 2193.8031,484.7813 Q2194.1,485.0625 2194.1,485.7188 L2194.1,487.2813 Q2194.1,487.9375 2193.8188,488.2188 Q2193.5375,488.5 2193.1,488.5 Q2192.7094,488.5 2192.4594,488.3281 Q2192.2094,488.1563 2192.1,487.7031 Q2192.0531,487.3906 2191.8813,487.2188 Q2191.5688,486.8906 2191.0063,486.7031 Q2190.4438,486.5 2189.8813,486.5 Q2189.1781,486.5 2188.5844,486.7813 Q2188.0063,487.0625 2187.5531,487.6875 Q2187.1,488.3125 2187.1,489.1719 L2187.1,490.0938 Q2187.1,491.125 2187.9438,491.8125 Q2188.7875,492.5 2190.2875,492.5 Q2191.1781,492.5 2191.8031,492.2969 Q2192.1625,492.1875 2192.5688,491.8281 Q2192.8344,491.625 2192.975,491.5625 Q2193.1156,491.5 2193.2875,491.5 Q2193.6156,491.5 2193.85,491.7656 Q2194.1,492.0156 2194.1,492.375 Q2194.1,492.7188 2193.7563,493.125 Q2193.2563,493.7188 2192.4594,494.0469 Q2191.4125,494.5 2190.1313,494.5 Q2188.6313,494.5 2187.4281,493.9063 Q2186.4594,493.4375 2185.7719,492.4219 Q2185.1,491.4063 2185.1,490.2031 L2185.1,489.1094 Q2185.1,487.8594 2185.6938,486.7656 Q2186.3031,485.6719 2187.35,485.0938 Q2188.4125,484.5 2189.6,484.5 Q2190.3188,484.5 2190.9438,484.75 Q2191.5688,485 2192.1,485.5 Z "/><text fill="#000000" font-family="sans-serif" font-size="12" lengthAdjust="spacingAndGlyphs" textLength="113" x="2204.9" y="493.9102">ChannelServerHTTP</text><line style="stroke: #383838; stroke-width: 1.5;" x1="2172.5" x2="2323.5" y1="505" y2="505"/><line style="stroke: #383838; stroke-width: 1.5;" x1="2172.5" x2="2323.5" y1="513" y2="513"/><text fill="#000000" font-family="sans-serif" font-size="11" lengthAdjust="spacingAndGlyphs" textLength="141" x="2177.5" y="528.4189">ChannelServerHTTP(port: int)</text><!--MD5=[e1cbc60e8bd05e5f411f8a49398a1099]
class ChannelServerHTTPS--><rect fill="#F8F8F8" filter="url(#fmrl81w82943b)" height="61.8359" id="ChannelServerHTTPS" style="stroke: #383838; stroke-width: 1.5;" width="668" x="2214" y="719"/><ellipse cx="2483.25" cy="735" fill="#C2C2C2" rx="11" ry="11" style="stroke: #383838; stroke-width: 1.0;"/><path d="M2485.25,731.5 Q2485.4531,731 2485.6875,730.75 Q2485.9219,730.5 2486.1875,730.5 Q2486.6563,730.5 2486.9531,730.7813 Q2487.25,731.0625 2487.25,731.7188 L2487.25,733.2813 Q2487.25,733.9375 2486.9688,734.2188 Q2486.6875,734.5 2486.25,734.5 Q2485.8594,734.5 2485.6094,734.3281 Q2485.3594,734.1563 2485.25,733.7031 Q2485.2031,733.3906 2485.0313,733.2188 Q2484.7188,732.8906 2484.1563,732.7031 Q2483.5938,732.5 2483.0313,732.5 Q2482.3281,732.5 2481.7344,732.7813 Q2481.1563,733.0625 2480.7031,733.6875 Q2480.25,734.3125 2480.25,735.1719 L2480.25,736.0938 Q2480.25,737.125 2481.0938,737.8125 Q2481.9375,738.5 2483.4375,738.5 Q2484.3281,738.5 2484.9531,738.2969 Q2485.3125,738.1875 2485.7188,737.8281 Q2485.9844,737.625 2486.125,737.5625 Q2486.2656,737.5 2486.4375,737.5 Q2486.7656,737.5 2487,737.7656 Q2487.25,738.0156 2487.25,738.375 Q2487.25,738.7188 2486.9063,739.125 Q2486.4063,739.7188 2485.6094,740.0469 Q2484.5625,740.5 2483.2813,740.5 Q2481.7813,740.5 2480.5781,739.9063 Q2479.6094,739.4375 2478.9219,738.4219 Q2478.25,737.4063 2478.25,736.2031 L2478.25,735.1094 Q2478.25,733.8594 2478.8438,732.7656 Q2479.4531,731.6719 2480.5,731.0938 Q2481.5625,730.5 2482.75,730.5 Q2483.4688,730.5 2484.0938,730.75 Q2484.7188,731 2485.25,731.5 Z "/><text fill="#000000" font-family="sans-serif" font-size="12" lengthAdjust="spacingAndGlyphs" textLength="121" x="2503.75" y="739.9102">ChannelServerHTTPS</text><line style="stroke: #383838; stroke-width: 1.5;" x1="2215" x2="2881" y1="751" y2="751"/><line style="stroke: #383838; stroke-width: 1.5;" x1="2215" x2="2881" y1="759" y2="759"/><text fill="#000000" font-family="sans-serif" font-size="11" lengthAdjust="spacingAndGlyphs" textLength="656" x="2220" y="774.4189">ChannelServerHTTPS(port: int, keyStoreFile: String, keyStorePassword:string, keyPassword: String, ciphers: String[], protocols: String[])</text><!--MD5=[ab5f6942c4d23d3792f05215787c649c]
class ChannelComPort--><rect fill="#F8F8F8" filter="url(#fmrl81w82943b)" height="61.8359" id="ChannelComPort" style="stroke: #383838; stroke-width: 1.5;" width="457" x="2601.5" y="473"/><ellipse cx="2777.75" cy="489" fill="#C2C2C2" rx="11" ry="11" style="stroke: #383838; stroke-width: 1.0;"/><path d="M2779.75,485.5 Q2779.9531,485 2780.1875,484.75 Q2780.4219,484.5 2780.6875,484.5 Q2781.1563,484.5 2781.4531,484.7813 Q2781.75,485.0625 2781.75,485.7188 L2781.75,487.2813 Q2781.75,487.9375 2781.4688,488.2188 Q2781.1875,488.5 2780.75,488.5 Q2780.3594,488.5 2780.1094,488.3281 Q2779.8594,488.1563 2779.75,487.7031 Q2779.7031,487.3906 2779.5313,487.2188 Q2779.2188,486.8906 2778.6563,486.7031 Q2778.0938,486.5 2777.5313,486.5 Q2776.8281,486.5 2776.2344,486.7813 Q2775.6563,487.0625 2775.2031,487.6875 Q2774.75,488.3125 2774.75,489.1719 L2774.75,490.0938 Q2774.75,491.125 2775.5938,491.8125 Q2776.4375,492.5 2777.9375,492.5 Q2778.8281,492.5 2779.4531,492.2969 Q2779.8125,492.1875 2780.2188,491.8281 Q2780.4844,491.625 2780.625,491.5625 Q2780.7656,491.5 2780.9375,491.5 Q2781.2656,491.5 2781.5,491.7656 Q2781.75,492.0156 2781.75,492.375 Q2781.75,492.7188 2781.4063,493.125 Q2780.9063,493.7188 2780.1094,494.0469 Q2779.0625,494.5 2777.7813,494.5 Q2776.2813,494.5 2775.0781,493.9063 Q2774.1094,493.4375 2773.4219,492.4219 Q2772.75,491.4063 2772.75,490.2031 L2772.75,489.1094 Q2772.75,487.8594 2773.3438,486.7656 Q2773.9531,485.6719 2775,485.0938 Q2776.0625,484.5 2777.25,484.5 Q2777.9688,484.5 2778.5938,484.75 Q2779.2188,485 2779.75,485.5 Z "/><text fill="#000000" font-family="sans-serif" font-size="12" lengthAdjust="spacingAndGlyphs" textLength="96" x="2798.25" y="493.9102">ChannelComPort</text><line style="stroke: #383838; stroke-width: 1.5;" x1="2602.5" x2="3057.5" y1="505" y2="505"/><line style="stroke: #383838; stroke-width: 1.5;" x1="2602.5" x2="3057.5" y1="513" y2="513"/><text fill="#000000" font-family="sans-serif" font-size="11" lengthAdjust="spacingAndGlyphs" textLength="445" x="2607.5" y="528.4189">ChannelComPort(comPort: String, baudRate: int, dataBits: int, parity, stopBits: int, handshake)</text><!--MD5=[2e0d9646314dabf809b44bac6ec781f6]
class IRequestFactory--><rect fill="#F8F8F8" filter="url(#fmrl81w82943b)" height="61.8359" id="IRequestFactory" style="stroke: #383838; stroke-width: 1.5;" width="394" x="836" y="28.5"/><ellipse cx="983.75" cy="44.5" fill="#B1B1B1" rx="11" ry="11" style="stroke: #383838; stroke-width: 1.0;"/><path d="M984.75,41.5 L984.75,47.5 L986.75,47.5 L987.2344,47.5 L987.75,48.125 L987.75,48.5 L987.75,48.875 L987.2344,49.5 L986.75,49.5 L980.75,49.5 L980.2656,49.5 L979.75,48.875 L979.75,48.5 L979.75,48.125 L980.2656,47.5 L980.75,47.5 L982.75,47.5 L982.75,41.5 L980.75,41.5 L980.2656,41.5 L979.75,40.875 L979.75,40.5 L979.75,40.125 L980.2656,39.5 L980.75,39.5 L986.75,39.5 L987.2344,39.5 L987.75,40.125 L987.75,40.5 L987.75,40.875 L987.2344,41.5 L986.75,41.5 L984.75,41.5 Z "/><text fill="#000000" font-family="sans-serif" font-size="12" font-style="italic" lengthAdjust="spacingAndGlyphs" textLength="90" x="1004.25" y="49.4102">IRequestFactory</text><line style="stroke: #383838; stroke-width: 1.5;" x1="837" x2="1229" y1="60.5" y2="60.5"/><line style="stroke: #383838; stroke-width: 1.5;" x1="837" x2="1229" y1="68.5" y2="68.5"/><text fill="#000000" font-family="sans-serif" font-size="11" lengthAdjust="spacingAndGlyphs" textLength="382" x="842" y="83.9189">createRequest(type: RequestType, options: HashMap&lt;String, String&gt;): Request</text><!--MD5=[e2d8700bfe79070c43730c7948d6f236]
class RequestType--><rect fill="#F8F8F8" filter="url(#fmrl81w82943b)" height="103.3438" id="RequestType" style="stroke: #383838; stroke-width: 1.5;" width="301" x="361.5" y="8"/><ellipse cx="471.25" cy="24" fill="#B1B1B1" rx="11" ry="11" style="stroke: #383838; stroke-width: 1.0;"/><path d="M472.25,21 L472.25,27 L474.25,27 L474.7344,27 L475.25,27.625 L475.25,28 L475.25,28.375 L474.7344,29 L474.25,29 L468.25,29 L467.7656,29 L467.25,28.375 L467.25,28 L467.25,27.625 L467.7656,27 L468.25,27 L470.25,27 L470.25,21 L468.25,21 L467.7656,21 L467.25,20.375 L467.25,20 L467.25,19.625 L467.7656,19 L468.25,19 L474.25,19 L474.7344,19 L475.25,19.625 L475.25,20 L475.25,20.375 L474.7344,21 L474.25,21 L472.25,21 Z "/><text fill="#000000" font-family="sans-serif" font-size="12" font-style="italic" lengthAdjust="spacingAndGlyphs" textLength="73" x="491.75" y="28.9102">RequestType</text><line style="stroke: #383838; stroke-width: 1.5;" x1="362.5" x2="661.5" y1="40" y2="40"/><line style="stroke: #383838; stroke-width: 1.5;" x1="362.5" x2="661.5" y1="48" y2="48"/><text fill="#000000" font-family="sans-serif" font-size="11" lengthAdjust="spacingAndGlyphs" textLength="81" x="367.5" y="63.4189">getType(): String</text><text fill="#000000" font-family="sans-serif" font-size="11" lengthAdjust="spacingAndGlyphs" textLength="100" x="367.5" y="77.2549">getExtraTag(): String</text><text fill="#000000" font-family="sans-serif" font-size="11" lengthAdjust="spacingAndGlyphs" textLength="106" x="367.5" y="91.0908">getExtraType(): String</text><text fill="#000000" font-family="sans-serif" font-size="11" lengthAdjust="spacingAndGlyphs" textLength="289" x="367.5" y="104.9268">getValidator(): Function&lt;HashMap&lt;String, String&gt;, Boolean&gt;</text><!--MD5=[526954816599f3d695370377adbdbeff]
class AuthType--><rect fill="#F8F8F8" filter="url(#fmrl81w82943b)" height="103.3438" id="AuthType" style="stroke: #383838; stroke-width: 1.5;" width="126" x="687" y="186"/><ellipse cx="721.8" cy="202" fill="#ABABAB" rx="11" ry="11" style="stroke: #383838; stroke-width: 1.0;"/><path d="M720.3,203 L720.3,205 L724.3,205 L724.3,204 L724.3,203.5156 L724.925,203 L725.3,203 L725.675,203 L726.3,203.5156 L726.3,204 L726.3,207 L718.3,207 L717.8156,207 L717.3,206.375 L717.3,206 L717.3,205.625 L717.8156,205 L718.3,205 L718.3,205 L718.3,199 L718.3,199 L717.8156,199 L717.3,198.375 L717.3,198 L717.3,197.625 L717.8156,197 L718.3,197 L726.3,197 L726.3,200 L726.3,200.4844 L725.675,201 L725.3,201 L724.925,201 L724.3,200.4844 L724.3,200 L724.3,199 L720.3,199 L720.3,201 L721.3,201 L721.3,200.5156 L721.3,200.5156 L721.925,200 L722.3,200 L722.675,200 L723.3,200.5156 L723.3,201 L723.3,203 L723.3,203.4844 L722.675,204 L722.675,204 L722.3,204 L721.925,204 L721.3,203.4844 L721.3,203.4844 L721.3,203 L720.3,203 Z "/><text fill="#000000" font-family="sans-serif" font-size="12" lengthAdjust="spacingAndGlyphs" textLength="50" x="740.2" y="206.9102">AuthType</text><line style="stroke: #383838; stroke-width: 1.5;" x1="688" x2="812" y1="218" y2="218"/><text fill="#000000" font-family="sans-serif" font-size="11" lengthAdjust="spacingAndGlyphs" textLength="53" x="693" y="233.4189">PRE_AUTH</text><text fill="#000000" font-family="sans-serif" font-size="11" lengthAdjust="spacingAndGlyphs" textLength="39" x="693" y="247.2549">TOP_UP</text><text fill="#000000" font-family="sans-serif" font-size="11" lengthAdjust="spacingAndGlyphs" textLength="114" x="693" y="261.0908">PRE_AUTH_REVERSAL</text><text fill="#000000" font-family="sans-serif" font-size="11" lengthAdjust="spacingAndGlyphs" textLength="100" x="693" y="274.9268">TOP_UP_REVERSAL</text><line style="stroke: #383838; stroke-width: 1.5;" x1="688" x2="812" y1="281.3438" y2="281.3438"/><!--MD5=[28ab5c138db1c94061251be16e4b3829]
class SettlementType--><rect fill="#F8F8F8" filter="url(#fmrl81w82943b)" height="131.0156" id="SettlementType" style="stroke: #383838; stroke-width: 1.5;" width="137" x="848.5" y="172"/><ellipse cx="872.5" cy="188" fill="#ABABAB" rx="11" ry="11" style="stroke: #383838; stroke-width: 1.0;"/><path d="M871,189 L871,191 L875,191 L875,190 L875,189.5156 L875.625,189 L876,189 L876.375,189 L877,189.5156 L877,190 L877,193 L869,193 L868.5156,193 L868,192.375 L868,192 L868,191.625 L868.5156,191 L869,191 L869,191 L869,185 L869,185 L868.5156,185 L868,184.375 L868,184 L868,183.625 L868.5156,183 L869,183 L877,183 L877,186 L877,186.4844 L876.375,187 L876,187 L875.625,187 L875,186.4844 L875,186 L875,185 L871,185 L871,187 L872,187 L872,186.5156 L872,186.5156 L872.625,186 L873,186 L873.375,186 L874,186.5156 L874,187 L874,189 L874,189.4844 L873.375,190 L873.375,190 L873,190 L872.625,190 L872,189.4844 L872,189.4844 L872,189 L871,189 Z "/><text fill="#000000" font-family="sans-serif" font-size="12" lengthAdjust="spacingAndGlyphs" textLength="85" x="888.5" y="192.9102">SettlementType</text><line style="stroke: #383838; stroke-width: 1.5;" x1="849.5" x2="984.5" y1="204" y2="204"/><text fill="#000000" font-family="sans-serif" font-size="11" lengthAdjust="spacingAndGlyphs" textLength="27" x="854.5" y="219.4189">SALE</text><text fill="#000000" font-family="sans-serif" font-size="11" lengthAdjust="spacingAndGlyphs" textLength="40" x="854.5" y="233.2549">REFUND</text><text fill="#000000" font-family="sans-serif" font-size="11" lengthAdjust="spacingAndGlyphs" textLength="64" x="854.5" y="247.0908">COMPLETION</text><text fill="#000000" font-family="sans-serif" font-size="11" lengthAdjust="spacingAndGlyphs" textLength="88" x="854.5" y="260.9268">SALE_REVERSAL</text><text fill="#000000" font-family="sans-serif" font-size="11" lengthAdjust="spacingAndGlyphs" textLength="101" x="854.5" y="274.7627">REFUND_REVERSAL</text><text fill="#000000" font-family="sans-serif" font-size="11" lengthAdjust="spacingAndGlyphs" textLength="125" x="854.5" y="288.5986">COMPLETION_REVERSAL</text><line style="stroke: #383838; stroke-width: 1.5;" x1="849.5" x2="984.5" y1="295.0156" y2="295.0156"/><!--MD5=[d16c9d3e6bca5baa0e0741a83ab0ddc0]
class CardType--><rect fill="#F8F8F8" filter="url(#fmrl81w82943b)" height="89.5078" id="CardType" style="stroke: #383838; stroke-width: 1.5;" width="138" x="6" y="192.5"/><ellipse cx="44.85" cy="208.5" fill="#ABABAB" rx="11" ry="11" style="stroke: #383838; stroke-width: 1.0;"/><path d="M43.35,209.5 L43.35,211.5 L47.35,211.5 L47.35,210.5 L47.35,210.0156 L47.975,209.5 L48.35,209.5 L48.725,209.5 L49.35,210.0156 L49.35,210.5 L49.35,213.5 L41.35,213.5 L40.8656,213.5 L40.35,212.875 L40.35,212.5 L40.35,212.125 L40.8656,211.5 L41.35,211.5 L41.35,211.5 L41.35,205.5 L41.35,205.5 L40.8656,205.5 L40.35,204.875 L40.35,204.5 L40.35,204.125 L40.8656,203.5 L41.35,203.5 L49.35,203.5 L49.35,206.5 L49.35,206.9844 L48.725,207.5 L48.35,207.5 L47.975,207.5 L47.35,206.9844 L47.35,206.5 L47.35,205.5 L43.35,205.5 L43.35,207.5 L44.35,207.5 L44.35,207.0156 L44.35,207.0156 L44.975,206.5 L45.35,206.5 L45.725,206.5 L46.35,207.0156 L46.35,207.5 L46.35,209.5 L46.35,209.9844 L45.725,210.5 L45.725,210.5 L45.35,210.5 L44.975,210.5 L44.35,209.9844 L44.35,209.9844 L44.35,209.5 L43.35,209.5 Z "/><text fill="#000000" font-family="sans-serif" font-size="12" lengthAdjust="spacingAndGlyphs" textLength="53" x="64.15" y="213.4102">CardType</text><line style="stroke: #383838; stroke-width: 1.5;" x1="7" x2="143" y1="224.5" y2="224.5"/><text fill="#000000" font-family="sans-serif" font-size="11" lengthAdjust="spacingAndGlyphs" textLength="69" x="12" y="239.9189">CARD_CHECK</text><text fill="#000000" font-family="sans-serif" font-size="11" lengthAdjust="spacingAndGlyphs" textLength="126" x="12" y="253.7549">CARD_CHECK_VALIDATE</text><text fill="#000000" font-family="sans-serif" font-size="11" lengthAdjust="spacingAndGlyphs" textLength="118" x="12" y="267.5908">CARD_CHECK_REMOVE</text><line style="stroke: #383838; stroke-width: 1.5;" x1="7" x2="143" y1="274.0078" y2="274.0078"/><!--MD5=[77f04b9591d8b7ea4b2246cd26a54dd8]
class TerminalStatusType--><rect fill="#F8F8F8" filter="url(#fmrl81w82943b)" height="61.8359" id="TerminalStatusType" style="stroke: #383838; stroke-width: 1.5;" width="142" x="179" y="206.5"/><ellipse cx="194" cy="222.5" fill="#ABABAB" rx="11" ry="11" style="stroke: #383838; stroke-width: 1.0;"/><path d="M192.5,223.5 L192.5,225.5 L196.5,225.5 L196.5,224.5 L196.5,224.0156 L197.125,223.5 L197.5,223.5 L197.875,223.5 L198.5,224.0156 L198.5,224.5 L198.5,227.5 L190.5,227.5 L190.0156,227.5 L189.5,226.875 L189.5,226.5 L189.5,226.125 L190.0156,225.5 L190.5,225.5 L190.5,225.5 L190.5,219.5 L190.5,219.5 L190.0156,219.5 L189.5,218.875 L189.5,218.5 L189.5,218.125 L190.0156,217.5 L190.5,217.5 L198.5,217.5 L198.5,220.5 L198.5,220.9844 L197.875,221.5 L197.5,221.5 L197.125,221.5 L196.5,220.9844 L196.5,220.5 L196.5,219.5 L192.5,219.5 L192.5,221.5 L193.5,221.5 L193.5,221.0156 L193.5,221.0156 L194.125,220.5 L194.5,220.5 L194.875,220.5 L195.5,221.0156 L195.5,221.5 L195.5,223.5 L195.5,223.9844 L194.875,224.5 L194.875,224.5 L194.5,224.5 L194.125,224.5 L193.5,223.9844 L193.5,223.9844 L193.5,223.5 L192.5,223.5 Z "/><text fill="#000000" font-family="sans-serif" font-size="12" lengthAdjust="spacingAndGlyphs" textLength="110" x="208" y="227.4102">TerminalStatusType</text><line style="stroke: #383838; stroke-width: 1.5;" x1="180" x2="320" y1="238.5" y2="238.5"/><text fill="#000000" font-family="sans-serif" font-size="11" lengthAdjust="spacingAndGlyphs" textLength="23" x="185" y="253.9189">INFO</text><line style="stroke: #383838; stroke-width: 1.5;" x1="180" x2="320" y1="260.3359" y2="260.3359"/><!--MD5=[17adc9c1a3dd9ad5399658df59dbd6bf]
class TerminalControlType--><rect fill="#F8F8F8" filter="url(#fmrl81w82943b)" height="103.3438" id="TerminalControlType" style="stroke: #383838; stroke-width: 1.5;" width="147" x="356.5" y="186"/><ellipse cx="371.5" cy="202" fill="#ABABAB" rx="11" ry="11" style="stroke: #383838; stroke-width: 1.0;"/><path d="M370,203 L370,205 L374,205 L374,204 L374,203.5156 L374.625,203 L375,203 L375.375,203 L376,203.5156 L376,204 L376,207 L368,207 L367.5156,207 L367,206.375 L367,206 L367,205.625 L367.5156,205 L368,205 L368,205 L368,199 L368,199 L367.5156,199 L367,198.375 L367,198 L367,197.625 L367.5156,197 L368,197 L376,197 L376,200 L376,200.4844 L375.375,201 L375,201 L374.625,201 L374,200.4844 L374,200 L374,199 L370,199 L370,201 L371,201 L371,200.5156 L371,200.5156 L371.625,200 L372,200 L372.375,200 L373,200.5156 L373,201 L373,203 L373,203.4844 L372.375,204 L372.375,204 L372,204 L371.625,204 L371,203.4844 L371,203.4844 L371,203 L370,203 Z "/><text fill="#000000" font-family="sans-serif" font-size="12" lengthAdjust="spacingAndGlyphs" textLength="115" x="385.5" y="206.9102">TerminalControlType</text><line style="stroke: #383838; stroke-width: 1.5;" x1="357.5" x2="502.5" y1="218" y2="218"/><text fill="#000000" font-family="sans-serif" font-size="11" lengthAdjust="spacingAndGlyphs" textLength="107" x="362.5" y="233.4189">TERMINAL_ACTIVATE</text><text fill="#000000" font-family="sans-serif" font-size="11" lengthAdjust="spacingAndGlyphs" textLength="120" x="362.5" y="247.2549">TERMINAL_DEACTIVATE</text><text fill="#000000" font-family="sans-serif" font-size="11" lengthAdjust="spacingAndGlyphs" textLength="114" x="362.5" y="261.0908">TERMINAL_LANGUAGE</text><text fill="#000000" font-family="sans-serif" font-size="11" lengthAdjust="spacingAndGlyphs" textLength="87" x="362.5" y="274.9268">TERMINAL_SLEEP</text><line style="stroke: #383838; stroke-width: 1.5;" x1="357.5" x2="502.5" y1="281.3438" y2="281.3438"/><!--MD5=[7bc237b495072ab44d828153a621e59e]
class OtherType--><rect fill="#F8F8F8" filter="url(#fmrl81w82943b)" height="117.1797" id="OtherType" style="stroke: #383838; stroke-width: 1.5;" width="113" x="538.5" y="179"/><ellipse cx="564.75" cy="195" fill="#ABABAB" rx="11" ry="11" style="stroke: #383838; stroke-width: 1.0;"/><path d="M563.25,196 L563.25,198 L567.25,198 L567.25,197 L567.25,196.5156 L567.875,196 L568.25,196 L568.625,196 L569.25,196.5156 L569.25,197 L569.25,200 L561.25,200 L560.7656,200 L560.25,199.375 L560.25,199 L560.25,198.625 L560.7656,198 L561.25,198 L561.25,198 L561.25,192 L561.25,192 L560.7656,192 L560.25,191.375 L560.25,191 L560.25,190.625 L560.7656,190 L561.25,190 L569.25,190 L569.25,193 L569.25,193.4844 L568.625,194 L568.25,194 L567.875,194 L567.25,193.4844 L567.25,193 L567.25,192 L563.25,192 L563.25,194 L564.25,194 L564.25,193.5156 L564.25,193.5156 L564.875,193 L565.25,193 L565.625,193 L566.25,193.5156 L566.25,194 L566.25,196 L566.25,196.4844 L565.625,197 L565.625,197 L565.25,197 L564.875,197 L564.25,196.4844 L564.25,196.4844 L564.25,196 L563.25,196 Z "/><text fill="#000000" font-family="sans-serif" font-size="12" lengthAdjust="spacingAndGlyphs" textLength="56" x="581.25" y="199.9102">OtherType</text><line style="stroke: #383838; stroke-width: 1.5;" x1="539.5" x2="650.5" y1="211" y2="211"/><text fill="#000000" font-family="sans-serif" font-size="11" lengthAdjust="spacingAndGlyphs" textLength="41" x="544.5" y="226.4189">CANCEL</text><text fill="#000000" font-family="sans-serif" font-size="11" lengthAdjust="spacingAndGlyphs" textLength="81" x="544.5" y="240.2549">CHECK_STATUS</text><text fill="#000000" font-family="sans-serif" font-size="11" lengthAdjust="spacingAndGlyphs" textLength="61" x="544.5" y="254.0908">SHIFT_OPEN</text><text fill="#000000" font-family="sans-serif" font-size="11" lengthAdjust="spacingAndGlyphs" textLength="68" x="544.5" y="267.9268">SHIFT_CLOSE</text><text fill="#000000" font-family="sans-serif" font-size="11" lengthAdjust="spacingAndGlyphs" textLength="101" x="544.5" y="281.7627">SHIFT_CLOSE_OPEN</text><line style="stroke: #383838; stroke-width: 1.5;" x1="539.5" x2="650.5" y1="288.1797" y2="288.1797"/><!--MD5=[c780fb2aaa331039b142d93ed7d35a01]
reverse link Integra to CommunicationContext--><path d="M1845.91,108.059 C1871.48,139.312 1904.17,179.262 1926.25,206.245 " fill="none" id="Integra&lt;-CommunicationContext" style="stroke: #383838; stroke-width: 1.0;"/><polygon fill="#383838" points="1837.54,97.825,1838.2454,105.0015,1845.1412,107.1105,1844.4358,99.934,1837.54,97.825" style="stroke: #383838; stroke-width: 1.0;"/><!--MD5=[ef372120876fd647d3eec7bd781ac861]
reverse link Integra to IStatusUpdateHandler--><path d="M1768.09,108.059 C1742.52,139.312 1709.83,179.262 1687.75,206.245 " fill="none" id="Integra&lt;-IStatusUpdateHandler" style="stroke: #383838; stroke-width: 1.0;"/><polygon fill="#383838" points="1776.46,97.825,1769.5642,99.934,1768.8588,107.1105,1775.7546,105.0015,1776.46,97.825" style="stroke: #383838; stroke-width: 1.0;"/><!--MD5=[432fdad11fc76986007088e445fd2f57]
link Integra to IResponseHandler--><path d="M1958.7,59.5 C1978.72,59.5 1998.79,59.5 2017.53,59.5 " fill="none" id="Integra-&gt;IResponseHandler" style="stroke: #383838; stroke-width: 1.0; stroke-dasharray: 7.0,7.0;"/><polygon fill="#383838" points="2022.78,59.5,2013.78,55.5,2017.78,59.5,2013.78,63.5,2022.78,59.5" style="stroke: #383838; stroke-width: 1.0;"/><text fill="#000000" font-family="sans-serif" font-size="13" lengthAdjust="spacingAndGlyphs" textLength="28" x="1976.75" y="52.9951">uses</text><!--MD5=[22c86e60f8974a57931755b22a8060e3]
reverse link Request to Integra--><path d="M1595.83,59.5 C1615.46,59.5 1635.64,59.5 1655.36,59.5 " fill="none" id="Request&lt;-Integra" style="stroke: #383838; stroke-width: 1.0; stroke-dasharray: 7.0,7.0;"/><polygon fill="#383838" points="1590.58,59.5,1599.58,63.5,1595.58,59.5,1599.58,55.5,1590.58,59.5" style="stroke: #383838; stroke-width: 1.0;"/><text fill="#000000" font-family="sans-serif" font-size="13" lengthAdjust="spacingAndGlyphs" textLength="28" x="1609" y="52.9951">uses</text><!--MD5=[1af2e03a3460d06c8943fcb9bf43fa3d]
link IResponseHandler to Response--><path d="M2205.14,59.5 C2224.5,59.5 2244.93,59.5 2264.3,59.5 " fill="none" id="IResponseHandler-&gt;Response" style="stroke: #383838; stroke-width: 1.0; stroke-dasharray: 7.0,7.0;"/><polygon fill="#383838" points="2269.74,59.5,2260.74,55.5,2264.74,59.5,2260.74,63.5,2269.74,59.5" style="stroke: #383838; stroke-width: 1.0;"/><text fill="#000000" font-family="sans-serif" font-size="13" lengthAdjust="spacingAndGlyphs" textLength="28" x="2223.5" y="52.9951">uses</text><!--MD5=[24c4be50427ea03d219db906fd34ecb2]
reverse link StatusUpdate to IStatusUpdateHandler--><path d="M1503.4,237.5 C1522.58,237.5 1542.9,237.5 1562.38,237.5 " fill="none" id="StatusUpdate&lt;-IStatusUpdateHandler" style="stroke: #383838; stroke-width: 1.0; stroke-dasharray: 7.0,7.0;"/><polygon fill="#383838" points="1498.03,237.5,1507.03,241.5,1503.03,237.5,1507.03,233.5,1498.03,237.5" style="stroke: #383838; stroke-width: 1.0;"/><text fill="#000000" font-family="sans-serif" font-size="13" lengthAdjust="spacingAndGlyphs" textLength="28" x="1516.25" y="230.9951">uses</text><!--MD5=[b275e05aef11eefeae40b22e62979917]
reverse link CommunicationContext to IChannel--><path d="M1951,281.866 C1951,308.646 1951,341.949 1951,363.807 " fill="none" id="CommunicationContext&lt;-IChannel" style="stroke: #383838; stroke-width: 1.0;"/><polygon fill="#383838" points="1951,268.551,1947,274.551,1951,280.551,1955,274.551,1951,268.551" style="stroke: #383838; stroke-width: 1.0;"/><!--MD5=[af47e807819770cb6e1c9cd45c39026d]
reverse link CommunicationContext to IDatalink--><path d="M2116.54,237.5 C2123.66,237.5 2130.78,237.5 2137.9,237.5 " fill="none" id="CommunicationContext&lt;-IDatalink" style="stroke: #383838; stroke-width: 1.0;"/><polygon fill="#383838" points="2103.3,237.5,2109.3,241.5,2115.3,237.5,2109.3,233.5,2103.3,237.5" style="stroke: #383838; stroke-width: 1.0;"/><!--MD5=[68e4271120e3e07486a2243111f6da6e]
reverse link IDatalink to Datalink--><path d="M2200.33,195.964 C2213.26,175.53 2231.86,152.889 2255.5,141.5 C2336.28,102.58 2982.1,101.798 3062.5,141.5 C3092.61,156.37 3113.8,190.153 3125.45,213.398 " fill="none" id="IDatalink&lt;-Datalink" style="stroke: #383838; stroke-width: 1.0;"/><polygon fill="none" points="2206.33,199.572,2190.25,213.369,2194.21,192.554,2206.33,199.572" style="stroke: #383838; stroke-width: 1.0;"/><!--MD5=[19f86a544912a52495af54918f84a52f]
reverse link IDatalink to DatalinkPayAtTable--><path d="M2200.33,195.964 C2213.26,175.53 2231.86,152.889 2255.5,141.5 C2318.86,110.972 2822.96,115.967 2888.5,141.5 C2925.23,155.81 2956.87,189.732 2975.43,213.162 " fill="none" id="IDatalink&lt;-DatalinkPayAtTable" style="stroke: #383838; stroke-width: 1.0;"/><polygon fill="none" points="2206.33,199.572,2190.25,213.369,2194.21,192.554,2206.33,199.572" style="stroke: #383838; stroke-width: 1.0;"/><!--MD5=[5ca9078a667707dd5c3264d3476ac454]
reverse link IDatalink to DatalinkStxEtxAckLrc--><path d="M2200.33,195.964 C2213.26,175.53 2231.86,152.889 2255.5,141.5 C2346.19,97.806 2614.45,105.617 2708.5,141.5 C2745.91,155.771 2778.55,189.703 2797.77,213.145 " fill="none" id="IDatalink&lt;-DatalinkStxEtxAckLrc" style="stroke: #383838; stroke-width: 1.0;"/><polygon fill="none" points="2206.33,199.572,2190.25,213.369,2194.21,192.554,2206.33,199.572" style="stroke: #383838; stroke-width: 1.0;"/><!--MD5=[9ea8b79108c186c8b54d56c3235e3ef5]
reverse link IDatalink to DatalinkStxEtxCrcSendAck--><path d="M2200.33,195.964 C2213.26,175.53 2231.86,152.889 2255.5,141.5 C2303.95,118.158 2446.67,123.954 2497.5,141.5 C2538.37,155.605 2576,189.579 2598.48,213.076 " fill="none" id="IDatalink&lt;-DatalinkStxEtxCrcSendAck" style="stroke: #383838; stroke-width: 1.0;"/><polygon fill="none" points="2206.33,199.572,2190.25,213.369,2194.21,192.554,2206.33,199.572" style="stroke: #383838; stroke-width: 1.0;"/><!--MD5=[6a9078e81dd21bc29e4fdd299372c14c]
reverse link IDatalink to DatalinkStxEtxCrcSendAckSeqCounter--><path d="M2240.23,237.5 C2245.11,237.5 2249.99,237.5 2254.87,237.5 " fill="none" id="IDatalink&lt;-DatalinkStxEtxCrcSendAckSeqCounter" style="stroke: #383838; stroke-width: 1.0;"/><polygon fill="none" points="2240.17,244.5,2220.17,237.5,2240.17,230.5,2240.17,244.5" style="stroke: #383838; stroke-width: 1.0;"/><!--MD5=[54414c5217d86255e1e83a128c00bfed]
reverse link IChannel to ChannelClientSocket--><path d="M1889.31,391.763 C1758.77,398.062 1458.48,415.055 1360,442 C1334,449.114 1306.82,461.302 1284.23,472.923 " fill="none" id="IChannel&lt;-ChannelClientSocket" style="stroke: #383838; stroke-width: 1.0;"/><polygon fill="none" points="1889.16,384.763,1909.47,390.811,1889.82,398.747,1889.16,384.763" style="stroke: #383838; stroke-width: 1.0;"/><!--MD5=[c1579448bc792d46977b00d7655bfc34]
reverse link IChannel to ChannelClientSocketSSL--><path d="M1889.12,394.905 C1776.84,406.43 1544.63,434.227 1474,473 C1420.34,502.453 1376.21,560.259 1352.62,595.773 " fill="none" id="IChannel&lt;-ChannelClientSocketSSL" style="stroke: #383838; stroke-width: 1.0;"/><polygon fill="none" points="1888.66,387.916,1909.26,392.881,1890.06,401.846,1888.66,387.916" style="stroke: #383838; stroke-width: 1.0;"/><!--MD5=[6d737bc3c886c442cbb7468a849e9fcf]
reverse link IChannel to ChannelClientHTTP--><path d="M1889.55,399.946 C1843.77,408.945 1780.09,423.256 1726,442 C1701.47,450.502 1675.36,462.1 1652.96,472.901 " fill="none" id="IChannel&lt;-ChannelClientHTTP" style="stroke: #383838; stroke-width: 1.0;"/><polygon fill="none" points="1888.26,393.064,1909.22,396.188,1890.89,406.816,1888.26,393.064" style="stroke: #383838; stroke-width: 1.0;"/><!--MD5=[d5c13d6fa635f50a360c61b276b0f2b4]
reverse link IChannel to ChannelClientHTTPS--><path d="M1902.28,424.637 C1885.37,438.506 1867.13,455.315 1853,473 C1814.4,521.304 1809.7,538.103 1788,596 C1772.53,637.266 1762.25,687.3576 1756.77,718.7159 " fill="none" id="IChannel&lt;-ChannelClientHTTPS" style="stroke: #383838; stroke-width: 1.0;"/><polygon fill="none" points="1898.18,418.955,1918.21,412.066,1906.85,429.948,1898.18,418.955" style="stroke: #383838; stroke-width: 1.0;"/><!--MD5=[1d0bc7703000d79572f003b524caf812]
reverse link IChannel to ChannelServerSocket--><path d="M1951,432.418 C1951,445.82 1951,460.284 1951,472.609 " fill="none" id="IChannel&lt;-ChannelServerSocket" style="stroke: #383838; stroke-width: 1.0;"/><polygon fill="none" points="1944,432.07,1951,412.07,1958,432.07,1944,432.07" style="stroke: #383838; stroke-width: 1.0;"/><!--MD5=[5189b6f7f43aae2b821765ab6ef20165]
reverse link IChannel to ChannelServerSocketSSL--><path d="M1997.78,424.574 C2014.86,438.691 2033.72,455.68 2049,473 C2083.42,512.026 2115.07,563.612 2133.45,595.795 " fill="none" id="IChannel&lt;-ChannelServerSocketSSL" style="stroke: #383838; stroke-width: 1.0;"/><polygon fill="none" points="1993.34,429.982,1982.12,412.002,2002.1,419.066,1993.34,429.982" style="stroke: #383838; stroke-width: 1.0;"/><!--MD5=[dfb81c581e057544a1e90c501d60c061]
reverse link IChannel to ChannelServerHTTP--><path d="M2012.29,401.491 C2050.93,410.416 2101.39,424.025 2144,442 C2164.06,450.462 2184.98,462.116 2202.76,472.972 " fill="none" id="IChannel&lt;-ChannelServerHTTP" style="stroke: #383838; stroke-width: 1.0;"/><polygon fill="none" points="2010.72,408.312,1992.72,397.134,2013.76,394.647,2010.72,408.312" style="stroke: #383838; stroke-width: 1.0;"/><!--MD5=[4c307866819392b4808e10937aa32029]
reverse link IChannel to ChannelServerHTTPS--><path d="M2012.62,394.308 C2091.78,402.876 2232.08,424.046 2342,473 C2427.19,510.94 2460.29,518.393 2512,596 C2536.97,633.469 2544.7,686.1973 2547.05,718.9495 " fill="none" id="IChannel&lt;-ChannelServerHTTPS" style="stroke: #383838; stroke-width: 1.0;"/><polygon fill="none" points="2011.88,401.269,1992.69,392.279,2013.3,387.341,2011.88,401.269" style="stroke: #383838; stroke-width: 1.0;"/><!--MD5=[f1f00234a06d4cb0092cc8eb0cc47e55]
reverse link IChannel to ChannelComPort--><path d="M2012.85,391.207 C2125.21,395.893 2370.11,409.224 2574,442 C2622.27,449.759 2674.91,461.689 2719.84,472.947 " fill="none" id="IChannel&lt;-ChannelComPort" style="stroke: #383838; stroke-width: 1.0;"/><polygon fill="none" points="2012.52,398.199,1992.82,390.405,2013.08,384.211,2012.52,398.199" style="stroke: #383838; stroke-width: 1.0;"/><!--MD5=[4f67af2e5daad4af42e700e3f6149fcc]
reverse link RequestType to IRequestFactory--><path d="M667.774,59.5 C720.488,59.5 780.065,59.5 835.577,59.5 " fill="none" id="RequestType&lt;-IRequestFactory" style="stroke: #383838; stroke-width: 1.0; stroke-dasharray: 7.0,7.0;"/><polygon fill="#383838" points="662.695,59.5,671.695,63.5,667.695,59.5,671.695,55.5,662.695,59.5" style="stroke: #383838; stroke-width: 1.0;"/><text fill="#000000" font-family="sans-serif" font-size="13" lengthAdjust="spacingAndGlyphs" textLength="137" x="680.75" y="52.9951">uses to create requests</text><!--MD5=[957a3d72888a1c40a139d4472f551efa]
link IRequestFactory to Request--><path d="M1230.2,59.5 C1255.19,59.5 1280.38,59.5 1304.36,59.5 " fill="none" id="IRequestFactory-&gt;Request" style="stroke: #383838; stroke-width: 1.0; stroke-dasharray: 7.0,7.0;"/><polygon fill="#383838" points="1309.46,59.5,1300.46,55.5,1304.46,59.5,1300.46,63.5,1309.46,59.5" style="stroke: #383838; stroke-width: 1.0;"/><text fill="#000000" font-family="sans-serif" font-size="13" lengthAdjust="spacingAndGlyphs" textLength="43" x="1248.25" y="52.9951">creates</text><!--MD5=[79fff59fd01e324a1d560ef0509f7f82]
reverse link RequestType to AuthType--><path d="M601.227,122.589 C623.534,138.461 647.286,155.664 669,172 C674.89,176.431 680.97,181.097 687.03,185.809 " fill="none" id="RequestType&lt;-AuthType" style="stroke: #383838; stroke-width: 1.0;"/><polygon fill="none" points="597.175,128.297,584.901,111.024,605.267,116.872,597.175,128.297" style="stroke: #383838; stroke-width: 1.0;"/><!--MD5=[c1e8cff569b313e287036b0a412942b2]
reverse link RequestType to SettlementType--><path d="M681.734,109.467 C730.862,126.423 783.699,147.446 830,172 C836.146,175.259 842.333,178.924 848.42,182.808 " fill="none" id="RequestType&lt;-SettlementType" style="stroke: #383838; stroke-width: 1.0;"/><polygon fill="none" points="679.455,116.085,662.749,103.049,683.938,102.823,679.455,116.085" style="stroke: #383838; stroke-width: 1.0;"/><!--MD5=[d76aa69d37fbedf77fb864dbbfb30eb0]
reverse link RequestType to CardType--><path d="M341.854,102.03 C282.871,119.654 217.428,142.942 161,172 C149.883,177.725 138.694,184.871 128.233,192.303 " fill="none" id="RequestType&lt;-CardType" style="stroke: #383838; stroke-width: 1.0;"/><polygon fill="none" points="340.011,95.276,361.171,96.389,343.935,108.715,340.011,95.276" style="stroke: #383838; stroke-width: 1.0;"/><!--MD5=[2f672c065af222e317722e9a6cece1bb]
reverse link RequestType to TerminalStatusType--><path d="M414.455,122.049 C389.668,138.05 363.204,155.448 339,172 C322.934,182.987 305.541,195.459 290.43,206.487 " fill="none" id="RequestType&lt;-TerminalStatusType" style="stroke: #383838; stroke-width: 1.0;"/><polygon fill="none" points="410.69,116.148,431.299,111.223,418.259,127.925,410.69,116.148" style="stroke: #383838; stroke-width: 1.0;"/><!--MD5=[351ab3c6cdb05d119e2ef83021632492]
reverse link RequestType to TerminalControlType--><path d="M479.813,129.585 C471.095,148.297 461.819,168.206 453.664,185.708 " fill="none" id="RequestType&lt;-TerminalControlType" style="stroke: #383838; stroke-width: 1.0;"/><polygon fill="none" points="473.491,126.579,488.282,111.406,486.181,132.492,473.491,126.579" style="stroke: #383838; stroke-width: 1.0;"/><!--MD5=[49b177b52bda788693e34b2a780236c3]
reverse link RequestType to OtherType--><path d="M544.609,129.646 C552.299,145.953 560.417,163.167 567.837,178.901 " fill="none" id="RequestType&lt;-OtherType" style="stroke: #383838; stroke-width: 1.0;"/><polygon fill="none" points="538.207,132.482,536.007,111.406,550.869,126.51,538.207,132.482" style="stroke: #383838; stroke-width: 1.0;"/><!--MD5=[a7061a7ea18620d17ad93660fdd54414]
@startuml
skinparam monochrome true

class Integra {
  connect()
  sendRequest(request: Request, handler: IResponseHandler)
}

Integra *- - CommunicationContext
Integra *- - IStatusUpdateHandler
Integra .> IResponseHandler: uses
Integra .left> Request: uses

IResponseHandler .right> Response: uses
IStatusUpdateHandler .left> StatusUpdate: uses

interface IStatusUpdateHandler {
  onStatusUpdate(update: StatusUpdate)
}

interface IResponseHandler {
  onResponse(response: Response)
}

class Response {
  options: HashMap<String, String>
  getValue(key: String) : String
}

class StatusUpdate {
  options: HashMap<String, String>
  getValue(key: String) : String
}

class CommunicationContext {
  CommunicationContext(channel: IChannel, datalink : IDatalink)
}

CommunicationContext *- - IChannel
CommunicationContext *-right- IDatalink

interface IDatalink
class Datalink
class DatalinkPayAtTable
class DatalinkStxEtxAckLrc
class DatalinkStxEtxCrcSendAck
class DatalinkStxEtxCrcSendAckSeqCounter

IDatalink <|- Datalink
IDatalink <|- DatalinkPayAtTable
IDatalink <|- DatalinkStxEtxAckLrc
IDatalink <|- DatalinkStxEtxCrcSendAck
IDatalink <|- DatalinkStxEtxCrcSendAckSeqCounter

interface IChannel
class ChannelClientSocket {
  ChannelClientSocket(ip: String, port: int)
}

class ChannelClientSocketSSL {
  ChannelClientSocketSSL(ip: String, port: int, keyStoreFile: String, keyStorePassword:string, keyPassword: String, ciphers: String[], protocols: String[])
}

class ChannelClientHTTP {
  ChannelClientHTTP(host: String, port: int)
}

class ChannelClientHTTPS {
  ChannelClientHTTPS(host: String, port: int, keyStoreFile: String, keyStorePassword:string, keyPassword: String, ciphers: String[], protocols: String[])
}

class ChannelServerSocket {
  ChannelServerSocket(port: int)
}

class ChannelServerSocketSSL {
  ChannelServerSocketSSL(port: int, keyStoreFile: String, keyStorePassword:string, keyPassword: String, ciphers: String[], protocols: String[])
}

class ChannelServerHTTP {
  ChannelServerHTTP(port: int)
}

class ChannelServerHTTPS {
  ChannelServerHTTPS(port: int, keyStoreFile: String, keyStorePassword:string, keyPassword: String, ciphers: String[], protocols: String[])
}

class ChannelComPort {
  ChannelComPort(comPort: String, baudRate: int, dataBits: int, parity, stopBits: int, handshake)
}

IChannel <|-down- ChannelClientSocket
IChannel <|-down- - ChannelClientSocketSSL
IChannel <|-down- ChannelClientHTTP
IChannel <|-down- - - ChannelClientHTTPS
IChannel <|-down- ChannelServerSocket
IChannel <|-down- - ChannelServerSocketSSL
IChannel <|-down- ChannelServerHTTP
IChannel <|-down- - - ChannelServerHTTPS
IChannel <|-down- ChannelComPort

interface IRequestFactory {
  createRequest(type: RequestType, options: HashMap<String, String>): Request
}

class Request {
  Request(type: String, options: HashMap<String, String>)
}

interface RequestType {
  getType(): String
  getExtraTag(): String
  getExtraType(): String
  getValidator(): Function<HashMap<String, String>, Boolean>
}

enum AuthType {
  PRE_AUTH
  TOP_UP
  PRE_AUTH_REVERSAL
  TOP_UP_REVERSAL
}

enum SettlementType {
  SALE
  REFUND
  COMPLETION
  SALE_REVERSAL
  REFUND_REVERSAL
  COMPLETION_REVERSAL
}

enum CardType {
  CARD_CHECK
  CARD_CHECK_VALIDATE
  CARD_CHECK_REMOVE
}

enum TerminalStatusType {
  INFO
}

enum TerminalControlType {
  TERMINAL_ACTIVATE
  TERMINAL_DEACTIVATE
  TERMINAL_LANGUAGE
  TERMINAL_SLEEP
}

enum OtherType {
  CANCEL
  CHECK_STATUS
  SHIFT_OPEN
  SHIFT_CLOSE
  SHIFT_CLOSE_OPEN
}

IRequestFactory .left.> RequestType : uses to create requests
IRequestFactory .> Request : creates

RequestType <|- - AuthType
RequestType <|- - SettlementType
RequestType <|- - CardType
RequestType <|- - TerminalStatusType
RequestType <|- - TerminalControlType
RequestType <|- - OtherType

@enduml

PlantUML version 1.2019.11(Sun Sep 22 11:02:15 BST 2019)
(GPL source distribution)
Java Runtime: OpenJDK Runtime Environment
JVM: OpenJDK 64-Bit Server VM
Java Version: 11.0.5+10-b520.38
Operating System: Windows 10
Default Encoding: Cp1252
Language: pt
Country: PT
--></g></svg>