<?xml version="1.0" encoding="UTF-8" standalone="no"?><svg xmlns="http://www.w3.org/2000/svg" xmlns:xlink="http://www.w3.org/1999/xlink" contentScriptType="application/ecmascript" contentStyleType="text/css" height="1778px" preserveAspectRatio="none" style="width:876px;height:1778px;" version="1.1" viewBox="0 0 876 1778" width="876.4px" zoomAndPan="magnify"><defs><filter height="300%" id="frujbzhuis9jg" width="300%" x="-1" y="-1"><feGaussianBlur result="blurOut" stdDeviation="1.4"/><feColorMatrix in="blurOut" result="blurOut2" type="matrix" values="0 0 0 0 0 0 0 0 0 0 0 0 0 0 0 0 0 0 .4 0"/><feOffset dx="2.8" dy="2.8" in="blurOut2" result="blurOut3"/><feBlend in="SourceGraphic" in2="blurOut3" mode="normal"/></filter></defs><g><!--MD5=[1f52682d24487e7368baaed57e0741ab]
class Integra--><rect fill="#F8F8F8" filter="url(#frujbzhuis9jg)" height="52.9703" id="Integra" style="stroke: #383838; stroke-width: 1.0499999999999998;" width="212.1" x="51.2344" y="763"/><ellipse cx="138.9094" cy="774.2" fill="#C2C2C2" rx="7.7" ry="7.7" style="stroke: #383838; stroke-width: 0.7;"/><path d="M140.3094,771.75 Q140.4516,771.4 140.6157,771.225 Q140.7797,771.05 140.9656,771.05 Q141.2938,771.05 141.5016,771.2469 Q141.7094,771.4437 141.7094,771.9031 L141.7094,772.9969 Q141.7094,773.4563 141.5125,773.6531 Q141.3157,773.85 141.0094,773.85 Q140.736,773.85 140.561,773.7297 Q140.386,773.6094 140.3094,773.2922 Q140.2766,773.0734 140.1563,772.9531 Q139.9375,772.7234 139.5438,772.5922 Q139.15,772.45 138.7563,772.45 Q138.2641,772.45 137.8485,772.6469 Q137.4438,772.8438 137.1266,773.2813 Q136.8094,773.7188 136.8094,774.3203 L136.8094,774.9656 Q136.8094,775.6875 137.4,776.1687 Q137.9907,776.65 139.0407,776.65 Q139.6641,776.65 140.1016,776.5078 Q140.3532,776.4313 140.6375,776.1797 Q140.8235,776.0375 140.9219,775.9938 Q141.0203,775.95 141.1407,775.95 Q141.3703,775.95 141.5344,776.1359 Q141.7094,776.3109 141.7094,776.5625 Q141.7094,776.8031 141.4688,777.0875 Q141.1188,777.5031 140.561,777.7328 Q139.8282,778.05 138.9313,778.05 Q137.8813,778.05 137.0391,777.6344 Q136.361,777.3063 135.8797,776.5953 Q135.4094,775.8844 135.4094,775.0422 L135.4094,774.2766 Q135.4094,773.4016 135.825,772.6359 Q136.2516,771.8703 136.9844,771.4656 Q137.7282,771.05 138.5594,771.05 Q139.0625,771.05 139.5,771.225 Q139.9375,771.4 140.3094,771.75 Z "/><text fill="#000000" font-family="sans-serif" font-size="10.5" lengthAdjust="spacingAndGlyphs" textLength="30.8" x="153.2594" y="778.4964">Integra</text><line style="stroke: #383838; stroke-width: 1.0499999999999998;" x1="51.9344" x2="262.6344" y1="785.4" y2="785.4"/><line style="stroke: #383838; stroke-width: 1.0499999999999998;" x1="51.9344" x2="262.6344" y1="791" y2="791"/><text fill="#000000" font-family="sans-serif" font-size="7.7" lengthAdjust="spacingAndGlyphs" textLength="32.9" x="55.4344" y="801.7933">connect()</text><text fill="#000000" font-family="sans-serif" font-size="7.7" lengthAdjust="spacingAndGlyphs" textLength="203.7" x="55.4344" y="811.4784">sendRequest(request: Request, handler: IResponseHandler)</text><!--MD5=[f37b31d4927d686d0c3cbeb4dbac84c6]
class IStatusUpdateHandler--><rect fill="#F8F8F8" filter="url(#frujbzhuis9jg)" height="43.2852" id="IStatusUpdateHandler" style="stroke: #383838; stroke-width: 1.0499999999999998;" width="140.7" x="543.3344" y="826"/><ellipse cx="561.7094" cy="837.2" fill="#B1B1B1" rx="7.7" ry="7.7" style="stroke: #383838; stroke-width: 0.7;"/><path d="M562.4094,835.1 L562.4094,839.3 L563.8094,839.3 L564.1485,839.3 L564.5094,839.7375 L564.5094,840 L564.5094,840.2625 L564.1485,840.7 L563.8094,840.7 L559.6094,840.7 L559.2703,840.7 L558.9094,840.2625 L558.9094,840 L558.9094,839.7375 L559.2703,839.3 L559.6094,839.3 L561.0094,839.3 L561.0094,835.1 L559.6094,835.1 L559.2703,835.1 L558.9094,834.6625 L558.9094,834.4 L558.9094,834.1375 L559.2703,833.7 L559.6094,833.7 L563.8094,833.7 L564.1485,833.7 L564.5094,834.1375 L564.5094,834.4 L564.5094,834.6625 L564.1485,835.1 L563.8094,835.1 L562.4094,835.1 Z "/><text fill="#000000" font-family="sans-serif" font-size="10.5" font-style="italic" lengthAdjust="spacingAndGlyphs" textLength="100.8" x="573.2594" y="841.4964">IStatusUpdateHandler</text><line style="stroke: #383838; stroke-width: 1.0499999999999998;" x1="544.0344" x2="683.3344" y1="848.4" y2="848.4"/><line style="stroke: #383838; stroke-width: 1.0499999999999998;" x1="544.0344" x2="683.3344" y1="854" y2="854"/><text fill="#000000" font-family="sans-serif" font-size="7.7" lengthAdjust="spacingAndGlyphs" textLength="132.3" x="547.5344" y="864.7933">onStatusUpdate(update: StatusUpdate)</text><!--MD5=[bc476cad528f2117426301de2da8d0fd]
class IResponseHandler--><rect fill="#F8F8F8" filter="url(#frujbzhuis9jg)" height="43.2852" id="IResponseHandler" style="stroke: #383838; stroke-width: 1.0499999999999998;" width="127.4" x="549.9844" y="667.8"/><ellipse cx="569.3044" cy="679" fill="#B1B1B1" rx="7.7" ry="7.7" style="stroke: #383838; stroke-width: 0.7;"/><path d="M570.0044,676.9 L570.0044,681.1 L571.4044,681.1 L571.7435,681.1 L572.1044,681.5375 L572.1044,681.8 L572.1044,682.0625 L571.7435,682.5 L571.4044,682.5 L567.2044,682.5 L566.8653,682.5 L566.5044,682.0625 L566.5044,681.8 L566.5044,681.5375 L566.8653,681.1 L567.2044,681.1 L568.6044,681.1 L568.6044,676.9 L567.2044,676.9 L566.8653,676.9 L566.5044,676.4625 L566.5044,676.2 L566.5044,675.9375 L566.8653,675.5 L567.2044,675.5 L571.4044,675.5 L571.7435,675.5 L572.1044,675.9375 L572.1044,676.2 L572.1044,676.4625 L571.7435,676.9 L571.4044,676.9 L570.0044,676.9 Z "/><text fill="#000000" font-family="sans-serif" font-size="10.5" font-style="italic" lengthAdjust="spacingAndGlyphs" textLength="85.4" x="581.0644" y="683.2964">IResponseHandler</text><line style="stroke: #383838; stroke-width: 1.0499999999999998;" x1="550.6844" x2="676.6844" y1="690.2" y2="690.2"/><line style="stroke: #383838; stroke-width: 1.0499999999999998;" x1="550.6844" x2="676.6844" y1="695.8" y2="695.8"/><text fill="#000000" font-family="sans-serif" font-size="7.7" lengthAdjust="spacingAndGlyphs" textLength="119" x="554.1844" y="706.5933">onResponse(response: Response)</text><!--MD5=[0851f84a889f989e7bb0bebc385d0f09]
class Request--><rect fill="#F8F8F8" filter="url(#frujbzhuis9jg)" height="43.2852" id="Request" style="stroke: #383838; stroke-width: 1.0499999999999998;" width="196.7" x="58.9344" y="624.4"/><ellipse cx="135.0594" cy="635.6" fill="#C2C2C2" rx="7.7" ry="7.7" style="stroke: #383838; stroke-width: 0.7;"/><path d="M136.4594,633.15 Q136.6016,632.8 136.7657,632.625 Q136.9297,632.45 137.1157,632.45 Q137.4438,632.45 137.6516,632.6469 Q137.8594,632.8438 137.8594,633.3031 L137.8594,634.3969 Q137.8594,634.8562 137.6625,635.0531 Q137.4656,635.25 137.1594,635.25 Q136.886,635.25 136.711,635.1297 Q136.536,635.0094 136.4594,634.6922 Q136.4266,634.4734 136.3063,634.3531 Q136.0875,634.1234 135.6938,633.9922 Q135.3,633.85 134.9063,633.85 Q134.4141,633.85 133.9985,634.0469 Q133.5938,634.2438 133.2766,634.6813 Q132.9594,635.1188 132.9594,635.7203 L132.9594,636.3656 Q132.9594,637.0875 133.55,637.5687 Q134.1407,638.05 135.1907,638.05 Q135.8141,638.05 136.2516,637.9078 Q136.5032,637.8313 136.7875,637.5797 Q136.9735,637.4375 137.0719,637.3938 Q137.1703,637.35 137.2907,637.35 Q137.5203,637.35 137.6844,637.5359 Q137.8594,637.7109 137.8594,637.9625 Q137.8594,638.2031 137.6188,638.4875 Q137.2688,638.9031 136.711,639.1328 Q135.9782,639.45 135.0813,639.45 Q134.0313,639.45 133.1891,639.0344 Q132.511,638.7063 132.0297,637.9953 Q131.5594,637.2844 131.5594,636.4422 L131.5594,635.6766 Q131.5594,634.8016 131.975,634.0359 Q132.4016,633.2703 133.1344,632.8656 Q133.8782,632.45 134.7094,632.45 Q135.2125,632.45 135.65,632.625 Q136.0875,632.8 136.4594,633.15 Z "/><text fill="#000000" font-family="sans-serif" font-size="10.5" lengthAdjust="spacingAndGlyphs" textLength="38.5" x="149.4094" y="639.8964">Request</text><line style="stroke: #383838; stroke-width: 1.0499999999999998;" x1="59.6344" x2="254.9344" y1="646.8" y2="646.8"/><line style="stroke: #383838; stroke-width: 1.0499999999999998;" x1="59.6344" x2="254.9344" y1="652.4" y2="652.4"/><text fill="#000000" font-family="sans-serif" font-size="7.7" lengthAdjust="spacingAndGlyphs" textLength="188.3" x="63.1344" y="663.1933">Request(type: String, options: HashMap&lt;String, String&gt;)</text><!--MD5=[176b9c7c892bb0b897856819ec0edb32]
class CommunicationContext--><rect fill="#F8F8F8" filter="url(#frujbzhuis9jg)" height="43.2852" id="CommunicationContext" style="stroke: #383838; stroke-width: 1.0499999999999998;" width="212.8" x="50.8844" y="942.2"/><ellipse cx="100.7594" cy="953.4" fill="#C2C2C2" rx="7.7" ry="7.7" style="stroke: #383838; stroke-width: 0.7;"/><path d="M102.1594,950.95 Q102.3016,950.6 102.4657,950.425 Q102.6297,950.25 102.8157,950.25 Q103.1438,950.25 103.3516,950.4469 Q103.5594,950.6438 103.5594,951.1031 L103.5594,952.1969 Q103.5594,952.6562 103.3625,952.8531 Q103.1657,953.05 102.8594,953.05 Q102.586,953.05 102.411,952.9297 Q102.236,952.8094 102.1594,952.4922 Q102.1266,952.2734 102.0063,952.1531 Q101.7875,951.9234 101.3938,951.7922 Q101,951.65 100.6063,951.65 Q100.1141,951.65 99.6985,951.8469 Q99.2938,952.0437 98.9766,952.4812 Q98.6594,952.9187 98.6594,953.5203 L98.6594,954.1656 Q98.6594,954.8875 99.25,955.3688 Q99.8407,955.85 100.8907,955.85 Q101.5141,955.85 101.9516,955.7078 Q102.2032,955.6312 102.4875,955.3797 Q102.6735,955.2375 102.7719,955.1937 Q102.8703,955.15 102.9907,955.15 Q103.2203,955.15 103.3844,955.3359 Q103.5594,955.5109 103.5594,955.7625 Q103.5594,956.0031 103.3188,956.2875 Q102.9688,956.7031 102.411,956.9328 Q101.6782,957.25 100.7813,957.25 Q99.7313,957.25 98.8891,956.8344 Q98.211,956.5062 97.7297,955.7953 Q97.2594,955.0844 97.2594,954.2422 L97.2594,953.4766 Q97.2594,952.6016 97.675,951.8359 Q98.1016,951.0703 98.8344,950.6656 Q99.5782,950.25 100.4094,950.25 Q100.9125,950.25 101.35,950.425 Q101.7875,950.6 102.1594,950.95 Z "/><text fill="#000000" font-family="sans-serif" font-size="10.5" lengthAdjust="spacingAndGlyphs" textLength="107.1" x="115.1094" y="957.6964">CommunicationContext</text><line style="stroke: #383838; stroke-width: 1.0499999999999998;" x1="51.5844" x2="262.9844" y1="964.6" y2="964.6"/><line style="stroke: #383838; stroke-width: 1.0499999999999998;" x1="51.5844" x2="262.9844" y1="970.2" y2="970.2"/><text fill="#000000" font-family="sans-serif" font-size="7.7" lengthAdjust="spacingAndGlyphs" textLength="204.4" x="55.0844" y="980.9933">CommunicationContext(channel: IChannel, datalink : IDatalink)</text><!--MD5=[62ba8ad8b61caf20139235a169a8c31d]
class Response--><rect fill="#F8F8F8" filter="url(#frujbzhuis9jg)" height="52.9703" id="Response" style="stroke: #383838; stroke-width: 1.0499999999999998;" width="120.4" x="553.4844" y="577.5"/><ellipse cx="587.2594" cy="588.7" fill="#C2C2C2" rx="7.7" ry="7.7" style="stroke: #383838; stroke-width: 0.7;"/><path d="M588.6594,586.25 Q588.8016,585.9 588.9657,585.725 Q589.1297,585.55 589.3157,585.55 Q589.6438,585.55 589.8516,585.7469 Q590.0594,585.9437 590.0594,586.4031 L590.0594,587.4969 Q590.0594,587.9563 589.8625,588.1531 Q589.6656,588.35 589.3594,588.35 Q589.086,588.35 588.911,588.2297 Q588.736,588.1094 588.6594,587.7922 Q588.6266,587.5734 588.5063,587.4531 Q588.2875,587.2234 587.8938,587.0922 Q587.5,586.95 587.1063,586.95 Q586.6141,586.95 586.1985,587.1469 Q585.7938,587.3438 585.4766,587.7813 Q585.1594,588.2188 585.1594,588.8203 L585.1594,589.4656 Q585.1594,590.1875 585.75,590.6687 Q586.3407,591.15 587.3906,591.15 Q588.0141,591.15 588.4516,591.0078 Q588.7031,590.9313 588.9875,590.6797 Q589.1735,590.5375 589.2719,590.4938 Q589.3703,590.45 589.4907,590.45 Q589.7203,590.45 589.8844,590.6359 Q590.0594,590.8109 590.0594,591.0625 Q590.0594,591.3031 589.8188,591.5875 Q589.4688,592.0031 588.911,592.2328 Q588.1782,592.55 587.2813,592.55 Q586.2313,592.55 585.3891,592.1344 Q584.711,591.8063 584.2297,591.0953 Q583.7594,590.3844 583.7594,589.5422 L583.7594,588.7766 Q583.7594,587.9016 584.175,587.1359 Q584.6016,586.3703 585.3344,585.9656 Q586.0781,585.55 586.9094,585.55 Q587.4125,585.55 587.85,585.725 Q588.2875,585.9 588.6594,586.25 Z "/><text fill="#000000" font-family="sans-serif" font-size="10.5" lengthAdjust="spacingAndGlyphs" textLength="46.9" x="601.6094" y="592.9964">Response</text><line style="stroke: #383838; stroke-width: 1.0499999999999998;" x1="554.1844" x2="673.1844" y1="599.9" y2="599.9"/><text fill="#000000" font-family="sans-serif" font-size="7.7" lengthAdjust="spacingAndGlyphs" textLength="112" x="557.6844" y="610.6933">options: HashMap&lt;String, String&gt;</text><line style="stroke: #383838; stroke-width: 1.0499999999999998;" x1="554.1844" x2="673.1844" y1="615.1852" y2="615.1852"/><text fill="#000000" font-family="sans-serif" font-size="7.7" lengthAdjust="spacingAndGlyphs" textLength="97.3" x="557.6844" y="625.9784">getValue(key: String) : String</text><!--MD5=[c95083f8014d99045f811ea890a5821a]
class StatusUpdate--><rect fill="#F8F8F8" filter="url(#frujbzhuis9jg)" height="52.9703" id="StatusUpdate" style="stroke: #383838; stroke-width: 1.0499999999999998;" width="120.4" x="553.4844" y="735.7"/><ellipse cx="580.3644" cy="746.9" fill="#C2C2C2" rx="7.7" ry="7.7" style="stroke: #383838; stroke-width: 0.7;"/><path d="M581.7644,744.45 Q581.9066,744.1 582.0707,743.925 Q582.2347,743.75 582.4206,743.75 Q582.7488,743.75 582.9566,743.9469 Q583.1644,744.1438 583.1644,744.6031 L583.1644,745.6969 Q583.1644,746.1563 582.9675,746.3531 Q582.7706,746.55 582.4644,746.55 Q582.191,746.55 582.016,746.4297 Q581.841,746.3094 581.7644,745.9922 Q581.7316,745.7734 581.6113,745.6531 Q581.3925,745.4234 580.9988,745.2922 Q580.605,745.15 580.2113,745.15 Q579.7191,745.15 579.3035,745.3469 Q578.8988,745.5437 578.5816,745.9812 Q578.2644,746.4187 578.2644,747.0203 L578.2644,747.6656 Q578.2644,748.3875 578.855,748.8688 Q579.4457,749.35 580.4957,749.35 Q581.1191,749.35 581.5566,749.2078 Q581.8082,749.1312 582.0925,748.8797 Q582.2785,748.7375 582.3769,748.6937 Q582.4753,748.65 582.5957,748.65 Q582.8253,748.65 582.9894,748.8359 Q583.1644,749.0109 583.1644,749.2625 Q583.1644,749.5031 582.9238,749.7875 Q582.5738,750.2031 582.016,750.4328 Q581.2832,750.75 580.3863,750.75 Q579.3363,750.75 578.4941,750.3344 Q577.816,750.0062 577.3347,749.2953 Q576.8644,748.5844 576.8644,747.7422 L576.8644,746.9766 Q576.8644,746.1016 577.28,745.3359 Q577.7066,744.5703 578.4394,744.1656 Q579.1832,743.75 580.0144,743.75 Q580.5175,743.75 580.955,743.925 Q581.3925,744.1 581.7644,744.45 Z "/><text fill="#000000" font-family="sans-serif" font-size="10.5" lengthAdjust="spacingAndGlyphs" textLength="61.6" x="593.8044" y="751.1964">StatusUpdate</text><line style="stroke: #383838; stroke-width: 1.0499999999999998;" x1="554.1844" x2="673.1844" y1="758.1" y2="758.1"/><text fill="#000000" font-family="sans-serif" font-size="7.7" lengthAdjust="spacingAndGlyphs" textLength="112" x="557.6844" y="768.8933">options: HashMap&lt;String, String&gt;</text><line style="stroke: #383838; stroke-width: 1.0499999999999998;" x1="554.1844" x2="673.1844" y1="773.3852" y2="773.3852"/><text fill="#000000" font-family="sans-serif" font-size="7.7" lengthAdjust="spacingAndGlyphs" textLength="97.3" x="557.6844" y="784.1784">getValue(key: String) : String</text><!--MD5=[faaa79ddaea5e037790f64f03cadc562]
class IChannel--><rect fill="#F8F8F8" filter="url(#frujbzhuis9jg)" height="33.6" id="IChannel" style="stroke: #383838; stroke-width: 1.0499999999999998;" width="63" x="125.7844" y="1427.3"/><ellipse cx="136.2844" cy="1438.5" fill="#B1B1B1" rx="7.7" ry="7.7" style="stroke: #383838; stroke-width: 0.7;"/><path d="M136.9844,1436.4 L136.9844,1440.6 L138.3844,1440.6 L138.7235,1440.6 L139.0844,1441.0375 L139.0844,1441.3 L139.0844,1441.5625 L138.7235,1442 L138.3844,1442 L134.1844,1442 L133.8453,1442 L133.4844,1441.5625 L133.4844,1441.3 L133.4844,1441.0375 L133.8453,1440.6 L134.1844,1440.6 L135.5844,1440.6 L135.5844,1436.4 L134.1844,1436.4 L133.8453,1436.4 L133.4844,1435.9625 L133.4844,1435.7 L133.4844,1435.4375 L133.8453,1435 L134.1844,1435 L138.3844,1435 L138.7235,1435 L139.0844,1435.4375 L139.0844,1435.7 L139.0844,1435.9625 L138.7235,1436.4 L138.3844,1436.4 L136.9844,1436.4 Z "/><text fill="#000000" font-family="sans-serif" font-size="10.5" font-style="italic" lengthAdjust="spacingAndGlyphs" textLength="40.6" x="146.0844" y="1442.7964">IChannel</text><line style="stroke: #383838; stroke-width: 1.0499999999999998;" x1="126.4844" x2="188.0844" y1="1449.7" y2="1449.7"/><line style="stroke: #383838; stroke-width: 1.0499999999999998;" x1="126.4844" x2="188.0844" y1="1455.3" y2="1455.3"/><!--MD5=[0cbcd58193005eb9555aee917cb9f338]
class IDatalink--><rect fill="#F8F8F8" filter="url(#frujbzhuis9jg)" height="33.6" id="IDatalink" style="stroke: #383838; stroke-width: 1.0499999999999998;" width="62.3" x="126.1344" y="1010.1"/><ellipse cx="136.6344" cy="1021.3" fill="#B1B1B1" rx="7.7" ry="7.7" style="stroke: #383838; stroke-width: 0.7;"/><path d="M137.3344,1019.2 L137.3344,1023.4 L138.7344,1023.4 L139.0735,1023.4 L139.4344,1023.8375 L139.4344,1024.1 L139.4344,1024.3625 L139.0735,1024.8 L138.7344,1024.8 L134.5344,1024.8 L134.1953,1024.8 L133.8344,1024.3625 L133.8344,1024.1 L133.8344,1023.8375 L134.1953,1023.4 L134.5344,1023.4 L135.9344,1023.4 L135.9344,1019.2 L134.5344,1019.2 L134.1953,1019.2 L133.8344,1018.7625 L133.8344,1018.5 L133.8344,1018.2375 L134.1953,1017.8 L134.5344,1017.8 L138.7344,1017.8 L139.0735,1017.8 L139.4344,1018.2375 L139.4344,1018.5 L139.4344,1018.7625 L139.0735,1019.2 L138.7344,1019.2 L137.3344,1019.2 Z "/><text fill="#000000" font-family="sans-serif" font-size="10.5" font-style="italic" lengthAdjust="spacingAndGlyphs" textLength="39.9" x="146.4344" y="1025.5964">IDatalink</text><line style="stroke: #383838; stroke-width: 1.0499999999999998;" x1="126.8344" x2="187.7344" y1="1032.5" y2="1032.5"/><line style="stroke: #383838; stroke-width: 1.0499999999999998;" x1="126.8344" x2="187.7344" y1="1038.1" y2="1038.1"/><!--MD5=[062b80591a37350f769c0b0e59f8b9db]
class Datalink--><rect fill="#F8F8F8" filter="url(#frujbzhuis9jg)" height="33.6" id="Datalink" style="stroke: #383838; stroke-width: 1.0499999999999998;" width="58.8" x="584.2844" y="1010.1"/><ellipse cx="594.7844" cy="1021.3" fill="#C2C2C2" rx="7.7" ry="7.7" style="stroke: #383838; stroke-width: 0.7;"/><path d="M596.1844,1018.85 Q596.3266,1018.5 596.4907,1018.325 Q596.6547,1018.15 596.8407,1018.15 Q597.1688,1018.15 597.3766,1018.3469 Q597.5844,1018.5437 597.5844,1019.0031 L597.5844,1020.0969 Q597.5844,1020.5563 597.3875,1020.7531 Q597.1907,1020.95 596.8844,1020.95 Q596.611,1020.95 596.436,1020.8297 Q596.261,1020.7094 596.1844,1020.3922 Q596.1516,1020.1734 596.0313,1020.0531 Q595.8125,1019.8234 595.4188,1019.6922 Q595.025,1019.55 594.6313,1019.55 Q594.1391,1019.55 593.7235,1019.7469 Q593.3188,1019.9437 593.0016,1020.3812 Q592.6844,1020.8187 592.6844,1021.4203 L592.6844,1022.0656 Q592.6844,1022.7875 593.275,1023.2688 Q593.8657,1023.75 594.9156,1023.75 Q595.5391,1023.75 595.9766,1023.6078 Q596.2281,1023.5312 596.5125,1023.2797 Q596.6985,1023.1375 596.7969,1023.0937 Q596.8953,1023.05 597.0156,1023.05 Q597.2453,1023.05 597.4094,1023.2359 Q597.5844,1023.4109 597.5844,1023.6625 Q597.5844,1023.9031 597.3438,1024.1875 Q596.9938,1024.6031 596.436,1024.8328 Q595.7031,1025.15 594.8063,1025.15 Q593.7563,1025.15 592.9141,1024.7344 Q592.236,1024.4063 591.7547,1023.6953 Q591.2844,1022.9844 591.2844,1022.1422 L591.2844,1021.3766 Q591.2844,1020.5016 591.7,1019.7359 Q592.1266,1018.9703 592.8594,1018.5656 Q593.6031,1018.15 594.4344,1018.15 Q594.9375,1018.15 595.375,1018.325 Q595.8125,1018.5 596.1844,1018.85 Z "/><text fill="#000000" font-family="sans-serif" font-size="10.5" lengthAdjust="spacingAndGlyphs" textLength="36.4" x="604.5844" y="1025.5964">Datalink</text><line style="stroke: #383838; stroke-width: 1.0499999999999998;" x1="584.9844" x2="642.3844" y1="1032.5" y2="1032.5"/><line style="stroke: #383838; stroke-width: 1.0499999999999998;" x1="584.9844" x2="642.3844" y1="1038.1" y2="1038.1"/><!--MD5=[94451d052dc42d3f25e672c85e0c18af]
class DatalinkPayAtTable--><rect fill="#F8F8F8" filter="url(#frujbzhuis9jg)" height="33.6" id="DatalinkPayAtTable" style="stroke: #383838; stroke-width: 1.0499999999999998;" width="110.6" x="558.3844" y="1068.2"/><ellipse cx="568.8844" cy="1079.4" fill="#C2C2C2" rx="7.7" ry="7.7" style="stroke: #383838; stroke-width: 0.7;"/><path d="M570.2844,1076.95 Q570.4266,1076.6 570.5907,1076.425 Q570.7547,1076.25 570.9407,1076.25 Q571.2688,1076.25 571.4766,1076.4469 Q571.6844,1076.6438 571.6844,1077.1031 L571.6844,1078.1969 Q571.6844,1078.6563 571.4875,1078.8531 Q571.2906,1079.05 570.9844,1079.05 Q570.711,1079.05 570.536,1078.9297 Q570.361,1078.8094 570.2844,1078.4922 Q570.2516,1078.2734 570.1313,1078.1531 Q569.9125,1077.9234 569.5188,1077.7922 Q569.125,1077.65 568.7313,1077.65 Q568.2391,1077.65 567.8235,1077.8469 Q567.4188,1078.0437 567.1016,1078.4812 Q566.7844,1078.9187 566.7844,1079.5203 L566.7844,1080.1656 Q566.7844,1080.8875 567.375,1081.3687 Q567.9657,1081.85 569.0156,1081.85 Q569.6391,1081.85 570.0766,1081.7078 Q570.3281,1081.6313 570.6125,1081.3797 Q570.7985,1081.2375 570.8969,1081.1938 Q570.9953,1081.15 571.1157,1081.15 Q571.3453,1081.15 571.5094,1081.3359 Q571.6844,1081.5109 571.6844,1081.7625 Q571.6844,1082.0031 571.4438,1082.2875 Q571.0938,1082.7031 570.536,1082.9328 Q569.8032,1083.25 568.9063,1083.25 Q567.8563,1083.25 567.0141,1082.8344 Q566.336,1082.5063 565.8547,1081.7953 Q565.3844,1081.0844 565.3844,1080.2422 L565.3844,1079.4766 Q565.3844,1078.6016 565.8,1077.8359 Q566.2266,1077.0703 566.9594,1076.6656 Q567.7031,1076.25 568.5344,1076.25 Q569.0375,1076.25 569.475,1076.425 Q569.9125,1076.6 570.2844,1076.95 Z "/><text fill="#000000" font-family="sans-serif" font-size="10.5" lengthAdjust="spacingAndGlyphs" textLength="88.2" x="578.6844" y="1083.6964">DatalinkPayAtTable</text><line style="stroke: #383838; stroke-width: 1.0499999999999998;" x1="559.0844" x2="668.2844" y1="1090.6" y2="1090.6"/><line style="stroke: #383838; stroke-width: 1.0499999999999998;" x1="559.0844" x2="668.2844" y1="1096.2" y2="1096.2"/><!--MD5=[1066f779cb004c7e2306f3554ec900cb]
class DatalinkStxEtxAckLrc--><rect fill="#F8F8F8" filter="url(#frujbzhuis9jg)" height="33.6" id="DatalinkStxEtxAckLrc" style="stroke: #383838; stroke-width: 1.0499999999999998;" width="119.7" x="553.8344" y="1126.3"/><ellipse cx="564.3344" cy="1137.5" fill="#C2C2C2" rx="7.7" ry="7.7" style="stroke: #383838; stroke-width: 0.7;"/><path d="M565.7344,1135.05 Q565.8766,1134.7 566.0406,1134.525 Q566.2047,1134.35 566.3906,1134.35 Q566.7188,1134.35 566.9266,1134.5469 Q567.1344,1134.7437 567.1344,1135.2031 L567.1344,1136.2969 Q567.1344,1136.7563 566.9375,1136.9531 Q566.7407,1137.15 566.4344,1137.15 Q566.161,1137.15 565.986,1137.0297 Q565.811,1136.9094 565.7344,1136.5922 Q565.7016,1136.3734 565.5813,1136.2531 Q565.3625,1136.0234 564.9688,1135.8922 Q564.575,1135.75 564.1813,1135.75 Q563.6891,1135.75 563.2735,1135.9469 Q562.8688,1136.1438 562.5516,1136.5813 Q562.2344,1137.0188 562.2344,1137.6203 L562.2344,1138.2656 Q562.2344,1138.9875 562.825,1139.4688 Q563.4156,1139.95 564.4657,1139.95 Q565.0891,1139.95 565.5266,1139.8078 Q565.7782,1139.7312 566.0625,1139.4797 Q566.2485,1139.3375 566.3469,1139.2937 Q566.4453,1139.25 566.5657,1139.25 Q566.7953,1139.25 566.9594,1139.4359 Q567.1344,1139.6109 567.1344,1139.8625 Q567.1344,1140.1031 566.8938,1140.3875 Q566.5438,1140.8031 565.986,1141.0328 Q565.2532,1141.35 564.3563,1141.35 Q563.3063,1141.35 562.4641,1140.9344 Q561.786,1140.6062 561.3047,1139.8953 Q560.8344,1139.1844 560.8344,1138.3422 L560.8344,1137.5766 Q560.8344,1136.7016 561.25,1135.9359 Q561.6766,1135.1703 562.4094,1134.7656 Q563.1532,1134.35 563.9844,1134.35 Q564.4875,1134.35 564.925,1134.525 Q565.3625,1134.7 565.7344,1135.05 Z "/><text fill="#000000" font-family="sans-serif" font-size="10.5" lengthAdjust="spacingAndGlyphs" textLength="97.3" x="574.1344" y="1141.7964">DatalinkStxEtxAckLrc</text><line style="stroke: #383838; stroke-width: 1.0499999999999998;" x1="554.5344" x2="672.8344" y1="1148.7" y2="1148.7"/><line style="stroke: #383838; stroke-width: 1.0499999999999998;" x1="554.5344" x2="672.8344" y1="1154.3" y2="1154.3"/><!--MD5=[d44ff26e5b8e539f3dba2d896f66998c]
class DatalinkStxEtxCrcSendAck--><rect fill="#F8F8F8" filter="url(#frujbzhuis9jg)" height="33.6" id="DatalinkStxEtxCrcSendAck" style="stroke: #383838; stroke-width: 1.0499999999999998;" width="145.6" x="540.8844" y="893.9"/><ellipse cx="551.3844" cy="905.1" fill="#C2C2C2" rx="7.7" ry="7.7" style="stroke: #383838; stroke-width: 0.7;"/><path d="M552.7844,902.65 Q552.9266,902.3 553.0907,902.125 Q553.2547,901.95 553.4407,901.95 Q553.7688,901.95 553.9766,902.1469 Q554.1844,902.3437 554.1844,902.8031 L554.1844,903.8969 Q554.1844,904.3562 553.9875,904.5531 Q553.7906,904.75 553.4844,904.75 Q553.211,904.75 553.036,904.6297 Q552.861,904.5094 552.7844,904.1922 Q552.7516,903.9734 552.6313,903.8531 Q552.4125,903.6234 552.0188,903.4922 Q551.625,903.35 551.2313,903.35 Q550.7391,903.35 550.3235,903.5469 Q549.9188,903.7438 549.6016,904.1813 Q549.2844,904.6188 549.2844,905.2203 L549.2844,905.8656 Q549.2844,906.5875 549.875,907.0687 Q550.4657,907.55 551.5156,907.55 Q552.1391,907.55 552.5766,907.4078 Q552.8281,907.3313 553.1125,907.0797 Q553.2985,906.9375 553.3969,906.8938 Q553.4953,906.85 553.6157,906.85 Q553.8453,906.85 554.0094,907.0359 Q554.1844,907.2109 554.1844,907.4625 Q554.1844,907.7031 553.9438,907.9875 Q553.5938,908.4031 553.036,908.6328 Q552.3032,908.95 551.4063,908.95 Q550.3563,908.95 549.5141,908.5344 Q548.836,908.2063 548.3547,907.4953 Q547.8844,906.7844 547.8844,905.9422 L547.8844,905.1766 Q547.8844,904.3016 548.3,903.5359 Q548.7266,902.7703 549.4594,902.3656 Q550.2031,901.95 551.0344,901.95 Q551.5375,901.95 551.975,902.125 Q552.4125,902.3 552.7844,902.65 Z "/><text fill="#000000" font-family="sans-serif" font-size="10.5" lengthAdjust="spacingAndGlyphs" textLength="123.2" x="561.1844" y="909.3964">DatalinkStxEtxCrcSendAck</text><line style="stroke: #383838; stroke-width: 1.0499999999999998;" x1="541.5844" x2="685.7844" y1="916.3" y2="916.3"/><line style="stroke: #383838; stroke-width: 1.0499999999999998;" x1="541.5844" x2="685.7844" y1="921.9" y2="921.9"/><!--MD5=[493eb62f52581988e4c2c1496577ce10]
class DatalinkStxEtxCrcSendAckSeqCounter--><rect fill="#F8F8F8" filter="url(#frujbzhuis9jg)" height="33.6" id="DatalinkStxEtxCrcSendAckSeqCounter" style="stroke: #383838; stroke-width: 1.0499999999999998;" width="200.2" x="513.5844" y="952"/><ellipse cx="524.0844" cy="963.2" fill="#C2C2C2" rx="7.7" ry="7.7" style="stroke: #383838; stroke-width: 0.7;"/><path d="M525.4844,960.75 Q525.6266,960.4 525.7907,960.225 Q525.9547,960.05 526.1406,960.05 Q526.4688,960.05 526.6766,960.2469 Q526.8844,960.4437 526.8844,960.9031 L526.8844,961.9969 Q526.8844,962.4563 526.6875,962.6531 Q526.4907,962.85 526.1844,962.85 Q525.911,962.85 525.736,962.7297 Q525.561,962.6094 525.4844,962.2922 Q525.4516,962.0734 525.3313,961.9531 Q525.1125,961.7234 524.7188,961.5922 Q524.325,961.45 523.9313,961.45 Q523.4391,961.45 523.0235,961.6469 Q522.6188,961.8437 522.3016,962.2812 Q521.9844,962.7187 521.9844,963.3203 L521.9844,963.9656 Q521.9844,964.6875 522.575,965.1687 Q523.1657,965.65 524.2157,965.65 Q524.8391,965.65 525.2766,965.5078 Q525.5282,965.4313 525.8125,965.1797 Q525.9985,965.0375 526.0969,964.9938 Q526.1953,964.95 526.3157,964.95 Q526.5453,964.95 526.7094,965.1359 Q526.8844,965.3109 526.8844,965.5625 Q526.8844,965.8031 526.6438,966.0875 Q526.2938,966.5031 525.736,966.7328 Q525.0032,967.05 524.1063,967.05 Q523.0563,967.05 522.2141,966.6344 Q521.536,966.3063 521.0547,965.5953 Q520.5844,964.8844 520.5844,964.0422 L520.5844,963.2766 Q520.5844,962.4016 521,961.6359 Q521.4266,960.8703 522.1594,960.4656 Q522.9032,960.05 523.7344,960.05 Q524.2375,960.05 524.675,960.225 Q525.1125,960.4 525.4844,960.75 Z "/><text fill="#000000" font-family="sans-serif" font-size="10.5" lengthAdjust="spacingAndGlyphs" textLength="177.8" x="533.8844" y="967.4964">DatalinkStxEtxCrcSendAckSeqCounter</text><line style="stroke: #383838; stroke-width: 1.0499999999999998;" x1="514.2844" x2="713.0844" y1="974.4" y2="974.4"/><line style="stroke: #383838; stroke-width: 1.0499999999999998;" x1="514.2844" x2="713.0844" y1="980" y2="980"/><!--MD5=[11a769bb708138ec4b85eeca46a9b2e8]
class ChannelClientSocket--><rect fill="#F8F8F8" filter="url(#frujbzhuis9jg)" height="43.2852" id="ChannelClientSocket" style="stroke: #383838; stroke-width: 1.0499999999999998;" width="141.4" x="542.9844" y="1727.6"/><ellipse cx="564.1944" cy="1738.8" fill="#C2C2C2" rx="7.7" ry="7.7" style="stroke: #383838; stroke-width: 0.7;"/><path d="M565.5944,1736.35 Q565.7366,1736 565.9006,1735.825 Q566.0647,1735.65 566.2507,1735.65 Q566.5788,1735.65 566.7866,1735.8469 Q566.9944,1736.0437 566.9944,1736.5031 L566.9944,1737.5969 Q566.9944,1738.0562 566.7975,1738.2531 Q566.6007,1738.45 566.2944,1738.45 Q566.021,1738.45 565.846,1738.3297 Q565.671,1738.2094 565.5944,1737.8922 Q565.5616,1737.6734 565.4413,1737.5531 Q565.2225,1737.3234 564.8288,1737.1922 Q564.435,1737.05 564.0413,1737.05 Q563.5491,1737.05 563.1335,1737.2469 Q562.7288,1737.4438 562.4116,1737.8813 Q562.0944,1738.3188 562.0944,1738.9203 L562.0944,1739.5656 Q562.0944,1740.2875 562.685,1740.7688 Q563.2756,1741.25 564.3256,1741.25 Q564.9491,1741.25 565.3866,1741.1078 Q565.6381,1741.0313 565.9225,1740.7797 Q566.1085,1740.6375 566.2069,1740.5938 Q566.3053,1740.55 566.4256,1740.55 Q566.6553,1740.55 566.8194,1740.7359 Q566.9944,1740.9109 566.9944,1741.1625 Q566.9944,1741.4031 566.7538,1741.6875 Q566.4038,1742.1031 565.846,1742.3328 Q565.1131,1742.65 564.2163,1742.65 Q563.1663,1742.65 562.3241,1742.2344 Q561.646,1741.9063 561.1647,1741.1953 Q560.6944,1740.4844 560.6944,1739.6422 L560.6944,1738.8766 Q560.6944,1738.0016 561.11,1737.2359 Q561.5366,1736.4703 562.2694,1736.0656 Q563.0131,1735.65 563.8444,1735.65 Q564.3475,1735.65 564.785,1735.825 Q565.2225,1736 565.5944,1736.35 Z "/><text fill="#000000" font-family="sans-serif" font-size="10.5" lengthAdjust="spacingAndGlyphs" textLength="95.2" x="576.3744" y="1743.0964">ChannelClientSocket</text><line style="stroke: #383838; stroke-width: 1.0499999999999998;" x1="543.6844" x2="683.6844" y1="1750" y2="1750"/><line style="stroke: #383838; stroke-width: 1.0499999999999998;" x1="543.6844" x2="683.6844" y1="1755.6" y2="1755.6"/><text fill="#000000" font-family="sans-serif" font-size="7.7" lengthAdjust="spacingAndGlyphs" textLength="133" x="547.1844" y="1766.3933">ChannelClientSocket(ip: String, port: int)</text><!--MD5=[3f59b71a60ea897ccd6f06d2d88144a5]
class ChannelClientSocketSSL--><rect fill="#F8F8F8" filter="url(#frujbzhuis9jg)" height="43.2852" id="ChannelClientSocketSSL" style="stroke: #383838; stroke-width: 1.0499999999999998;" width="511" x="358.1844" y="1184.4"/><ellipse cx="553.3094" cy="1195.6" fill="#C2C2C2" rx="7.7" ry="7.7" style="stroke: #383838; stroke-width: 0.7;"/><path d="M554.7094,1193.15 Q554.8516,1192.8 555.0156,1192.625 Q555.1797,1192.45 555.3657,1192.45 Q555.6938,1192.45 555.9016,1192.6469 Q556.1094,1192.8438 556.1094,1193.3031 L556.1094,1194.3969 Q556.1094,1194.8562 555.9125,1195.0531 Q555.7157,1195.25 555.4094,1195.25 Q555.136,1195.25 554.961,1195.1297 Q554.786,1195.0094 554.7094,1194.6922 Q554.6766,1194.4734 554.5563,1194.3531 Q554.3375,1194.1234 553.9438,1193.9922 Q553.55,1193.85 553.1563,1193.85 Q552.6641,1193.85 552.2485,1194.0469 Q551.8438,1194.2437 551.5266,1194.6812 Q551.2094,1195.1187 551.2094,1195.7203 L551.2094,1196.3656 Q551.2094,1197.0875 551.8,1197.5688 Q552.3906,1198.05 553.4407,1198.05 Q554.0641,1198.05 554.5016,1197.9078 Q554.7532,1197.8313 555.0375,1197.5797 Q555.2235,1197.4375 555.3219,1197.3938 Q555.4203,1197.35 555.5406,1197.35 Q555.7703,1197.35 555.9344,1197.5359 Q556.1094,1197.7109 556.1094,1197.9625 Q556.1094,1198.2031 555.8688,1198.4875 Q555.5188,1198.9031 554.961,1199.1328 Q554.2281,1199.45 553.3313,1199.45 Q552.2813,1199.45 551.4391,1199.0344 Q550.761,1198.7063 550.2797,1197.9953 Q549.8094,1197.2844 549.8094,1196.4422 L549.8094,1195.6766 Q549.8094,1194.8016 550.225,1194.0359 Q550.6516,1193.2703 551.3844,1192.8656 Q552.1282,1192.45 552.9594,1192.45 Q553.4625,1192.45 553.9,1192.625 Q554.3375,1192.8 554.7094,1193.15 Z "/><text fill="#000000" font-family="sans-serif" font-size="10.5" lengthAdjust="spacingAndGlyphs" textLength="114.8" x="567.6594" y="1199.8964">ChannelClientSocketSSL</text><line style="stroke: #383838; stroke-width: 1.0499999999999998;" x1="358.8844" x2="868.4844" y1="1206.8" y2="1206.8"/><line style="stroke: #383838; stroke-width: 1.0499999999999998;" x1="358.8844" x2="868.4844" y1="1212.4" y2="1212.4"/><text fill="#000000" font-family="sans-serif" font-size="7.7" lengthAdjust="spacingAndGlyphs" textLength="502.6" x="362.3844" y="1223.1933">ChannelClientSocketSSL(ip: String, port: int, keyStoreFile: String, keyStorePassword:string, keyPassword: String, ciphers: String[], protocols: String[])</text><!--MD5=[c308caa781a33ebc506680e42426d3e7]
class ChannelClientHTTP--><rect fill="#F8F8F8" filter="url(#frujbzhuis9jg)" height="43.2852" id="ChannelClientHTTP" style="stroke: #383838; stroke-width: 1.0499999999999998;" width="144.9" x="541.2344" y="1252.3"/><ellipse cx="566.2244" cy="1263.5" fill="#C2C2C2" rx="7.7" ry="7.7" style="stroke: #383838; stroke-width: 0.7;"/><path d="M567.6244,1261.05 Q567.7666,1260.7 567.9307,1260.525 Q568.0947,1260.35 568.2807,1260.35 Q568.6088,1260.35 568.8166,1260.5469 Q569.0244,1260.7437 569.0244,1261.2031 L569.0244,1262.2969 Q569.0244,1262.7563 568.8275,1262.9531 Q568.6307,1263.15 568.3244,1263.15 Q568.051,1263.15 567.876,1263.0297 Q567.701,1262.9094 567.6244,1262.5922 Q567.5916,1262.3734 567.4713,1262.2531 Q567.2525,1262.0234 566.8588,1261.8922 Q566.465,1261.75 566.0713,1261.75 Q565.5791,1261.75 565.1635,1261.9469 Q564.7588,1262.1438 564.4416,1262.5813 Q564.1244,1263.0188 564.1244,1263.6203 L564.1244,1264.2656 Q564.1244,1264.9875 564.715,1265.4688 Q565.3057,1265.95 566.3557,1265.95 Q566.9791,1265.95 567.4166,1265.8078 Q567.6682,1265.7312 567.9525,1265.4797 Q568.1385,1265.3375 568.2369,1265.2937 Q568.3353,1265.25 568.4557,1265.25 Q568.6853,1265.25 568.8494,1265.4359 Q569.0244,1265.6109 569.0244,1265.8625 Q569.0244,1266.1031 568.7838,1266.3875 Q568.4338,1266.8031 567.876,1267.0328 Q567.1432,1267.35 566.2463,1267.35 Q565.1963,1267.35 564.3541,1266.9344 Q563.676,1266.6062 563.1947,1265.8953 Q562.7244,1265.1844 562.7244,1264.3422 L562.7244,1263.5766 Q562.7244,1262.7016 563.14,1261.9359 Q563.5666,1261.1703 564.2994,1260.7656 Q565.0432,1260.35 565.8744,1260.35 Q566.3775,1260.35 566.815,1260.525 Q567.2525,1260.7 567.6244,1261.05 Z "/><text fill="#000000" font-family="sans-serif" font-size="10.5" lengthAdjust="spacingAndGlyphs" textLength="90.3" x="579.2444" y="1267.7964">ChannelClientHTTP</text><line style="stroke: #383838; stroke-width: 1.0499999999999998;" x1="541.9344" x2="685.4344" y1="1274.7" y2="1274.7"/><line style="stroke: #383838; stroke-width: 1.0499999999999998;" x1="541.9344" x2="685.4344" y1="1280.3" y2="1280.3"/><text fill="#000000" font-family="sans-serif" font-size="7.7" lengthAdjust="spacingAndGlyphs" textLength="136.5" x="545.4344" y="1291.0933">ChannelClientHTTP(host: String, port: int)</text><!--MD5=[bb352df41ede98e69259ac49988ed67c]
class ChannelClientHTTPS--><rect fill="#F8F8F8" filter="url(#frujbzhuis9jg)" height="43.2852" id="ChannelClientHTTPS" style="stroke: #383838; stroke-width: 1.0499999999999998;" width="505.4" x="360.9844" y="1320.2"/><ellipse cx="562.0594" cy="1331.4" fill="#C2C2C2" rx="7.7" ry="7.7" style="stroke: #383838; stroke-width: 0.7;"/><path d="M563.4594,1328.95 Q563.6016,1328.6 563.7656,1328.425 Q563.9297,1328.25 564.1157,1328.25 Q564.4438,1328.25 564.6516,1328.4469 Q564.8594,1328.6438 564.8594,1329.1031 L564.8594,1330.1969 Q564.8594,1330.6563 564.6625,1330.8531 Q564.4657,1331.05 564.1594,1331.05 Q563.886,1331.05 563.711,1330.9297 Q563.536,1330.8094 563.4594,1330.4922 Q563.4266,1330.2734 563.3063,1330.1531 Q563.0875,1329.9234 562.6938,1329.7922 Q562.3,1329.65 561.9063,1329.65 Q561.4141,1329.65 560.9985,1329.8469 Q560.5938,1330.0437 560.2766,1330.4812 Q559.9594,1330.9187 559.9594,1331.5203 L559.9594,1332.1656 Q559.9594,1332.8875 560.55,1333.3687 Q561.1406,1333.85 562.1907,1333.85 Q562.8141,1333.85 563.2516,1333.7078 Q563.5032,1333.6313 563.7875,1333.3797 Q563.9735,1333.2375 564.0719,1333.1938 Q564.1703,1333.15 564.2906,1333.15 Q564.5203,1333.15 564.6844,1333.3359 Q564.8594,1333.5109 564.8594,1333.7625 Q564.8594,1334.0031 564.6188,1334.2875 Q564.2688,1334.7031 563.711,1334.9328 Q562.9781,1335.25 562.0813,1335.25 Q561.0313,1335.25 560.1891,1334.8344 Q559.511,1334.5063 559.0297,1333.7953 Q558.5594,1333.0844 558.5594,1332.2422 L558.5594,1331.4766 Q558.5594,1330.6016 558.975,1329.8359 Q559.4016,1329.0703 560.1344,1328.6656 Q560.8782,1328.25 561.7094,1328.25 Q562.2125,1328.25 562.65,1328.425 Q563.0875,1328.6 563.4594,1328.95 Z "/><text fill="#000000" font-family="sans-serif" font-size="10.5" lengthAdjust="spacingAndGlyphs" textLength="97.3" x="576.4094" y="1335.6964">ChannelClientHTTPS</text><line style="stroke: #383838; stroke-width: 1.0499999999999998;" x1="361.6844" x2="865.6844" y1="1342.6" y2="1342.6"/><line style="stroke: #383838; stroke-width: 1.0499999999999998;" x1="361.6844" x2="865.6844" y1="1348.2" y2="1348.2"/><text fill="#000000" font-family="sans-serif" font-size="7.7" lengthAdjust="spacingAndGlyphs" textLength="497" x="365.1844" y="1358.9933">ChannelClientHTTPS(host: String, port: int, keyStoreFile: String, keyStorePassword:string, keyPassword: String, ciphers: String[], protocols: String[])</text><!--MD5=[19e87e402b8686ac5eae5f23509d75c8]
class ChannelServerSocket--><rect fill="#F8F8F8" filter="url(#frujbzhuis9jg)" height="43.2852" id="ChannelServerSocket" style="stroke: #383838; stroke-width: 1.0499999999999998;" width="121.8" x="552.7844" y="1388.1"/><ellipse cx="563.2844" cy="1399.3" fill="#C2C2C2" rx="7.7" ry="7.7" style="stroke: #383838; stroke-width: 0.7;"/><path d="M564.6844,1396.85 Q564.8266,1396.5 564.9907,1396.325 Q565.1547,1396.15 565.3407,1396.15 Q565.6688,1396.15 565.8766,1396.3469 Q566.0844,1396.5437 566.0844,1397.0031 L566.0844,1398.0969 Q566.0844,1398.5562 565.8875,1398.7531 Q565.6907,1398.95 565.3844,1398.95 Q565.111,1398.95 564.936,1398.8297 Q564.761,1398.7094 564.6844,1398.3922 Q564.6516,1398.1734 564.5313,1398.0531 Q564.3125,1397.8234 563.9188,1397.6922 Q563.525,1397.55 563.1313,1397.55 Q562.6391,1397.55 562.2235,1397.7469 Q561.8188,1397.9438 561.5016,1398.3813 Q561.1844,1398.8188 561.1844,1399.4203 L561.1844,1400.0656 Q561.1844,1400.7875 561.775,1401.2688 Q562.3657,1401.75 563.4156,1401.75 Q564.0391,1401.75 564.4766,1401.6078 Q564.7281,1401.5313 565.0125,1401.2797 Q565.1985,1401.1375 565.2969,1401.0938 Q565.3953,1401.05 565.5156,1401.05 Q565.7453,1401.05 565.9094,1401.2359 Q566.0844,1401.4109 566.0844,1401.6625 Q566.0844,1401.9031 565.8438,1402.1875 Q565.4938,1402.6031 564.936,1402.8328 Q564.2031,1403.15 563.3063,1403.15 Q562.2563,1403.15 561.4141,1402.7344 Q560.736,1402.4063 560.2547,1401.6953 Q559.7844,1400.9844 559.7844,1400.1422 L559.7844,1399.3766 Q559.7844,1398.5016 560.2,1397.7359 Q560.6266,1396.9703 561.3594,1396.5656 Q562.1031,1396.15 562.9344,1396.15 Q563.4375,1396.15 563.875,1396.325 Q564.3125,1396.5 564.6844,1396.85 Z "/><text fill="#000000" font-family="sans-serif" font-size="10.5" lengthAdjust="spacingAndGlyphs" textLength="99.4" x="573.0844" y="1403.5964">ChannelServerSocket</text><line style="stroke: #383838; stroke-width: 1.0499999999999998;" x1="553.4844" x2="673.8844" y1="1410.5" y2="1410.5"/><line style="stroke: #383838; stroke-width: 1.0499999999999998;" x1="553.4844" x2="673.8844" y1="1416.1" y2="1416.1"/><text fill="#000000" font-family="sans-serif" font-size="7.7" lengthAdjust="spacingAndGlyphs" textLength="104.3" x="556.9844" y="1426.8933">ChannelServerSocket(port: int)</text><!--MD5=[8b44300d6786a2950112d1635bc6ceb9]
class ChannelServerSocketSSL--><rect fill="#F8F8F8" filter="url(#frujbzhuis9jg)" height="43.2852" id="ChannelServerSocketSSL" style="stroke: #383838; stroke-width: 1.0499999999999998;" width="482.3" x="372.5344" y="1456"/><ellipse cx="551.2094" cy="1467.2" fill="#C2C2C2" rx="7.7" ry="7.7" style="stroke: #383838; stroke-width: 0.7;"/><path d="M552.6094,1464.75 Q552.7516,1464.4 552.9156,1464.225 Q553.0797,1464.05 553.2656,1464.05 Q553.5938,1464.05 553.8016,1464.2469 Q554.0094,1464.4438 554.0094,1464.9031 L554.0094,1465.9969 Q554.0094,1466.4563 553.8125,1466.6531 Q553.6157,1466.85 553.3094,1466.85 Q553.036,1466.85 552.861,1466.7297 Q552.686,1466.6094 552.6094,1466.2922 Q552.5766,1466.0734 552.4563,1465.9531 Q552.2375,1465.7234 551.8438,1465.5922 Q551.45,1465.45 551.0563,1465.45 Q550.5641,1465.45 550.1485,1465.6469 Q549.7438,1465.8438 549.4266,1466.2813 Q549.1094,1466.7188 549.1094,1467.3203 L549.1094,1467.9656 Q549.1094,1468.6875 549.7,1469.1687 Q550.2906,1469.65 551.3407,1469.65 Q551.9641,1469.65 552.4016,1469.5078 Q552.6532,1469.4312 552.9375,1469.1797 Q553.1235,1469.0375 553.2219,1468.9937 Q553.3203,1468.95 553.4407,1468.95 Q553.6703,1468.95 553.8344,1469.1359 Q554.0094,1469.3109 554.0094,1469.5625 Q554.0094,1469.8031 553.7688,1470.0875 Q553.4188,1470.5031 552.861,1470.7328 Q552.1282,1471.05 551.2313,1471.05 Q550.1813,1471.05 549.3391,1470.6344 Q548.661,1470.3062 548.1797,1469.5953 Q547.7094,1468.8844 547.7094,1468.0422 L547.7094,1467.2766 Q547.7094,1466.4016 548.125,1465.6359 Q548.5516,1464.8703 549.2844,1464.4656 Q550.0282,1464.05 550.8594,1464.05 Q551.3625,1464.05 551.8,1464.225 Q552.2375,1464.4 552.6094,1464.75 Z "/><text fill="#000000" font-family="sans-serif" font-size="10.5" lengthAdjust="spacingAndGlyphs" textLength="119" x="565.5594" y="1471.4964">ChannelServerSocketSSL</text><line style="stroke: #383838; stroke-width: 1.0499999999999998;" x1="373.2344" x2="854.1344" y1="1478.4" y2="1478.4"/><line style="stroke: #383838; stroke-width: 1.0499999999999998;" x1="373.2344" x2="854.1344" y1="1484" y2="1484"/><text fill="#000000" font-family="sans-serif" font-size="7.7" lengthAdjust="spacingAndGlyphs" textLength="473.9" x="376.7344" y="1494.7933">ChannelServerSocketSSL(port: int, keyStoreFile: String, keyStorePassword:string, keyPassword: String, ciphers: String[], protocols: String[])</text><!--MD5=[c8a2d7aa141dcaf3a3e411f0d74a2087]
class ChannelServerHTTP--><rect fill="#F8F8F8" filter="url(#frujbzhuis9jg)" height="43.2852" id="ChannelServerHTTP" style="stroke: #383838; stroke-width: 1.0499999999999998;" width="116.9" x="555.2344" y="1523.9"/><ellipse cx="565.7344" cy="1535.1" fill="#C2C2C2" rx="7.7" ry="7.7" style="stroke: #383838; stroke-width: 0.7;"/><path d="M567.1344,1532.65 Q567.2766,1532.3 567.4407,1532.125 Q567.6047,1531.95 567.7906,1531.95 Q568.1188,1531.95 568.3266,1532.1469 Q568.5344,1532.3438 568.5344,1532.8031 L568.5344,1533.8969 Q568.5344,1534.3562 568.3375,1534.5531 Q568.1406,1534.75 567.8344,1534.75 Q567.561,1534.75 567.386,1534.6297 Q567.211,1534.5094 567.1344,1534.1922 Q567.1016,1533.9734 566.9813,1533.8531 Q566.7625,1533.6234 566.3688,1533.4922 Q565.975,1533.35 565.5813,1533.35 Q565.0891,1533.35 564.6735,1533.5469 Q564.2688,1533.7437 563.9516,1534.1812 Q563.6344,1534.6187 563.6344,1535.2203 L563.6344,1535.8656 Q563.6344,1536.5875 564.225,1537.0688 Q564.8157,1537.55 565.8657,1537.55 Q566.4891,1537.55 566.9266,1537.4078 Q567.1782,1537.3313 567.4625,1537.0797 Q567.6485,1536.9375 567.7469,1536.8938 Q567.8453,1536.85 567.9657,1536.85 Q568.1953,1536.85 568.3594,1537.0359 Q568.5344,1537.2109 568.5344,1537.4625 Q568.5344,1537.7031 568.2938,1537.9875 Q567.9438,1538.4031 567.386,1538.6328 Q566.6532,1538.95 565.7563,1538.95 Q564.7063,1538.95 563.8641,1538.5344 Q563.186,1538.2063 562.7047,1537.4953 Q562.2344,1536.7844 562.2344,1535.9422 L562.2344,1535.1766 Q562.2344,1534.3016 562.65,1533.5359 Q563.0766,1532.7703 563.8094,1532.3656 Q564.5532,1531.95 565.3844,1531.95 Q565.8875,1531.95 566.325,1532.125 Q566.7625,1532.3 567.1344,1532.65 Z "/><text fill="#000000" font-family="sans-serif" font-size="10.5" lengthAdjust="spacingAndGlyphs" textLength="94.5" x="575.5344" y="1539.3964">ChannelServerHTTP</text><line style="stroke: #383838; stroke-width: 1.0499999999999998;" x1="555.9344" x2="671.4344" y1="1546.3" y2="1546.3"/><line style="stroke: #383838; stroke-width: 1.0499999999999998;" x1="555.9344" x2="671.4344" y1="1551.9" y2="1551.9"/><text fill="#000000" font-family="sans-serif" font-size="7.7" lengthAdjust="spacingAndGlyphs" textLength="98.7" x="559.4344" y="1562.6933">ChannelServerHTTP(port: int)</text><!--MD5=[e1cbc60e8bd05e5f411f8a49398a1099]
class ChannelServerHTTPS--><rect fill="#F8F8F8" filter="url(#frujbzhuis9jg)" height="43.2852" id="ChannelServerHTTPS" style="stroke: #383838; stroke-width: 1.0499999999999998;" width="467.6" x="379.8844" y="1591.8"/><ellipse cx="559.9594" cy="1603" fill="#C2C2C2" rx="7.7" ry="7.7" style="stroke: #383838; stroke-width: 0.7;"/><path d="M561.3594,1600.55 Q561.5016,1600.2 561.6656,1600.025 Q561.8297,1599.85 562.0156,1599.85 Q562.3438,1599.85 562.5516,1600.0469 Q562.7594,1600.2437 562.7594,1600.7031 L562.7594,1601.7969 Q562.7594,1602.2563 562.5625,1602.4531 Q562.3657,1602.65 562.0594,1602.65 Q561.786,1602.65 561.611,1602.5297 Q561.436,1602.4094 561.3594,1602.0922 Q561.3266,1601.8734 561.2063,1601.7531 Q560.9875,1601.5234 560.5938,1601.3922 Q560.2,1601.25 559.8063,1601.25 Q559.3141,1601.25 558.8985,1601.4469 Q558.4938,1601.6438 558.1766,1602.0813 Q557.8594,1602.5188 557.8594,1603.1203 L557.8594,1603.7656 Q557.8594,1604.4875 558.45,1604.9688 Q559.0406,1605.45 560.0907,1605.45 Q560.7141,1605.45 561.1516,1605.3078 Q561.4032,1605.2312 561.6875,1604.9797 Q561.8735,1604.8375 561.9719,1604.7937 Q562.0703,1604.75 562.1907,1604.75 Q562.4203,1604.75 562.5844,1604.9359 Q562.7594,1605.1109 562.7594,1605.3625 Q562.7594,1605.6031 562.5188,1605.8875 Q562.1688,1606.3031 561.611,1606.5328 Q560.8782,1606.85 559.9813,1606.85 Q558.9313,1606.85 558.0891,1606.4344 Q557.411,1606.1062 556.9297,1605.3953 Q556.4594,1604.6844 556.4594,1603.8422 L556.4594,1603.0766 Q556.4594,1602.2016 556.875,1601.4359 Q557.3016,1600.6703 558.0344,1600.2656 Q558.7782,1599.85 559.6094,1599.85 Q560.1125,1599.85 560.55,1600.025 Q560.9875,1600.2 561.3594,1600.55 Z "/><text fill="#000000" font-family="sans-serif" font-size="10.5" lengthAdjust="spacingAndGlyphs" textLength="101.5" x="574.3094" y="1607.2964">ChannelServerHTTPS</text><line style="stroke: #383838; stroke-width: 1.0499999999999998;" x1="380.5844" x2="846.7844" y1="1614.2" y2="1614.2"/><line style="stroke: #383838; stroke-width: 1.0499999999999998;" x1="380.5844" x2="846.7844" y1="1619.8" y2="1619.8"/><text fill="#000000" font-family="sans-serif" font-size="7.7" lengthAdjust="spacingAndGlyphs" textLength="459.2" x="384.0844" y="1630.5933">ChannelServerHTTPS(port: int, keyStoreFile: String, keyStorePassword:string, keyPassword: String, ciphers: String[], protocols: String[])</text><!--MD5=[ab5f6942c4d23d3792f05215787c649c]
class ChannelComPort--><rect fill="#F8F8F8" filter="url(#frujbzhuis9jg)" height="43.2852" id="ChannelComPort" style="stroke: #383838; stroke-width: 1.0499999999999998;" width="319.9" x="453.7344" y="1659.7"/><ellipse cx="571.1594" cy="1670.9" fill="#C2C2C2" rx="7.7" ry="7.7" style="stroke: #383838; stroke-width: 0.7;"/><path d="M572.5594,1668.45 Q572.7016,1668.1 572.8657,1667.925 Q573.0297,1667.75 573.2157,1667.75 Q573.5438,1667.75 573.7516,1667.9469 Q573.9594,1668.1438 573.9594,1668.6031 L573.9594,1669.6969 Q573.9594,1670.1563 573.7625,1670.3531 Q573.5657,1670.55 573.2594,1670.55 Q572.986,1670.55 572.811,1670.4297 Q572.636,1670.3094 572.5594,1669.9922 Q572.5266,1669.7734 572.4063,1669.6531 Q572.1875,1669.4234 571.7938,1669.2922 Q571.4,1669.15 571.0063,1669.15 Q570.5141,1669.15 570.0985,1669.3469 Q569.6938,1669.5437 569.3766,1669.9812 Q569.0594,1670.4187 569.0594,1671.0203 L569.0594,1671.6656 Q569.0594,1672.3875 569.65,1672.8687 Q570.2407,1673.35 571.2906,1673.35 Q571.9141,1673.35 572.3516,1673.2078 Q572.6031,1673.1313 572.8875,1672.8797 Q573.0735,1672.7375 573.1719,1672.6938 Q573.2703,1672.65 573.3906,1672.65 Q573.6203,1672.65 573.7844,1672.8359 Q573.9594,1673.0109 573.9594,1673.2625 Q573.9594,1673.5031 573.7188,1673.7875 Q573.3688,1674.2031 572.811,1674.4328 Q572.0781,1674.75 571.1813,1674.75 Q570.1313,1674.75 569.2891,1674.3344 Q568.611,1674.0063 568.1297,1673.2953 Q567.6594,1672.5844 567.6594,1671.7422 L567.6594,1670.9766 Q567.6594,1670.1016 568.075,1669.3359 Q568.5016,1668.5703 569.2344,1668.1656 Q569.9781,1667.75 570.8094,1667.75 Q571.3125,1667.75 571.75,1667.925 Q572.1875,1668.1 572.5594,1668.45 Z "/><text fill="#000000" font-family="sans-serif" font-size="10.5" lengthAdjust="spacingAndGlyphs" textLength="79.1" x="585.5094" y="1675.1964">ChannelComPort</text><line style="stroke: #383838; stroke-width: 1.0499999999999998;" x1="454.4344" x2="772.9344" y1="1682.1" y2="1682.1"/><line style="stroke: #383838; stroke-width: 1.0499999999999998;" x1="454.4344" x2="772.9344" y1="1687.7" y2="1687.7"/><text fill="#000000" font-family="sans-serif" font-size="7.7" lengthAdjust="spacingAndGlyphs" textLength="311.5" x="457.9344" y="1698.4933">ChannelComPort(comPort: String, baudRate: int, dataBits: int, parity, stopBits: int, handshake)</text><!--MD5=[2e0d9646314dabf809b44bac6ec781f6]
class IRequestFactory--><rect fill="#F8F8F8" filter="url(#frujbzhuis9jg)" height="43.2852" id="IRequestFactory" style="stroke: #383838; stroke-width: 1.0499999999999998;" width="275.8" x="19.3844" y="429.1"/><ellipse cx="116.1594" cy="440.3" fill="#B1B1B1" rx="7.7" ry="7.7" style="stroke: #383838; stroke-width: 0.7;"/><path d="M116.8594,438.2 L116.8594,442.4 L118.2594,442.4 L118.5985,442.4 L118.9594,442.8375 L118.9594,443.1 L118.9594,443.3625 L118.5985,443.8 L118.2594,443.8 L114.0594,443.8 L113.7203,443.8 L113.3594,443.3625 L113.3594,443.1 L113.3594,442.8375 L113.7203,442.4 L114.0594,442.4 L115.4594,442.4 L115.4594,438.2 L114.0594,438.2 L113.7203,438.2 L113.3594,437.7625 L113.3594,437.5 L113.3594,437.2375 L113.7203,436.8 L114.0594,436.8 L118.2594,436.8 L118.5985,436.8 L118.9594,437.2375 L118.9594,437.5 L118.9594,437.7625 L118.5985,438.2 L118.2594,438.2 L116.8594,438.2 Z "/><text fill="#000000" font-family="sans-serif" font-size="10.5" font-style="italic" lengthAdjust="spacingAndGlyphs" textLength="76.3" x="130.5094" y="444.5964">IRequestFactory</text><line style="stroke: #383838; stroke-width: 1.0499999999999998;" x1="20.0844" x2="294.4844" y1="451.5" y2="451.5"/><line style="stroke: #383838; stroke-width: 1.0499999999999998;" x1="20.0844" x2="294.4844" y1="457.1" y2="457.1"/><text fill="#000000" font-family="sans-serif" font-size="7.7" lengthAdjust="spacingAndGlyphs" textLength="267.4" x="23.5844" y="467.8933">createRequest(type: RequestType, options: HashMap&lt;String, String&gt;): Request</text><!--MD5=[e2d8700bfe79070c43730c7948d6f236]
class RequestType--><rect fill="#F8F8F8" filter="url(#frujbzhuis9jg)" height="72.3406" id="RequestType" style="stroke: #383838; stroke-width: 1.0499999999999998;" width="210.7" x="51.9344" y="262.85"/><ellipse cx="123.5094" cy="274.05" fill="#B1B1B1" rx="7.7" ry="7.7" style="stroke: #383838; stroke-width: 0.7;"/><path d="M124.2094,271.95 L124.2094,276.15 L125.6094,276.15 L125.9485,276.15 L126.3094,276.5875 L126.3094,276.85 L126.3094,277.1125 L125.9485,277.55 L125.6094,277.55 L121.4094,277.55 L121.0703,277.55 L120.7094,277.1125 L120.7094,276.85 L120.7094,276.5875 L121.0703,276.15 L121.4094,276.15 L122.8094,276.15 L122.8094,271.95 L121.4094,271.95 L121.0703,271.95 L120.7094,271.5125 L120.7094,271.25 L120.7094,270.9875 L121.0703,270.55 L121.4094,270.55 L125.6094,270.55 L125.9485,270.55 L126.3094,270.9875 L126.3094,271.25 L126.3094,271.5125 L125.9485,271.95 L125.6094,271.95 L124.2094,271.95 Z "/><text fill="#000000" font-family="sans-serif" font-size="10.5" font-style="italic" lengthAdjust="spacingAndGlyphs" textLength="61.6" x="137.8594" y="278.3464">RequestType</text><line style="stroke: #383838; stroke-width: 1.0499999999999998;" x1="52.6344" x2="261.9344" y1="285.25" y2="285.25"/><line style="stroke: #383838; stroke-width: 1.0499999999999998;" x1="52.6344" x2="261.9344" y1="290.85" y2="290.85"/><text fill="#000000" font-family="sans-serif" font-size="7.7" lengthAdjust="spacingAndGlyphs" textLength="56.7" x="56.1344" y="301.6433">getType(): String</text><text fill="#000000" font-family="sans-serif" font-size="7.7" lengthAdjust="spacingAndGlyphs" textLength="70" x="56.1344" y="311.3284">getExtraTag(): String</text><text fill="#000000" font-family="sans-serif" font-size="7.7" lengthAdjust="spacingAndGlyphs" textLength="74.2" x="56.1344" y="321.0136">getExtraType(): String</text><text fill="#000000" font-family="sans-serif" font-size="7.7" lengthAdjust="spacingAndGlyphs" textLength="202.3" x="56.1344" y="330.6987">getValidator(): Function&lt;HashMap&lt;String, String&gt;, Boolean&gt;</text><!--MD5=[526954816599f3d695370377adbdbeff]
class AuthType--><rect fill="#F8F8F8" filter="url(#frujbzhuis9jg)" height="72.3406" id="AuthType" style="stroke: #383838; stroke-width: 1.0499999999999998;" width="88.2" x="569.5844" y="364.35"/><ellipse cx="590.4794" cy="375.55" fill="#ABABAB" rx="7.7" ry="7.7" style="stroke: #383838; stroke-width: 0.7;"/><path d="M589.4294,376.25 L589.4294,377.65 L592.2294,377.65 L592.2294,376.95 L592.2294,376.6109 L592.6669,376.25 L592.9294,376.25 L593.1919,376.25 L593.6294,376.6109 L593.6294,376.95 L593.6294,379.05 L588.0294,379.05 L587.6903,379.05 L587.3294,378.6125 L587.3294,378.35 L587.3294,378.0875 L587.6903,377.65 L588.0294,377.65 L588.0294,377.65 L588.0294,373.45 L588.0294,373.45 L587.6903,373.45 L587.3294,373.0125 L587.3294,372.75 L587.3294,372.4875 L587.6903,372.05 L588.0294,372.05 L593.6294,372.05 L593.6294,374.15 L593.6294,374.4891 L593.1919,374.85 L592.9294,374.85 L592.6669,374.85 L592.2294,374.4891 L592.2294,374.15 L592.2294,373.45 L589.4294,373.45 L589.4294,374.85 L590.1294,374.85 L590.1294,374.5109 L590.1294,374.5109 L590.5669,374.15 L590.8294,374.15 L591.0919,374.15 L591.5294,374.5109 L591.5294,374.85 L591.5294,376.25 L591.5294,376.5891 L591.0919,376.95 L591.0919,376.95 L590.8294,376.95 L590.5669,376.95 L590.1294,376.5891 L590.1294,376.5891 L590.1294,376.25 L589.4294,376.25 Z "/><text fill="#000000" font-family="sans-serif" font-size="10.5" lengthAdjust="spacingAndGlyphs" textLength="42.7" x="602.5894" y="379.8464">AuthType</text><line style="stroke: #383838; stroke-width: 1.0499999999999998;" x1="570.2844" x2="657.0844" y1="386.75" y2="386.75"/><text fill="#000000" font-family="sans-serif" font-size="7.7" lengthAdjust="spacingAndGlyphs" textLength="37.1" x="573.7844" y="397.5433">PRE_AUTH</text><text fill="#000000" font-family="sans-serif" font-size="7.7" lengthAdjust="spacingAndGlyphs" textLength="27.3" x="573.7844" y="407.2284">TOP_UP</text><text fill="#000000" font-family="sans-serif" font-size="7.7" lengthAdjust="spacingAndGlyphs" textLength="79.8" x="573.7844" y="416.9136">PRE_AUTH_REVERSAL</text><text fill="#000000" font-family="sans-serif" font-size="7.7" lengthAdjust="spacingAndGlyphs" textLength="70" x="573.7844" y="426.5987">TOP_UP_REVERSAL</text><line style="stroke: #383838; stroke-width: 1.0499999999999998;" x1="570.2844" x2="657.0844" y1="431.0906" y2="431.0906"/><!--MD5=[28ab5c138db1c94061251be16e4b3829]
class SettlementType--><rect fill="#F8F8F8" filter="url(#frujbzhuis9jg)" height="91.7109" id="SettlementType" style="stroke: #383838; stroke-width: 1.0499999999999998;" width="95.9" x="565.7344" y="460.95"/><ellipse cx="577.1794" cy="472.15" fill="#ABABAB" rx="7.7" ry="7.7" style="stroke: #383838; stroke-width: 0.7;"/><path d="M576.1294,472.85 L576.1294,474.25 L578.9294,474.25 L578.9294,473.55 L578.9294,473.2109 L579.3669,472.85 L579.6294,472.85 L579.8919,472.85 L580.3294,473.2109 L580.3294,473.55 L580.3294,475.65 L574.7294,475.65 L574.3903,475.65 L574.0294,475.2125 L574.0294,474.95 L574.0294,474.6875 L574.3903,474.25 L574.7294,474.25 L574.7294,474.25 L574.7294,470.05 L574.7294,470.05 L574.3903,470.05 L574.0294,469.6125 L574.0294,469.35 L574.0294,469.0875 L574.3903,468.65 L574.7294,468.65 L580.3294,468.65 L580.3294,470.75 L580.3294,471.0891 L579.8919,471.45 L579.6294,471.45 L579.3669,471.45 L578.9294,471.0891 L578.9294,470.75 L578.9294,470.05 L576.1294,470.05 L576.1294,471.45 L576.8294,471.45 L576.8294,471.1109 L576.8294,471.1109 L577.2669,470.75 L577.5294,470.75 L577.7919,470.75 L578.2294,471.1109 L578.2294,471.45 L578.2294,472.85 L578.2294,473.1891 L577.7919,473.55 L577.7919,473.55 L577.5294,473.55 L577.2669,473.55 L576.8294,473.1891 L576.8294,473.1891 L576.8294,472.85 L576.1294,472.85 Z "/><text fill="#000000" font-family="sans-serif" font-size="10.5" lengthAdjust="spacingAndGlyphs" textLength="71.4" x="587.1894" y="476.4464">SettlementType</text><line style="stroke: #383838; stroke-width: 1.0499999999999998;" x1="566.4344" x2="660.9344" y1="483.35" y2="483.35"/><text fill="#000000" font-family="sans-serif" font-size="7.7" lengthAdjust="spacingAndGlyphs" textLength="18.9" x="569.9344" y="494.1433">SALE</text><text fill="#000000" font-family="sans-serif" font-size="7.7" lengthAdjust="spacingAndGlyphs" textLength="28" x="569.9344" y="503.8284">REFUND</text><text fill="#000000" font-family="sans-serif" font-size="7.7" lengthAdjust="spacingAndGlyphs" textLength="44.8" x="569.9344" y="513.5136">COMPLETION</text><text fill="#000000" font-family="sans-serif" font-size="7.7" lengthAdjust="spacingAndGlyphs" textLength="61.6" x="569.9344" y="523.1987">SALE_REVERSAL</text><text fill="#000000" font-family="sans-serif" font-size="7.7" lengthAdjust="spacingAndGlyphs" textLength="70.7" x="569.9344" y="532.8839">REFUND_REVERSAL</text><text fill="#000000" font-family="sans-serif" font-size="7.7" lengthAdjust="spacingAndGlyphs" textLength="87.5" x="569.9344" y="542.569">COMPLETION_REVERSAL</text><line style="stroke: #383838; stroke-width: 1.0499999999999998;" x1="566.4344" x2="660.9344" y1="547.0609" y2="547.0609"/><!--MD5=[d16c9d3e6bca5baa0e0741a83ab0ddc0]
class CardType--><rect fill="#F8F8F8" filter="url(#frujbzhuis9jg)" height="62.6555" id="CardType" style="stroke: #383838; stroke-width: 1.0499999999999998;" width="96.6" x="565.3844" y="5.6"/><ellipse cx="589.1144" cy="16.8" fill="#ABABAB" rx="7.7" ry="7.7" style="stroke: #383838; stroke-width: 0.7;"/><path d="M588.0644,17.5 L588.0644,18.9 L590.8644,18.9 L590.8644,18.2 L590.8644,17.8609 L591.3019,17.5 L591.5644,17.5 L591.8269,17.5 L592.2644,17.8609 L592.2644,18.2 L592.2644,20.3 L586.6644,20.3 L586.3253,20.3 L585.9644,19.8625 L585.9644,19.6 L585.9644,19.3375 L586.3253,18.9 L586.6644,18.9 L586.6644,18.9 L586.6644,14.7 L586.6644,14.7 L586.3253,14.7 L585.9644,14.2625 L585.9644,14 L585.9644,13.7375 L586.3253,13.3 L586.6644,13.3 L592.2644,13.3 L592.2644,15.4 L592.2644,15.7391 L591.8269,16.1 L591.5644,16.1 L591.3019,16.1 L590.8644,15.7391 L590.8644,15.4 L590.8644,14.7 L588.0644,14.7 L588.0644,16.1 L588.7644,16.1 L588.7644,15.7609 L588.7644,15.7609 L589.2019,15.4 L589.4644,15.4 L589.7269,15.4 L590.1644,15.7609 L590.1644,16.1 L590.1644,17.5 L590.1644,17.8391 L589.7269,18.2 L589.7269,18.2 L589.4644,18.2 L589.2019,18.2 L588.7644,17.8391 L588.7644,17.8391 L588.7644,17.5 L588.0644,17.5 Z "/><text fill="#000000" font-family="sans-serif" font-size="10.5" lengthAdjust="spacingAndGlyphs" textLength="44.8" x="601.8544" y="21.0964">CardType</text><line style="stroke: #383838; stroke-width: 1.0499999999999998;" x1="566.0844" x2="661.2844" y1="28" y2="28"/><text fill="#000000" font-family="sans-serif" font-size="7.7" lengthAdjust="spacingAndGlyphs" textLength="48.3" x="569.5844" y="38.7933">CARD_CHECK</text><text fill="#000000" font-family="sans-serif" font-size="7.7" lengthAdjust="spacingAndGlyphs" textLength="88.2" x="569.5844" y="48.4784">CARD_CHECK_VALIDATE</text><text fill="#000000" font-family="sans-serif" font-size="7.7" lengthAdjust="spacingAndGlyphs" textLength="82.6" x="569.5844" y="58.1636">CARD_CHECK_REMOVE</text><line style="stroke: #383838; stroke-width: 1.0499999999999998;" x1="566.0844" x2="661.2844" y1="62.6555" y2="62.6555"/><!--MD5=[77f04b9591d8b7ea4b2246cd26a54dd8]
class TerminalStatusType--><rect fill="#F8F8F8" filter="url(#frujbzhuis9jg)" height="43.2852" id="TerminalStatusType" style="stroke: #383838; stroke-width: 1.0499999999999998;" width="114.1" x="556.6344" y="93.1"/><ellipse cx="567.1344" cy="104.3" fill="#ABABAB" rx="7.7" ry="7.7" style="stroke: #383838; stroke-width: 0.7;"/><path d="M566.0844,105 L566.0844,106.4 L568.8844,106.4 L568.8844,105.7 L568.8844,105.3609 L569.3219,105 L569.5844,105 L569.8469,105 L570.2844,105.3609 L570.2844,105.7 L570.2844,107.8 L564.6844,107.8 L564.3453,107.8 L563.9844,107.3625 L563.9844,107.1 L563.9844,106.8375 L564.3453,106.4 L564.6844,106.4 L564.6844,106.4 L564.6844,102.2 L564.6844,102.2 L564.3453,102.2 L563.9844,101.7625 L563.9844,101.5 L563.9844,101.2375 L564.3453,100.8 L564.6844,100.8 L570.2844,100.8 L570.2844,102.9 L570.2844,103.2391 L569.8469,103.6 L569.5844,103.6 L569.3219,103.6 L568.8844,103.2391 L568.8844,102.9 L568.8844,102.2 L566.0844,102.2 L566.0844,103.6 L566.7844,103.6 L566.7844,103.2609 L566.7844,103.2609 L567.2219,102.9 L567.4844,102.9 L567.7469,102.9 L568.1844,103.2609 L568.1844,103.6 L568.1844,105 L568.1844,105.3391 L567.7469,105.7 L567.7469,105.7 L567.4844,105.7 L567.2219,105.7 L566.7844,105.3391 L566.7844,105.3391 L566.7844,105 L566.0844,105 Z "/><text fill="#000000" font-family="sans-serif" font-size="10.5" lengthAdjust="spacingAndGlyphs" textLength="91.7" x="576.9344" y="108.5964">TerminalStatusType</text><line style="stroke: #383838; stroke-width: 1.0499999999999998;" x1="557.3344" x2="670.0344" y1="115.5" y2="115.5"/><text fill="#000000" font-family="sans-serif" font-size="7.7" lengthAdjust="spacingAndGlyphs" textLength="16.1" x="560.8344" y="126.2933">INFO</text><line style="stroke: #383838; stroke-width: 1.0499999999999998;" x1="557.3344" x2="670.0344" y1="130.7852" y2="130.7852"/><!--MD5=[17adc9c1a3dd9ad5399658df59dbd6bf]
class TerminalControlType--><rect fill="#F8F8F8" filter="url(#frujbzhuis9jg)" height="72.3406" id="TerminalControlType" style="stroke: #383838; stroke-width: 1.0499999999999998;" width="117.6" x="554.8844" y="161.35"/><ellipse cx="565.3844" cy="172.55" fill="#ABABAB" rx="7.7" ry="7.7" style="stroke: #383838; stroke-width: 0.7;"/><path d="M564.3344,173.25 L564.3344,174.65 L567.1344,174.65 L567.1344,173.95 L567.1344,173.6109 L567.5719,173.25 L567.8344,173.25 L568.0969,173.25 L568.5344,173.6109 L568.5344,173.95 L568.5344,176.05 L562.9344,176.05 L562.5953,176.05 L562.2344,175.6125 L562.2344,175.35 L562.2344,175.0875 L562.5953,174.65 L562.9344,174.65 L562.9344,174.65 L562.9344,170.45 L562.9344,170.45 L562.5953,170.45 L562.2344,170.0125 L562.2344,169.75 L562.2344,169.4875 L562.5953,169.05 L562.9344,169.05 L568.5344,169.05 L568.5344,171.15 L568.5344,171.4891 L568.0969,171.85 L567.8344,171.85 L567.5719,171.85 L567.1344,171.4891 L567.1344,171.15 L567.1344,170.45 L564.3344,170.45 L564.3344,171.85 L565.0344,171.85 L565.0344,171.5109 L565.0344,171.5109 L565.4719,171.15 L565.7344,171.15 L565.9969,171.15 L566.4344,171.5109 L566.4344,171.85 L566.4344,173.25 L566.4344,173.5891 L565.9969,173.95 L565.9969,173.95 L565.7344,173.95 L565.4719,173.95 L565.0344,173.5891 L565.0344,173.5891 L565.0344,173.25 L564.3344,173.25 Z "/><text fill="#000000" font-family="sans-serif" font-size="10.5" lengthAdjust="spacingAndGlyphs" textLength="95.2" x="575.1844" y="176.8464">TerminalControlType</text><line style="stroke: #383838; stroke-width: 1.0499999999999998;" x1="555.5844" x2="671.7844" y1="183.75" y2="183.75"/><text fill="#000000" font-family="sans-serif" font-size="7.7" lengthAdjust="spacingAndGlyphs" textLength="74.9" x="559.0844" y="194.5433">TERMINAL_ACTIVATE</text><text fill="#000000" font-family="sans-serif" font-size="7.7" lengthAdjust="spacingAndGlyphs" textLength="84" x="559.0844" y="204.2284">TERMINAL_DEACTIVATE</text><text fill="#000000" font-family="sans-serif" font-size="7.7" lengthAdjust="spacingAndGlyphs" textLength="79.8" x="559.0844" y="213.9136">TERMINAL_LANGUAGE</text><text fill="#000000" font-family="sans-serif" font-size="7.7" lengthAdjust="spacingAndGlyphs" textLength="60.9" x="559.0844" y="223.5987">TERMINAL_SLEEP</text><line style="stroke: #383838; stroke-width: 1.0499999999999998;" x1="555.5844" x2="671.7844" y1="228.0906" y2="228.0906"/><!--MD5=[7bc237b495072ab44d828153a621e59e]
class OtherType--><rect fill="#F8F8F8" filter="url(#frujbzhuis9jg)" height="82.0258" id="OtherType" style="stroke: #383838; stroke-width: 1.0499999999999998;" width="79.1" x="574.1344" y="257.95"/><ellipse cx="588.4144" cy="269.15" fill="#ABABAB" rx="7.7" ry="7.7" style="stroke: #383838; stroke-width: 0.7;"/><path d="M587.3644,269.85 L587.3644,271.25 L590.1644,271.25 L590.1644,270.55 L590.1644,270.2109 L590.6019,269.85 L590.8644,269.85 L591.1269,269.85 L591.5644,270.2109 L591.5644,270.55 L591.5644,272.65 L585.9644,272.65 L585.6253,272.65 L585.2644,272.2125 L585.2644,271.95 L585.2644,271.6875 L585.6253,271.25 L585.9644,271.25 L585.9644,271.25 L585.9644,267.05 L585.9644,267.05 L585.6253,267.05 L585.2644,266.6125 L585.2644,266.35 L585.2644,266.0875 L585.6253,265.65 L585.9644,265.65 L591.5644,265.65 L591.5644,267.75 L591.5644,268.0891 L591.1269,268.45 L590.8644,268.45 L590.6019,268.45 L590.1644,268.0891 L590.1644,267.75 L590.1644,267.05 L587.3644,267.05 L587.3644,268.45 L588.0644,268.45 L588.0644,268.1109 L588.0644,268.1109 L588.5019,267.75 L588.7644,267.75 L589.0269,267.75 L589.4644,268.1109 L589.4644,268.45 L589.4644,269.85 L589.4644,270.1891 L589.0269,270.55 L589.0269,270.55 L588.7644,270.55 L588.5019,270.55 L588.0644,270.1891 L588.0644,270.1891 L588.0644,269.85 L587.3644,269.85 Z "/><text fill="#000000" font-family="sans-serif" font-size="10.5" lengthAdjust="spacingAndGlyphs" textLength="48.3" x="599.0544" y="273.4464">OtherType</text><line style="stroke: #383838; stroke-width: 1.0499999999999998;" x1="574.8344" x2="652.5344" y1="280.35" y2="280.35"/><text fill="#000000" font-family="sans-serif" font-size="7.7" lengthAdjust="spacingAndGlyphs" textLength="28.7" x="578.3344" y="291.1433">CANCEL</text><text fill="#000000" font-family="sans-serif" font-size="7.7" lengthAdjust="spacingAndGlyphs" textLength="56.7" x="578.3344" y="300.8284">CHECK_STATUS</text><text fill="#000000" font-family="sans-serif" font-size="7.7" lengthAdjust="spacingAndGlyphs" textLength="42.7" x="578.3344" y="310.5136">SHIFT_OPEN</text><text fill="#000000" font-family="sans-serif" font-size="7.7" lengthAdjust="spacingAndGlyphs" textLength="47.6" x="578.3344" y="320.1987">SHIFT_CLOSE</text><text fill="#000000" font-family="sans-serif" font-size="7.7" lengthAdjust="spacingAndGlyphs" textLength="70.7" x="578.3344" y="329.8839">SHIFT_CLOSE_OPEN</text><line style="stroke: #383838; stroke-width: 1.0499999999999998;" x1="574.8344" x2="652.5344" y1="334.3758" y2="334.3758"/><!--MD5=[ef372120876fd647d3eec7bd781ac861]
reverse link Integra to IStatusUpdateHandler--><path d="M272.7011,804.251 C357.8008,815.115 471.0853,829.584 543.0432,838.768 " fill="none" id="Integra&lt;-IStatusUpdateHandler" style="stroke: #383838; stroke-width: 0.7;"/><polygon fill="#383838" points="263.5143,803.075,267.3262,806.384,271.8468,804.138,268.0349,800.829,263.5143,803.075" style="stroke: #383838; stroke-width: 0.7;"/><!--MD5=[432fdad11fc76986007088e445fd2f57]
link Integra to IResponseHandler--><path d="M228.4317,762.93 C266.3948,749.455 314.3245,733.873 358.1844,723.8 C421.1662,709.338 494.403,700.266 546.1526,695.107 " fill="none" id="Integra-&gt;IResponseHandler" style="stroke: #383838; stroke-width: 0.7; stroke-dasharray: 7.0,7.0;"/><polygon fill="#383838" points="549.8409,694.743,543.2966,692.5745,546.3578,695.0863,543.8459,698.1475,549.8409,694.743" style="stroke: #383838; stroke-width: 0.7;"/><text fill="#000000" font-family="sans-serif" font-size="9.1" lengthAdjust="spacingAndGlyphs" textLength="19.6" x="316.8844" y="726.2466">uses</text><!--MD5=[22c86e60f8974a57931755b22a8060e3]
reverse link Request to Integra--><path d="M157.2844,671.608 C157.2844,697.319 157.2844,736.834 157.2844,762.944 " fill="none" id="Request&lt;-Integra" style="stroke: #383838; stroke-width: 0.7; stroke-dasharray: 7.0,7.0;"/><polygon fill="#383838" points="157.2844,667.919,154.4844,674.219,157.2844,671.419,160.0844,674.219,157.2844,667.919" style="stroke: #383838; stroke-width: 0.7;"/><text fill="#000000" font-family="sans-serif" font-size="9.1" lengthAdjust="spacingAndGlyphs" textLength="19.6" x="139.0844" y="719.2466">uses</text><!--MD5=[c780fb2aaa331039b142d93ed7d35a01]
reverse link Integra to CommunicationContext--><path d="M157.2844,825.741 C157.2844,864.528 157.2844,903.322 157.2844,942.109 " fill="none" id="Integra&lt;-CommunicationContext" style="stroke: #383838; stroke-width: 0.7;"/><polygon fill="#383838" points="157.2844,816.41,154.4844,820.61,157.2844,824.81,160.0844,820.61,157.2844,816.41" style="stroke: #383838; stroke-width: 0.7;"/><!--MD5=[2704b3dd620acf3950a8d23311e89338]
reverse link Response to IResponseHandler--><path d="M613.6844,634.396 C613.6844,645.4 613.6844,657.608 613.6844,667.73 " fill="none" id="Response&lt;-IResponseHandler" style="stroke: #383838; stroke-width: 0.7; stroke-dasharray: 7.0,7.0;"/><polygon fill="#383838" points="613.6844,630.714,610.8844,637.014,613.6844,634.214,616.4844,637.014,613.6844,630.714" style="stroke: #383838; stroke-width: 0.7;"/><text fill="#000000" font-family="sans-serif" font-size="9.1" lengthAdjust="spacingAndGlyphs" textLength="19.6" x="595.4844" y="653.0966">uses</text><!--MD5=[24c4be50427ea03d219db906fd34ecb2]
reverse link StatusUpdate to IStatusUpdateHandler--><path d="M613.6844,792.596 C613.6844,803.6 613.6844,815.808 613.6844,825.93 " fill="none" id="StatusUpdate&lt;-IStatusUpdateHandler" style="stroke: #383838; stroke-width: 0.7; stroke-dasharray: 7.0,7.0;"/><polygon fill="#383838" points="613.6844,788.914,610.8844,795.214,613.6844,792.414,616.4844,795.214,613.6844,788.914" style="stroke: #383838; stroke-width: 0.7;"/><text fill="#000000" font-family="sans-serif" font-size="9.1" lengthAdjust="spacingAndGlyphs" textLength="19.6" x="595.4844" y="811.2966">uses</text><!--MD5=[b275e05aef11eefeae40b22e62979917]
reverse link CommunicationContext to IChannel--><path d="M42.3375,975.751 C27.2334,983.157 14.8996,994.189 8.8844,1010.45 C-21.6909,1093.1032 111.7403,1357.3714 148.2593,1427.0984 " fill="none" id="CommunicationContext&lt;-IChannel" style="stroke: #383838; stroke-width: 0.7;"/><polygon fill="#383838" points="50.7291,972.104,45.7611,971.2102,43.0253,975.4523,47.9934,976.3461,50.7291,972.104" style="stroke: #383838; stroke-width: 0.7;"/><!--MD5=[af47e807819770cb6e1c9cd45c39026d]
reverse link CommunicationContext to IDatalink--><path d="M157.2844,994.749 C157.2844,999.81 157.2844,1004.864 157.2844,1009.918 " fill="none" id="CommunicationContext&lt;-IDatalink" style="stroke: #383838; stroke-width: 0.7;"/><polygon fill="#383838" points="157.2844,985.649,154.4844,989.849,157.2844,994.049,160.0844,989.849,157.2844,985.649" style="stroke: #383838; stroke-width: 0.7;"/><!--MD5=[68e4271120e3e07486a2243111f6da6e]
reverse link IDatalink to Datalink--><path d="M202.6346,1026.9 C295.407,1026.9 506.7909,1026.9 584.0331,1026.9 " fill="none" id="IDatalink&lt;-Datalink" style="stroke: #383838; stroke-width: 0.7;"/><polygon fill="none" points="202.545,1031.8,188.545,1026.9,202.545,1022,202.545,1031.8" style="stroke: #383838; stroke-width: 0.7;"/><!--MD5=[19f86a544912a52495af54918f84a52f]
reverse link IDatalink to DatalinkPayAtTable--><path d="M202.3917,1033.858 C242.9217,1040.109 304.507,1049.335 358.1844,1056.3 C427.0525,1065.232 506.604,1073.9358 558.2458,1079.3727 " fill="none" id="IDatalink&lt;-DatalinkPayAtTable" style="stroke: #383838; stroke-width: 0.7;"/><polygon fill="none" points="201.551,1038.688,188.4659,1031.702,203.0511,1029,201.551,1038.688" style="stroke: #383838; stroke-width: 0.7;"/><!--MD5=[5ca9078a667707dd5c3264d3476ac454]
reverse link IDatalink to DatalinkStxEtxAckLrc--><path d="M201.0708,1050.259 C240.7118,1070.643 301.7343,1099.2562 358.1844,1114.4 C423.6449,1131.9616 501.3659,1138.7859 553.6111,1141.4326 " fill="none" id="IDatalink&lt;-DatalinkStxEtxAckLrc" style="stroke: #383838; stroke-width: 0.7;"/><polygon fill="none" points="198.6313,1054.515,188.4848,1043.7,203.1638,1045.828,198.6313,1054.515" style="stroke: #383838; stroke-width: 0.7;"/><!--MD5=[9ea8b79108c186c8b54d56c3235e3ef5]
reverse link IDatalink to DatalinkStxEtxCrcSendAck--><path d="M202.6626,1023.652 C230.5219,1020.18 266.4186,1013.012 295.1844,998.2 C329.0469,980.763 323.561,955.976 358.1844,940.1 C415.7636,913.696 488.026,907.557 540.8753,907.319 " fill="none" id="IDatalink&lt;-DatalinkStxEtxCrcSendAck" style="stroke: #383838; stroke-width: 0.7;"/><polygon fill="none" points="203.1547,1028.524,188.7074,1025.164,202.0963,1018.78,203.1547,1028.524" style="stroke: #383838; stroke-width: 0.7;"/><!--MD5=[6a9078e81dd21bc29e4fdd299372c14c]
reverse link IDatalink to DatalinkStxEtxCrcSendAckSeqCounter--><path d="M202.4029,1020.173 C242.9406,1014.125 304.5308,1005.137 358.1844,998.2 C409.3019,991.585 466.2847,984.942 513.3786,979.65 " fill="none" id="IDatalink&lt;-DatalinkStxEtxCrcSendAckSeqCounter" style="stroke: #383838; stroke-width: 0.7;"/><polygon fill="none" points="203.0462,1025.031,188.4743,1022.266,201.593,1015.343,203.0462,1025.031" style="stroke: #383838; stroke-width: 0.7;"/><!--MD5=[54414c5217d86255e1e83a128c00bfed]
reverse link IChannel to ChannelClientSocket--><path d="M170.3842,1474.1881 C195.9475,1532.0011 260.428,1657.9815 358.1844,1715.7 C414.0878,1748.7072 488.754,1755.0484 542.7954,1754.3729 " fill="none" id="IChannel&lt;-ChannelClientSocket" style="stroke: #383838; stroke-width: 0.7;"/><polygon fill="none" points="165.8272,1475.9948,164.7926,1461.1982,174.8292,1472.1203,165.8272,1475.9948" style="stroke: #383838; stroke-width: 0.7;"/><!--MD5=[c1579448bc792d46977b00d7655bfc34]
reverse link IChannel to ChannelClientSocketSSL--><path d="M176.6604,1415.33 C208.0575,1369.6403 276.1045,1281.4697 358.1844,1240.4 C367.6645,1235.6561 377.5793,1231.4981 387.765,1227.8567 " fill="none" id="IChannel&lt;-ChannelClientSocketSSL" style="stroke: #383838; stroke-width: 0.7;"/><polygon fill="none" points="180.677,1418.1377,168.7952,1427.0158,172.5472,1412.6658,180.677,1418.1377" style="stroke: #383838; stroke-width: 0.7;"/><!--MD5=[6d737bc3c886c442cbb7468a849e9fcf]
reverse link IChannel to ChannelClientHTTP--><path d="M187.1163,1417.8073 C224.0231,1386.133 290.9529,1333.9844 358.1844,1308.3 C417.1839,1285.76 488.8072,1277.6582 541.0727,1274.9198 " fill="none" id="IChannel&lt;-ChannelClientHTTP" style="stroke: #383838; stroke-width: 0.7;"/><polygon fill="none" points="190.2138,1421.6076,176.4427,1427.1201,183.7703,1414.2233,190.2138,1421.6076" style="stroke: #383838; stroke-width: 0.7;"/><!--MD5=[d5c13d6fa635f50a360c61b276b0f2b4]
reverse link IChannel to ChannelClientHTTPS--><path d="M202.258,1426.3221 C242.3547,1410.8892 303.3674,1389.0583 358.1844,1376.2 C378.4998,1371.4344 399.8925,1367.2659 421.2922,1363.635 " fill="none" id="IChannel&lt;-ChannelClientHTTPS" style="stroke: #383838; stroke-width: 0.7;"/><polygon fill="none" points="203.8155,1430.9736,188.9916,1431.4888,200.2588,1421.8421,203.8155,1430.9736" style="stroke: #383838; stroke-width: 0.7;"/><!--MD5=[1d0bc7703000d79572f003b524caf812]
reverse link IChannel to ChannelServerSocket--><path d="M202.9153,1440.7127 C285.2059,1434.5093 460.1436,1421.322 552.6822,1414.3458 " fill="none" id="IChannel&lt;-ChannelServerSocket" style="stroke: #383838; stroke-width: 0.7;"/><polygon fill="none" points="203.2296,1445.6029,188.9006,1441.7697,202.4925,1435.8309,203.2296,1445.6029" style="stroke: #383838; stroke-width: 0.7;"/><!--MD5=[5189b6f7f43aae2b821765ab6ef20165]
reverse link IChannel to ChannelServerSocketSSL--><path d="M203.1274,1447.4334 C243.9304,1450.4469 307.3875,1455.1327 372.2817,1459.9249 " fill="none" id="IChannel&lt;-ChannelServerSocketSSL" style="stroke: #383838; stroke-width: 0.7;"/><polygon fill="none" points="202.5016,1452.3005,188.9006,1446.3827,203.2233,1442.5278,202.5016,1452.3005" style="stroke: #383838; stroke-width: 0.7;"/><!--MD5=[dfb81c581e057544a1e90c501d60c061]
reverse link IChannel to ChannelServerHTTP--><path d="M202.2496,1461.9136 C242.3407,1477.3696 303.3499,1499.2159 358.1844,1512 C424.886,1527.5505 503.2062,1536.5329 555.2309,1541.2327 " fill="none" id="IChannel&lt;-ChannelServerHTTP" style="stroke: #383838; stroke-width: 0.7;"/><polygon fill="none" points="200.2469,1466.3922,188.9853,1456.7385,203.8085,1457.2621,200.2469,1466.3922" style="stroke: #383838; stroke-width: 0.7;"/><!--MD5=[4c307866819392b4808e10937aa32029]
reverse link IChannel to ChannelServerHTTPS--><path d="M187.1051,1470.4228 C224,1502.1272 290.9179,1554.3066 358.1844,1579.9 C370.0697,1584.422 382.4667,1588.3539 395.1136,1591.7706 " fill="none" id="IChannel&lt;-ChannelServerHTTPS" style="stroke: #383838; stroke-width: 0.7;"/><polygon fill="none" points="183.7542,1474.0019,176.435,1461.1002,190.2019,1466.6218,183.7542,1474.0019" style="stroke: #383838; stroke-width: 0.7;"/><!--MD5=[f1f00234a06d4cb0092cc8eb0cc47e55]
reverse link IChannel to ChannelComPort--><path d="M176.4154,1472.5578 C207.6907,1518.1852 275.8462,1606.7401 358.1844,1647.8 C387.4325,1662.3852 420.8043,1671.3753 453.5447,1676.7772 " fill="none" id="IChannel&lt;-ChannelComPort" style="stroke: #383838; stroke-width: 0.7;"/><polygon fill="none" points="172.326,1475.2563,168.5915,1460.9014,180.4628,1469.7949,172.326,1475.2563" style="stroke: #383838; stroke-width: 0.7;"/><!--MD5=[4f67af2e5daad4af42e700e3f6149fcc]
reverse link RequestType to IRequestFactory--><path d="M157.2844,338.646 C157.2844,367.521 157.2844,405.517 157.2844,429.037 " fill="none" id="RequestType&lt;-IRequestFactory" style="stroke: #383838; stroke-width: 0.7; stroke-dasharray: 7.0,7.0;"/><polygon fill="#383838" points="157.2844,334.992,154.4844,341.292,157.2844,338.492,160.0844,341.292,157.2844,334.992" style="stroke: #383838; stroke-width: 0.7;"/><text fill="#000000" font-family="sans-serif" font-size="9.1" lengthAdjust="spacingAndGlyphs" textLength="95.9" x="100.9344" y="385.8716">uses to create requests</text><!--MD5=[957a3d72888a1c40a139d4472f551efa]
link IRequestFactory to Request--><path d="M157.2844,472.794 C157.2844,509.25 157.2844,582.008 157.2844,620.634 " fill="none" id="IRequestFactory-&gt;Request" style="stroke: #383838; stroke-width: 0.7; stroke-dasharray: 7.0,7.0;"/><polygon fill="#383838" points="157.2844,624.267,160.0844,617.967,157.2844,620.767,154.4844,617.967,157.2844,624.267" style="stroke: #383838; stroke-width: 0.7;"/><text fill="#000000" font-family="sans-serif" font-size="9.1" lengthAdjust="spacingAndGlyphs" textLength="30.1" x="133.8344" y="552.2966">creates</text><!--MD5=[79fff59fd01e324a1d560ef0509f7f82]
reverse link RequestType to AuthType--><path d="M276.4636,331.898 C303.2484,338.94 331.6201,346.059 358.1844,352.1 C431.9427,368.865 518.6265,384.426 569.506,393.148 " fill="none" id="RequestType&lt;-AuthType" style="stroke: #383838; stroke-width: 0.7;"/><polygon fill="none" points="275.1105,336.609,262.8304,328.293,277.6186,327.138,275.1105,336.609" style="stroke: #383838; stroke-width: 0.7;"/><!--MD5=[c1e8cff569b313e287036b0a412942b2]
reverse link RequestType to SettlementType--><path d="M206.3817,344.358 C244.7529,377.986 301.2268,422.352 358.1844,448.7 C426.335,480.228 512.8606,495.271 565.5202,501.97 " fill="none" id="RequestType&lt;-SettlementType" style="stroke: #383838; stroke-width: 0.7;"/><polygon fill="none" points="203.0189,347.928,195.8096,334.964,209.5289,340.606,203.0189,347.928" style="stroke: #383838; stroke-width: 0.7;"/><!--MD5=[d76aa69d37fbedf77fb864dbbfb30eb0]
reverse link RequestType to CardType--><path d="M187.6252,251.139 C222.0155,200.109 283.6449,121.1 358.1844,80.5 C423.6974,44.814 511.5789,37.177 565.1471,36.204 " fill="none" id="RequestType&lt;-CardType" style="stroke: #383838; stroke-width: 0.7;"/><polygon fill="none" points="191.6971,253.862,179.8867,262.836,183.5239,248.458,191.6971,253.862" style="stroke: #383838; stroke-width: 0.7;"/><!--MD5=[2f672c065af222e317722e9a6cece1bb]
reverse link RequestType to TerminalStatusType--><path d="M204.6632,252.938 C242.7019,218.393 299.5447,173.075 358.1844,149.1 C422.7398,122.71 503.4127,115.752 556.4797,114.345 " fill="none" id="RequestType&lt;-TerminalStatusType" style="stroke: #383838; stroke-width: 0.7;"/><polygon fill="none" points="207.8167,256.69,194.2066,262.591,201.1681,249.494,207.8167,256.69" style="stroke: #383838; stroke-width: 0.7;"/><!--MD5=[351ab3c6cdb05d119e2ef83021632492]
reverse link RequestType to TerminalControlType--><path d="M276.4636,265.902 C303.2484,258.86 331.6201,251.741 358.1844,245.7 C425.2472,230.454 502.9955,216.209 554.8018,207.193 " fill="none" id="RequestType&lt;-TerminalControlType" style="stroke: #383838; stroke-width: 0.7;"/><polygon fill="none" points="277.6186,270.662,262.8304,269.507,275.1105,261.191,277.6186,270.662" style="stroke: #383838; stroke-width: 0.7;"/><!--MD5=[49b177b52bda788693e34b2a780236c3]
reverse link RequestType to OtherType--><path d="M276.8857,298.9 C375.1503,298.9 508.732,298.9 573.9384,298.9 " fill="none" id="RequestType&lt;-OtherType" style="stroke: #383838; stroke-width: 0.7;"/><polygon fill="none" points="276.6561,303.8,262.6561,298.9,276.6561,294,276.6561,303.8" style="stroke: #383838; stroke-width: 0.7;"/><!--MD5=[06d60eb74bf7b4dd9aaee8f8f326085e]
@startuml
skinparam monochrome true
skinparam classFontSize 15
left to right direction

class Integra {
  connect()
  sendRequest(request: Request, handler: IResponseHandler)
}

Integra *- - IStatusUpdateHandler
Integra ..> IResponseHandler: uses
Integra .up> Request: uses
Integra *- CommunicationContext

IResponseHandler .up> Response: uses
IStatusUpdateHandler .left> StatusUpdate: uses

interface IStatusUpdateHandler {
  onStatusUpdate(update: StatusUpdate)
}

interface IResponseHandler {
  onResponse(response: Response)
}

class Response {
  options: HashMap<String, String>
  getValue(key: String) : String
}

class StatusUpdate {
  options: HashMap<String, String>
  getValue(key: String) : String
}

class CommunicationContext {
  CommunicationContext(channel: IChannel, datalink : IDatalink)
}

CommunicationContext *-right- IChannel
CommunicationContext *-right- IDatalink


interface IDatalink
class Datalink
class DatalinkPayAtTable
class DatalinkStxEtxAckLrc
class DatalinkStxEtxCrcSendAck
class DatalinkStxEtxCrcSendAckSeqCounter

IDatalink <|- - Datalink
IDatalink <|- - DatalinkPayAtTable
IDatalink <|- - DatalinkStxEtxAckLrc
IDatalink <|- - DatalinkStxEtxCrcSendAck
IDatalink <|- - DatalinkStxEtxCrcSendAckSeqCounter

interface IChannel
class ChannelClientSocket {
  ChannelClientSocket(ip: String, port: int)
}

class ChannelClientSocketSSL {
  ChannelClientSocketSSL(ip: String, port: int, keyStoreFile: String, keyStorePassword:string, keyPassword: String, ciphers: String[], protocols: String[])
}

class ChannelClientHTTP {
  ChannelClientHTTP(host: String, port: int)
}

class ChannelClientHTTPS {
  ChannelClientHTTPS(host: String, port: int, keyStoreFile: String, keyStorePassword:string, keyPassword: String, ciphers: String[], protocols: String[])
}

class ChannelServerSocket {
  ChannelServerSocket(port: int)
}

class ChannelServerSocketSSL {
  ChannelServerSocketSSL(port: int, keyStoreFile: String, keyStorePassword:string, keyPassword: String, ciphers: String[], protocols: String[])
}

class ChannelServerHTTP {
  ChannelServerHTTP(port: int)
}

class ChannelServerHTTPS {
  ChannelServerHTTPS(port: int, keyStoreFile: String, keyStorePassword:string, keyPassword: String, ciphers: String[], protocols: String[])
}

class ChannelComPort {
  ChannelComPort(comPort: String, baudRate: int, dataBits: int, parity, stopBits: int, handshake)
}

IChannel <|- - ChannelClientSocket
IChannel <|- - ChannelClientSocketSSL
IChannel <|- - ChannelClientHTTP
IChannel <|- - ChannelClientHTTPS
IChannel <|- - ChannelServerSocket
IChannel <|- - ChannelServerSocketSSL
IChannel <|- - ChannelServerHTTP
IChannel <|- - ChannelServerHTTPS
IChannel <|- - ChannelComPort

interface IRequestFactory {
  createRequest(type: RequestType, options: HashMap<String, String>): Request
}

class Request {
  Request(type: String, options: HashMap<String, String>)
}

interface RequestType {
  getType(): String
  getExtraTag(): String
  getExtraType(): String
  getValidator(): Function<HashMap<String, String>, Boolean>
}

enum AuthType {
  PRE_AUTH
  TOP_UP
  PRE_AUTH_REVERSAL
  TOP_UP_REVERSAL
}

enum SettlementType {
  SALE
  REFUND
  COMPLETION
  SALE_REVERSAL
  REFUND_REVERSAL
  COMPLETION_REVERSAL
}

enum CardType {
  CARD_CHECK
  CARD_CHECK_VALIDATE
  CARD_CHECK_REMOVE
}

enum TerminalStatusType {
  INFO
}

enum TerminalControlType {
  TERMINAL_ACTIVATE
  TERMINAL_DEACTIVATE
  TERMINAL_LANGUAGE
  TERMINAL_SLEEP
}

enum OtherType {
  CANCEL
  CHECK_STATUS
  SHIFT_OPEN
  SHIFT_CLOSE
  SHIFT_CLOSE_OPEN
}

IRequestFactory .left.> RequestType : uses to create requests
IRequestFactory .> Request : creates

RequestType <|- - AuthType
RequestType <|- - SettlementType
RequestType <|- - CardType
RequestType <|- - TerminalStatusType
RequestType <|- - TerminalControlType
RequestType <|- - OtherType

@enduml

PlantUML version 1.2020.03beta6(Unknown compile time)
(GPL source distribution)
Java Runtime: OpenJDK Runtime Environment
JVM: OpenJDK 64-Bit Server VM
Java Version: 11.0.6+8-b520.43
Operating System: Windows 10
Default Encoding: Cp1252
Language: pt
Country: PT
--></g></svg>